<svg xmlns="http://www.w3.org/2000/svg" xmlns:xlink="http://www.w3.org/1999/xlink" width="1920" zoomAndPan="magnify" viewBox="0 0 1440 809.999993" height="1080" preserveAspectRatio="xMidYMid meet" version="1.0"><defs><clipPath id="ed95ba99cd"><path d="M 247 32 L 1193 32 L 1193 783.804688 L 247 783.804688 Z M 247 32 " clip-rule="nonzero"/></clipPath></defs><g clip-path="url(#ed95ba99cd)"><path fill="#2291f6" d="M 1158.859375 679.496094 C 1135.070312 650.511719 1098.054688 611.8125 1051.675781 567.414062 C 1067.375 531.519531 1077.394531 492.597656 1080.542969 451.777344 C 1081.210938 450.578125 1081.621094 449.21875 1081.621094 447.75 C 1081.621094 446.648438 1081.394531 445.597656 1081.007812 444.632812 C 1081.398438 437.757812 1081.621094 430.835938 1081.621094 423.859375 C 1081.621094 339.597656 1052.464844 262.027344 1003.726562 200.671875 C 1009.789062 194.746094 1015.703125 188.90625 1021.421875 183.1875 C 1127.570312 76.992188 1131.960938 50.484375 1122.253906 38.558594 C 1116.082031 30.972656 1103.152344 26.601562 1054.050781 51.730469 C 1022.519531 67.867188 978.96875 94.71875 928.066406 129.398438 C 869.710938 88.46875 798.703125 64.410156 722.171875 64.410156 C 644.648438 64.410156 572.78125 89.082031 514.003906 130.984375 C 513.664062 130.660156 513.316406 130.34375 512.914062 130.070312 C 461.585938 95.0625 417.675781 67.972656 385.9375 51.730469 C 336.84375 26.605469 323.910156 30.972656 317.734375 38.558594 C 308.03125 50.484375 312.417969 76.992188 418.566406 183.1875 C 425.058594 189.679688 431.789062 196.320312 438.722656 203.074219 C 391.125 264.046875 362.722656 340.695312 362.722656 423.859375 C 362.722656 430.835938 362.945312 437.757812 363.339844 444.632812 C 362.949219 445.597656 362.722656 446.648438 362.722656 447.75 C 362.722656 449.21875 363.136719 450.578125 363.800781 451.777344 C 366.867188 491.484375 376.414062 529.398438 391.382812 564.472656 C 343.558594 610.113281 305.445312 649.871094 281.132812 679.496094 C 251.195312 715.976562 242.277344 736.277344 251.3125 747.382812 C 254.058594 750.75 258.164062 753.257812 265.488281 753.257812 C 284.078125 753.253906 323.351562 737.109375 413.40625 678.023438 C 424.371094 670.828125 435.707031 663.238281 447.367188 655.28125 C 513.355469 733.515625 612.050781 783.308594 722.171875 783.308594 C 831.410156 783.308594 929.410156 734.3125 995.386719 657.160156 C 1006.074219 664.429688 1016.492188 671.402344 1026.585938 678.023438 C 1116.648438 737.117188 1155.914062 753.257812 1174.5 753.257812 C 1181.820312 753.257812 1185.933594 750.75 1188.675781 747.382812 C 1197.710938 736.277344 1188.796875 715.976562 1158.859375 679.496094 Z M 380.945312 456.097656 L 460.273438 456.097656 C 463.628906 508.085938 475.074219 557.777344 493.773438 602.386719 C 479 612.976562 464.601562 623.121094 450.640625 632.769531 C 412.1875 582.902344 387.140625 522.203125 380.945312 456.097656 Z M 477.011719 456.097656 L 589.25 456.097656 C 590.035156 480.636719 591.710938 504.660156 594.238281 527.867188 C 564.511719 550.597656 535.542969 572.183594 507.773438 592.300781 C 491.105469 551.371094 480.320312 505.226562 477.011719 456.097656 Z M 475.914062 423.859375 C 475.914062 366.464844 486.117188 312.332031 504.109375 264.753906 C 531.539062 289.886719 561.015625 316.097656 592.03125 342.933594 C 589.855469 369.167969 588.730469 396.277344 588.730469 423.859375 C 588.730469 429.058594 588.777344 434.238281 588.855469 439.402344 L 476.179688 439.402344 C 476.015625 434.25 475.914062 429.070312 475.914062 423.859375 Z M 968.167969 439.402344 L 855.492188 439.402344 C 855.570312 434.238281 855.617188 429.058594 855.617188 423.859375 C 855.617188 395.042969 854.390625 366.746094 852.015625 339.421875 C 882.769531 312.75 911.957031 286.734375 939.109375 261.789062 C 957.804688 310.074219 968.429688 365.269531 968.429688 423.859375 C 968.429688 429.070312 968.332031 434.25 968.167969 439.402344 Z M 605.421875 423.859375 C 605.421875 400.96875 606.207031 378.421875 607.734375 356.460938 C 639.433594 383.652344 672.617188 411.402344 706.765625 439.261719 C 706.707031 439.308594 706.648438 439.355469 706.589844 439.402344 L 605.550781 439.402344 C 605.46875 434.242188 605.421875 429.0625 605.421875 423.859375 Z M 609.402344 335.867188 C 614.863281 276.757812 625.824219 222.609375 641.578125 178.394531 C 661.507812 122.460938 687.449219 88.113281 713.824219 82.070312 L 713.824219 423.480469 C 677.761719 394.003906 642.738281 364.609375 609.402344 335.867188 Z M 685.867188 456.097656 C 660.199219 476.671875 634.757812 496.671875 609.785156 515.929688 C 607.898438 496.480469 606.613281 476.476562 605.953125 456.097656 Z M 712.492188 456.097656 L 713.824219 456.097656 L 713.824219 765.652344 C 687.449219 759.609375 661.507812 725.257812 641.578125 669.324219 C 627.941406 631.046875 617.894531 585.324219 611.898438 535.382812 C 644.710938 510.1875 678.421875 483.621094 712.492188 456.097656 Z M 754.125 456.097656 L 838.394531 456.097656 C 837.699219 477.570312 836.308594 498.621094 834.25 519.046875 C 807.984375 498.835938 781.175781 477.78125 754.125 456.097656 Z M 832.078125 538.433594 C 826.039062 587.183594 816.125 631.828125 802.765625 669.324219 C 782.835938 725.257812 756.898438 759.609375 730.519531 765.652344 L 730.519531 458.535156 C 764.941406 486.304688 798.976562 513.074219 832.078125 538.433594 Z M 733.402344 439.402344 C 733.34375 439.355469 733.285156 439.308594 733.226562 439.261719 C 768.851562 410.195312 803.417969 381.253906 836.355469 352.9375 C 838.050781 376.011719 838.921875 399.738281 838.921875 423.859375 C 838.921875 429.0625 838.875 434.242188 838.796875 439.402344 Z M 730.519531 419.914062 L 730.519531 82.070312 C 756.898438 88.113281 782.835938 122.460938 802.765625 178.394531 C 818.210938 221.742188 829.054688 274.632812 834.617188 332.386719 C 801.417969 361.078125 766.5 390.445312 730.519531 419.914062 Z M 850.015625 319.023438 C 844.015625 264.453125 833.320312 214.40625 818.492188 172.792969 C 804.949219 134.773438 788.644531 106.074219 770.605469 87.777344 C 838.898438 106.8125 897.078125 165.28125 932.3125 245.339844 C 906.632812 269.019531 879.042969 293.714844 850.015625 319.023438 Z M 625.851562 172.792969 C 610.710938 215.289062 599.878906 266.578125 593.957031 322.496094 C 564.636719 296.992188 536.769531 272.097656 510.792969 248.207031 C 545.894531 166.679688 604.636719 107.039062 673.742188 87.777344 C 655.703125 106.074219 639.398438 134.773438 625.851562 172.792969 Z M 596.558594 547.105469 C 602.816406 594.519531 612.710938 638.039062 625.851562 674.929688 C 639.398438 712.945312 655.703125 741.648438 673.738281 759.941406 C 607.058594 741.355469 550.015625 685.175781 514.558594 608.007812 C 540.917969 588.957031 568.367188 568.566406 596.558594 547.105469 Z M 818.492188 674.929688 C 831.359375 638.820312 841.113281 596.363281 847.386719 550.117188 C 875.347656 571.355469 902.566406 591.527344 928.683594 610.359375 C 893.15625 686.316406 836.605469 741.546875 770.605469 759.941406 C 788.644531 741.648438 804.949219 712.945312 818.492188 674.929688 Z M 849.761719 530.929688 C 852.480469 506.773438 854.277344 481.71875 855.09375 456.097656 L 967.332031 456.097656 C 963.960938 506.199219 952.820312 553.203125 935.585938 594.734375 C 908.039062 574.828125 879.289062 553.453125 849.761719 530.929688 Z M 984.070312 456.097656 L 1063.398438 456.097656 C 1057.121094 523.070312 1031.511719 584.503906 992.195312 634.734375 C 978.398438 625.226562 964.167969 615.230469 949.558594 604.785156 C 968.859375 559.5625 980.65625 509.019531 984.070312 456.097656 Z M 1064.925781 423.859375 C 1064.925781 429.070312 1064.789062 434.25 1064.558594 439.402344 L 984.871094 439.402344 C 985.03125 434.238281 985.125 429.058594 985.125 423.859375 C 985.125 361.894531 973.730469 302.300781 952.328125 249.582031 C 966.050781 236.839844 979.199219 224.410156 991.707031 212.347656 C 1037.550781 270.644531 1064.925781 344.113281 1064.925781 423.859375 Z M 1108.949219 49.386719 C 1108.511719 54.472656 1100.699219 81.191406 1002.625 178.34375 C 999.476562 181.460938 996.261719 184.621094 993.011719 187.800781 C 977.699219 170.253906 960.710938 154.207031 942.300781 139.90625 C 1073.148438 51.195312 1103.613281 48.730469 1108.949219 49.386719 Z M 981.035156 199.441406 C 969.65625 210.421875 957.71875 221.730469 945.308594 233.296875 C 935.042969 210.898438 922.890625 189.902344 908.960938 170.695312 C 888.296875 142.199219 864.75 119.046875 839.214844 101.695312 C 894.492188 121.839844 943.171875 155.824219 981.035156 199.441406 Z M 535.382812 170.695312 C 520.863281 190.714844 508.289062 212.691406 497.753906 236.160156 C 485.101562 224.398438 472.953125 212.914062 461.351562 201.746094 C 499.492188 157.027344 548.890625 122.191406 605.132812 101.695312 C 579.59375 119.046875 556.046875 142.199219 535.382812 170.695312 Z M 437.367188 178.34375 C 339.292969 81.191406 331.480469 54.472656 331.039062 49.386719 C 336.429688 48.726562 367.222656 51.242188 500.007812 141.480469 C 481.578125 156.011719 464.609375 172.3125 449.339844 190.109375 C 445.277344 186.144531 441.273438 182.214844 437.367188 178.34375 Z M 450.789062 214.757812 C 463.515625 226.992188 476.886719 239.601562 490.839844 252.527344 C 470.199219 304.515625 459.222656 363.042969 459.222656 423.859375 C 459.222656 429.058594 459.316406 434.238281 459.476562 439.402344 L 379.785156 439.402344 C 379.554688 434.25 379.417969 429.070312 379.417969 423.859375 C 379.417969 345.203125 406.070312 272.664062 450.789062 214.757812 Z M 412.480469 658.636719 C 297.410156 734.949219 269.683594 737.160156 264.617188 736.550781 C 265.074219 730.996094 274.214844 699.84375 398.71875 580.554688 C 409.367188 602.445312 422.183594 623.089844 436.867188 642.230469 C 428.5625 647.890625 420.425781 653.367188 412.480469 658.636719 Z M 461.1875 645.78125 C 474.015625 636.90625 487.199219 627.628906 500.703125 617.972656 C 510.613281 639.039062 522.195312 658.839844 535.382812 677.027344 C 556.046875 705.523438 579.59375 728.675781 605.132812 746.027344 C 548.808594 725.5 499.347656 690.59375 461.1875 645.78125 Z M 839.214844 746.027344 C 864.75 728.675781 888.296875 705.523438 908.960938 677.027344 C 921.667969 659.507812 932.878906 640.496094 942.542969 620.296875 C 955.871094 629.804688 968.894531 638.949219 981.550781 647.679688 C 943.613281 691.585938 894.742188 725.789062 839.214844 746.027344 Z M 1027.507812 658.636719 C 1020.480469 653.976562 1013.292969 649.140625 1005.984375 644.175781 C 1020.660156 625.316406 1033.484375 604.960938 1044.21875 583.382812 C 1165.917969 700.339844 1174.921875 731.042969 1175.375 736.550781 C 1170.292969 737.144531 1142.582031 734.949219 1027.507812 658.636719 Z M 1027.507812 658.636719 " fill-opacity="1" fill-rule="nonzero"/></g></svg>