<svg xmlns="http://www.w3.org/2000/svg" xmlns:xlink="http://www.w3.org/1999/xlink" width="500" zoomAndPan="magnify" viewBox="0 0 375 374.999991" height="500" preserveAspectRatio="xMidYMid meet" version="1.0"><path fill="#ffffff" d="M 187.5 0 C 83.953125 0 0 83.953125 0 187.5 C 0 291.058594 83.953125 375 187.5 375 C 291.046875 375 375 291.058594 375 187.5 C 375 83.953125 291.046875 0 187.5 0 Z M 240.023438 330.339844 C 238.945312 315.667969 237.738281 297.492188 237.667969 290.132812 C 237.199219 284.484375 236.585938 270.117188 222.949219 260.941406 C 277.101562 256.40625 302.871094 226.476562 304.722656 186.925781 C 306.269531 164.402344 297.316406 144.597656 281.414062 128.613281 C 282.222656 111.515625 280.898438 91.253906 279.796875 82.347656 C 267.585938 78.832031 239.109375 93.867188 231.152344 100.300781 C 214.371094 93.785156 173.296875 91.5 148.335938 100.300781 C 130.640625 87.855469 110.496094 80.167969 99.515625 82.3125 C 89.378906 104.777344 95.894531 126.011719 97.875 128.542969 C 84.820312 140.472656 66.609375 155.15625 71.554688 185.917969 C 79.488281 231.023438 111.222656 255.351562 162.316406 261.304688 C 151.417969 263.53125 149.578125 271.664062 148.664062 275.191406 C 114.351562 289.347656 104.542969 266.449219 100.207031 260.484375 C 85.804688 242.660156 72.878906 247.828125 72.082031 248.109375 C 71.308594 248.390625 70.722656 249.515625 70.804688 250.054688 C 71.53125 253.898438 79.371094 257.800781 79.757812 258.117188 C 90.386719 266.039062 94.324219 280.347656 96.746094 284.425781 C 111.992188 309.492188 147.433594 299.097656 147.773438 299.308594 C 147.796875 301.5 147.527344 319.945312 147.316406 334.300781 C 82.699219 316.652344 35.15625 257.707031 35.15625 187.5 C 35.15625 103.359375 103.359375 35.15625 187.5 35.15625 C 271.636719 35.15625 339.84375 103.359375 339.84375 187.5 C 339.84375 253.160156 298.242188 308.929688 240.023438 330.339844 Z M 240.023438 330.339844 " fill-opacity="1" fill-rule="nonzero"/></svg>