<?xml version="1.0" standalone="no"?>
<!DOCTYPE svg PUBLIC "-//W3C//DTD SVG 20010904//EN"
 "http://www.w3.org/TR/2001/REC-SVG-20010904/DTD/svg10.dtd">
<svg version="1.0" xmlns="http://www.w3.org/2000/svg"
 width="866.000000pt" height="650.000000pt" viewBox="0 0 866.000000 650.000000"
 preserveAspectRatio="xMidYMid meet">

<g transform="translate(0.000000,650.000000) scale(0.100000,-0.100000)"
fill="#000000" stroke="none">
<path d="M4065 6199 c-1330 -124 -2417 -1096 -2680 -2395 -41 -199 -57 -371
-57 -594 0 -215 10 -340 43 -530 189 -1088 989 -2001 2049 -2337 177 -57 184
-58 174 -36 -5 10 -10 156 -12 324 l-3 307 -237 5 c-260 5 -309 13 -419 69
-73 36 -159 122 -196 194 -13 27 -44 103 -67 169 -81 226 -149 343 -246 420
-63 50 -74 64 -74 92 0 34 41 57 94 51 109 -13 258 -120 393 -284 153 -187
184 -205 369 -212 109 -4 375 11 446 25 15 3 28 11 28 17 0 21 80 168 124 230
56 78 147 168 210 209 l49 32 -39 7 c-511 94 -746 181 -994 369 -227 172 -365
393 -426 681 -23 110 -24 344 -1 445 45 197 144 395 274 550 l44 52 -20 78
c-43 169 -55 264 -55 438 -1 188 9 235 65 334 l31 54 92 -6 c226 -14 456 -121
638 -295 l67 -65 113 31 c222 61 382 82 614 83 242 0 392 -20 622 -83 l112
-32 63 62 c151 149 323 242 522 283 117 24 197 25 217 2 104 -119 118 -449 32
-786 l-25 -100 29 -31 c50 -52 143 -196 188 -291 107 -226 138 -475 90 -727
-70 -364 -299 -648 -670 -828 -180 -88 -444 -163 -668 -192 -54 -7 -98 -15
-98 -18 0 -3 21 -18 46 -34 63 -40 166 -146 219 -227 65 -97 130 -240 162
-355 l28 -99 0 -437 c0 -355 2 -438 13 -438 23 0 224 86 352 150 732 367 1283
1025 1520 1813 192 641 163 1335 -82 1964 -98 252 -271 551 -448 773 -107 135
-335 363 -470 470 -433 344 -938 559 -1491 635 -138 19 -516 27 -654 14z"/>
</g>
</svg>
