<?xml version="1.0" encoding="utf-8"?><!-- Uploaded to: SVG Repo, www.svgrepo.com, Generator: SVG Repo Mixer Tools -->
<svg width="800px" height="800px" viewBox="0 0 24 24" fill="none" xmlns="http://www.w3.org/2000/svg">
<path d="M8.30595 19.371L12.0008 16.7999L12.0008 4.44753V4.44752C12.0008 4.18078 12.0008 4.0474 11.9674 4.01758C11.9387 3.99199 11.8979 3.98509 11.8624 3.99986C11.821 4.01705 11.7772 4.14304 11.6897 4.395L9.94998 9.39985C9.8841 9.58938 9.85116 9.68414 9.7918 9.75471C9.73936 9.81706 9.67249 9.86564 9.597 9.89625C9.51154 9.93089 9.41123 9.93294 9.21063 9.93702L5.26677 10.0174C4.56191 10.0318 4.20949 10.0389 4.06884 10.1732C3.94711 10.2894 3.892 10.459 3.92218 10.6246C3.95706 10.8158 4.23795 11.0288 4.79975 11.4547L7.94316 13.8379C8.10305 13.9591 8.183 14.0197 8.23177 14.098C8.27486 14.1671 8.3004 14.2457 8.30618 14.327C8.31272 14.419 8.28367 14.515 8.22556 14.707L7.08328 18.4827C6.87913 19.1575 6.77706 19.4949 6.86127 19.6702C6.93416 19.8218 7.07846 19.9267 7.24523 19.9491C7.43793 19.9751 7.72727 19.7737 8.30595 19.371Z" stroke="#000000" stroke-width="2" stroke-linecap="round" stroke-linejoin="round"/>
</svg>