<?xml version="1.0" encoding="utf-8"?><!-- Uploaded to: SVG Repo, www.svgrepo.com, Generator: SVG Repo Mixer Tools -->
<svg width="800px" height="800px" viewBox="0 0 24 24" fill="none" xmlns="http://www.w3.org/2000/svg">
<path d="M4 9.5H20M4 14.5H20M9 4.5V19.5M7.2 19.5H16.8C17.9201 19.5 18.4802 19.5 18.908 19.282C19.2843 19.0903 19.5903 18.7843 19.782 18.408C20 17.9802 20 17.4201 20 16.3V7.7C20 6.5799 20 6.01984 19.782 5.59202C19.5903 5.21569 19.2843 4.90973 18.908 4.71799C18.4802 4.5 17.9201 4.5 16.8 4.5H7.2C6.0799 4.5 5.51984 4.5 5.09202 4.71799C4.71569 4.90973 4.40973 5.21569 4.21799 5.59202C4 6.01984 4 6.57989 4 7.7V16.3C4 17.4201 4 17.9802 4.21799 18.408C4.40973 18.7843 4.71569 19.0903 5.09202 19.282C5.51984 19.5 6.07989 19.5 7.2 19.5Z" stroke="#000000" stroke-width="2"/>
</svg>