<svg xmlns="http://www.w3.org/2000/svg" xmlns:xlink="http://www.w3.org/1999/xlink" width="500" zoomAndPan="magnify" viewBox="0 0 375 374.999991" height="500" preserveAspectRatio="xMidYMid meet" version="1.0"><defs><g/></defs><path stroke-linecap="butt" transform="matrix(0.662564, -0.351439, 0.351439, 0.662564, 56.74587, 163.889111)" fill="none" stroke-linejoin="miter" d="M 17.099226 74.001009 L 59.731992 73.998653 C 60.768764 74.000284 61.591795 73.104419 61.593425 72.067648 L 61.590913 55.699963 C 61.587943 54.660752 60.773578 53.83968 59.729765 53.84021 L 26.137148 53.838601 C 25.081693 53.838851 24.260286 53.01994 24.261917 51.983169 L 24.259131 36.305132 C 24.258881 35.249676 25.082393 34.43071 26.137848 34.43046 L 59.732906 34.427468 C 60.769677 34.429099 61.592708 33.533234 61.589738 32.494023 L 61.589106 16.145023 C 61.588856 15.089567 60.76989 14.266055 59.730678 14.269025 L 17.097912 14.271381 C 8.290899 14.269302 1.85752 20.684956 1.859762 29.506053 L 1.859954 58.760419 C 1.859755 67.586116 8.292213 73.99893 17.099226 74.001009 Z M 17.099226 74.001009 " stroke="#231f20" stroke-width="7.653336" stroke-opacity="1" stroke-miterlimit="4"/><path stroke-linecap="butt" transform="matrix(0.722479, -0.201307, 0.201307, 0.722479, 105.83797, 139.255186)" fill="none" stroke-linejoin="miter" d="M 16.950284 73.997662 L 35.543733 73.998788 C 36.58113 74.001285 37.40423 73.181723 37.40171 72.142928 L 37.401852 51.981251 C 37.404925 50.922387 38.223007 50.101427 39.260404 50.103924 L 48.684819 50.102219 C 49.652798 50.101595 50.547211 49.355969 50.545188 48.393007 L 50.543835 16.438825 C 50.54262 15.162497 49.796995 14.268084 48.596499 14.268802 L 30.0195 14.266854 C 28.964255 14.270197 28.141156 15.089759 28.142603 16.074188 L 28.141048 31.001751 C 28.140943 32.185797 27.251548 32.93282 26.212752 32.935339 C 25.153888 32.932267 24.25899 32.185498 24.259095 31.001452 L 24.260651 16.073889 C 24.259203 15.08946 23.439641 14.266361 22.400845 14.26888 L 3.807396 14.267755 C 2.606901 14.268473 1.860132 15.163371 1.85633 16.438302 L 1.857683 48.392484 C 1.859705 49.355446 2.771053 50.101392 3.737635 50.105785 L 13.140583 50.103505 C 14.179378 50.100986 14.998941 50.924085 15.002283 51.97933 L 15.002142 72.141006 C 14.999644 73.178403 15.895039 74.001005 16.950284 73.997662 Z M 16.950284 73.997662 " stroke="#231f20" stroke-width="7.653336" stroke-opacity="1" stroke-miterlimit="4"/><path stroke-linecap="butt" transform="matrix(0.748844, -0.0416165, 0.0416165, 0.748844, 150.948818, 127.047882)" fill="none" stroke-linejoin="miter" d="M 3.73854 74.002414 L 49.58018 73.999226 C 56.596272 73.997913 61.73919 68.843052 61.738166 61.821761 L 61.734852 53.621442 C 61.734935 49.208398 58.527556 46.004655 54.135602 46.000528 L 53.46245 46.004849 C 52.403608 46.003385 51.583418 45.180564 51.583726 44.142524 C 51.585191 43.083682 52.402811 42.263203 53.461653 42.264667 L 54.134516 42.265547 C 58.526759 42.264473 61.735702 39.057384 61.735785 34.644339 L 61.737671 26.444309 C 61.736358 19.428218 56.597966 14.270566 49.576963 14.26639 L 3.735323 14.269578 C 2.681682 14.268402 1.858861 15.088592 1.857397 16.147434 L 1.859817 72.140088 C 1.859509 73.178129 2.679698 74.00095 3.73854 74.002414 Z M 26.14077 35.55604 C 25.081639 35.559776 24.261449 34.736955 24.262624 33.683314 C 24.263222 32.640073 25.080842 31.819594 26.139684 31.821058 L 37.328739 31.822134 C 38.366779 31.822442 39.187258 32.640063 39.18695 33.678103 C 39.190686 34.737234 38.367865 35.557424 37.329824 35.557116 Z M 26.137779 56.447437 C 25.078937 56.445973 24.258458 55.628352 24.259056 54.585112 C 24.259364 53.547071 25.082185 52.726881 26.135826 52.728056 L 37.330081 52.729421 C 38.368122 52.72973 39.188601 53.54735 39.188292 54.585391 C 39.187695 55.628631 38.370075 56.44911 37.332034 56.448802 Z M 26.137779 56.447437 " stroke="#231f20" stroke-width="7.653336" stroke-opacity="1" stroke-miterlimit="4"/><path stroke-linecap="butt" transform="matrix(0.737689, 0.135334, -0.135334, 0.737689, 206.729727, 124.916769)" fill="none" stroke-linejoin="miter" d="M 3.806751 73.998123 L 59.804019 73.997814 C 60.841929 73.998031 61.666114 73.179626 61.666331 72.141716 L 61.661043 57.940812 C 61.66126 56.902902 60.769255 56.081629 59.731346 56.081412 L 26.138107 56.080657 C 25.079706 56.084199 24.261301 55.260015 24.261518 54.222105 C 24.258916 53.168826 25.082161 52.345299 26.136379 52.347819 L 56.816195 52.342946 C 57.854104 52.343163 58.673166 51.525698 58.673383 50.487789 L 58.6728 37.784578 C 58.672077 36.741545 57.780073 35.920272 56.742163 35.920055 L 26.135947 35.922017 C 25.082669 35.924619 24.259141 35.101374 24.259358 34.063464 C 24.260939 33.004123 25.080001 32.186658 26.139342 32.188239 L 59.806179 32.186081 C 60.844089 32.186299 61.662211 31.363711 61.662428 30.325801 L 61.666022 16.144448 C 61.66342 15.091169 60.845015 14.266985 59.801982 14.267707 L 3.736237 14.269988 C 2.676896 14.268408 1.858774 15.090995 1.861376 16.144274 L 1.861685 72.141542 C 1.861468 73.179452 2.768841 73.997906 3.806751 73.998123 Z M 3.806751 73.998123 " stroke="#231f20" stroke-width="7.653336" stroke-opacity="1" stroke-miterlimit="4"/><path stroke-linecap="butt" transform="matrix(0.685391, 0.304531, -0.304531, 0.685391, 261.38776, 135.925714)" fill="none" stroke-linejoin="miter" d="M 3.736595 73.998103 L 22.401515 73.997439 C 23.439072 73.998078 24.263077 73.107622 24.261601 72.065305 L 24.258167 54.587071 C 24.258806 53.549514 25.079631 52.728862 26.138341 52.725802 L 37.327774 52.729633 C 38.370091 52.728157 39.190742 53.548982 39.190103 54.586539 L 39.187712 72.141453 C 39.187073 73.17901 40.007725 73.999835 41.06855 74.001534 L 59.73347 74.000869 C 60.771027 74.001508 61.592918 73.106293 61.593557 72.068736 L 61.59234 53.620634 C 61.592808 49.209166 58.383702 46.001495 53.972234 46.001027 L 53.317019 46.001487 C 52.258308 46.004547 51.437657 45.183722 51.436181 44.141406 C 51.439995 43.08534 52.256061 42.266804 53.314771 42.263743 L 53.972101 42.268043 C 58.381455 42.263752 61.591241 39.059405 61.591709 34.647937 L 61.589934 26.44743 C 61.588035 19.426733 56.451036 14.265902 49.430339 14.267802 L 3.739228 14.268244 C 2.678403 14.266545 1.857578 15.087196 1.860638 16.145906 L 1.857872 72.142782 C 1.857233 73.180338 2.677884 74.001164 3.736595 73.998103 Z M 26.136989 35.560104 C 25.080924 35.55629 24.260273 34.735465 24.259327 33.681514 C 24.259966 32.643957 25.080791 31.823306 26.139501 31.820245 L 37.328934 31.824076 C 38.371251 31.8226 39.189787 32.638666 39.191263 33.680983 C 39.187449 34.737048 38.366624 35.557699 37.329067 35.55706 Z M 26.136989 35.560104 " stroke="#231f20" stroke-width="7.653336" stroke-opacity="1" stroke-miterlimit="4"/><g fill="#2291f6" fill-opacity="1"><g transform="translate(82.752351, 212.918822)"><g><path d="M 11.328125 -6.007812 L 39.574219 -20.992188 C 40.265625 -21.359375 40.496094 -22.242188 40.128906 -22.933594 L 34.382812 -33.765625 C 34.015625 -34.457031 33.183594 -34.714844 32.488281 -34.347656 L 10.230469 -22.539062 C 9.535156 -22.171875 8.703125 -22.425781 8.335938 -23.121094 L 2.828125 -33.507812 C 2.460938 -34.199219 2.714844 -35.035156 3.40625 -35.402344 L 25.667969 -47.207031 C 26.359375 -47.574219 26.589844 -48.457031 26.222656 -49.148438 L 20.476562 -59.984375 C 20.109375 -60.675781 19.277344 -60.933594 18.582031 -60.5625 L -9.664062 -45.582031 C -15.5 -42.484375 -17.496094 -35.976562 -14.402344 -30.136719 L -4.117188 -10.746094 C -1.019531 -4.910156 5.492188 -2.914062 11.328125 -6.007812 Z M 11.328125 -6.007812 "/></g></g></g><g fill="#2291f6" fill-opacity="1"><g transform="translate(120.734723, 192.718595)"><g><path d="M 12.246094 -3.410156 L 25.675781 -7.152344 C 26.429688 -7.363281 26.859375 -8.125 26.648438 -8.878906 L 22.589844 -23.441406 C 22.378906 -24.199219 22.808594 -24.957031 23.5625 -25.167969 L 30.359375 -27.058594 C 31.0625 -27.253906 31.558594 -27.976562 31.363281 -28.675781 L 24.929688 -51.761719 C 24.675781 -52.679688 23.953125 -53.175781 23.089844 -52.9375 L 9.660156 -49.195312 C 8.90625 -48.984375 8.476562 -48.226562 8.671875 -47.523438 L 11.679688 -36.734375 C 11.917969 -35.871094 11.421875 -35.152344 10.667969 -34.941406 C 9.910156 -34.730469 9.113281 -35.089844 8.875 -35.953125 L 5.867188 -46.742188 C 5.671875 -47.445312 4.914062 -47.871094 4.160156 -47.660156 L -9.273438 -43.917969 C -10.136719 -43.679688 -10.496094 -42.878906 -10.238281 -41.964844 L -3.808594 -18.878906 C -3.609375 -18.175781 -2.8125 -17.816406 -2.113281 -18.011719 L 4.683594 -19.90625 C 5.4375 -20.117188 6.199219 -19.6875 6.410156 -18.933594 L 10.464844 -4.371094 C 10.675781 -3.613281 11.488281 -3.203125 12.246094 -3.410156 Z M 12.246094 -3.410156 "/></g></g></g><g fill="#2291f6" fill-opacity="1"><g transform="translate(154.028439, 182.462371)"><g><path d="M 2.796875 -0.15625 L 37.125 -2.0625 C 42.378906 -2.355469 46.023438 -6.425781 45.730469 -11.683594 L 45.386719 -17.832031 C 45.203125 -21.132812 42.667969 -23.402344 39.367188 -23.21875 L 38.867188 -23.191406 C 38.082031 -23.148438 37.433594 -23.726562 37.390625 -24.511719 C 37.347656 -25.292969 37.925781 -25.941406 38.710938 -25.984375 L 39.214844 -26.015625 C 42.511719 -26.195312 44.78125 -28.734375 44.597656 -32.035156 L 44.257812 -38.183594 C 43.964844 -43.4375 39.894531 -47.082031 34.636719 -46.789062 L 0.308594 -44.882812 C -0.472656 -44.839844 -1.054688 -44.191406 -1.011719 -43.40625 L 1.320312 -1.476562 C 1.363281 -0.691406 2.011719 -0.113281 2.796875 -0.15625 Z M 17.96875 -29.878906 C 17.183594 -29.835938 16.535156 -30.417969 16.492188 -31.199219 C 16.449219 -31.984375 17.03125 -32.632812 17.8125 -32.675781 L 26.199219 -33.140625 C 26.980469 -33.183594 27.628906 -32.605469 27.675781 -31.820312 C 27.71875 -31.039062 27.136719 -30.390625 26.355469 -30.347656 Z M 18.835938 -14.226562 C 18.054688 -14.183594 17.40625 -14.761719 17.363281 -15.546875 C 17.320312 -16.328125 17.898438 -16.976562 18.683594 -17.019531 L 27.070312 -17.488281 C 27.851562 -17.53125 28.5 -16.949219 28.542969 -16.167969 C 28.585938 -15.386719 28.007812 -14.734375 27.222656 -14.691406 Z M 18.835938 -14.226562 "/></g></g></g><g fill="#2291f6" fill-opacity="1"><g transform="translate(196.714986, 179.505732)"><g><path d="M 2.808594 0.515625 L 44.117188 8.09375 C 44.886719 8.234375 45.605469 7.738281 45.746094 6.96875 L 47.664062 -3.496094 C 47.804688 -4.265625 47.257812 -4.992188 46.484375 -5.136719 L 21.703125 -9.683594 C 20.929688 -9.824219 20.4375 -10.539062 20.578125 -11.3125 C 20.71875 -12.082031 21.4375 -12.578125 22.207031 -12.4375 L 44.84375 -8.28125 C 45.613281 -8.140625 46.332031 -8.636719 46.472656 -9.40625 L 48.191406 -18.769531 C 48.332031 -19.542969 47.78125 -20.269531 47.011719 -20.410156 L 24.429688 -24.550781 C 23.660156 -24.695312 23.164062 -25.410156 23.304688 -26.183594 C 23.445312 -26.953125 24.164062 -27.449219 24.933594 -27.304688 L 49.773438 -22.75 C 50.546875 -22.609375 51.261719 -23.101562 51.402344 -23.875 L 53.324219 -34.335938 C 53.464844 -35.109375 52.96875 -35.824219 52.199219 -35.96875 L 10.835938 -43.554688 C 10.066406 -43.695312 9.347656 -43.203125 9.207031 -42.429688 L 1.628906 -1.125 C 1.488281 -0.351562 2.039062 0.375 2.808594 0.515625 Z M 2.808594 0.515625 "/></g></g></g><g fill="#2291f6" fill-opacity="1"><g transform="translate(238.852457, 186.644641)"><g><path d="M 2.558594 1.136719 L 15.351562 6.820312 C 16.066406 7.140625 16.902344 6.773438 17.222656 6.058594 L 22.542969 -5.914062 C 22.859375 -6.632812 23.671875 -6.945312 24.390625 -6.625 L 32.066406 -3.214844 C 32.78125 -2.898438 33.09375 -2.085938 32.777344 -1.367188 L 27.433594 10.65625 C 27.113281 11.375 27.429688 12.1875 28.144531 12.503906 L 40.9375 18.1875 C 41.652344 18.507812 42.488281 18.144531 42.808594 17.425781 L 48.421875 4.789062 C 49.765625 1.769531 48.542969 -1.410156 45.523438 -2.75 L 45.0625 -2.957031 C 44.347656 -3.273438 44.035156 -4.085938 44.351562 -4.804688 C 44.667969 -5.519531 45.484375 -5.832031 46.199219 -5.515625 L 46.660156 -5.308594 C 49.679688 -3.96875 52.855469 -5.191406 54.199219 -8.210938 L 56.699219 -13.839844 C 58.835938 -18.648438 56.875 -23.75 52.0625 -25.886719 L 20.746094 -39.800781 C 20.03125 -40.117188 19.21875 -39.804688 18.898438 -39.089844 L 1.847656 -0.710938 C 1.53125 0.00390625 1.84375 0.820312 2.558594 1.136719 Z M 29.621094 -18.394531 C 28.902344 -18.714844 28.589844 -19.527344 28.910156 -20.242188 C 29.226562 -20.960938 30.039062 -21.273438 30.757812 -20.953125 L 38.433594 -17.542969 C 39.148438 -17.226562 39.460938 -16.414062 39.140625 -15.695312 C 38.824219 -14.980469 38.011719 -14.667969 37.292969 -14.984375 Z M 29.621094 -18.394531 "/></g></g></g><g fill="#2291f6" fill-opacity="1"><g transform="translate(278.841657, 205.538624)"><g/></g></g><path stroke-linecap="butt" transform="matrix(0.75, 0, 0, 0.75, 103.219935, 199.237487)" fill="none" stroke-linejoin="miter" d="M 12.446338 55.001063 L 44.420299 55.001063 C 45.19634 55.001063 45.816132 54.329188 45.816132 53.553146 L 45.816132 41.277103 C 45.816132 40.495853 45.19634 39.88127 44.420299 39.88127 L 19.227589 39.88127 C 18.435922 39.88127 17.821338 39.266687 17.821338 38.485437 L 17.821338 26.730228 C 17.821338 25.938561 18.435922 25.323977 19.227589 25.323977 L 44.420299 25.323977 C 45.19634 25.323977 45.816132 24.652102 45.816132 23.876061 L 45.816132 11.615643 C 45.816132 10.818768 45.19634 10.204185 44.420299 10.204185 L 12.446338 10.204185 C 5.842171 10.204185 1.019254 15.016685 1.019254 21.631269 L 1.019254 43.573979 C 1.019254 50.188562 5.842171 55.001063 12.446338 55.001063 Z M 12.446338 55.001063 " stroke="#231f20" stroke-width="6.719892" stroke-opacity="1" stroke-miterlimit="4"/><path stroke-linecap="butt" transform="matrix(0.75, 0, 0, 0.75, 138.909898, 199.237487)" fill="none" stroke-linejoin="miter" d="M 2.479511 55.001063 L 16.422221 55.001063 C 17.203471 55.001063 17.818054 54.386479 17.818054 53.605229 L 17.818054 41.277103 C 17.818054 40.495853 18.432638 39.88127 19.229513 39.88127 C 20.005554 39.88127 20.620138 40.553145 20.620138 41.344812 L 20.620138 53.605229 C 20.620138 54.386479 21.292013 55.001063 22.068054 55.001063 L 36.010764 55.001063 C 36.807639 55.001063 37.422222 54.386479 37.422222 53.605229 L 37.422222 11.615643 C 37.422222 10.818768 36.750347 10.204185 35.95868 10.204185 L 22.015971 10.204185 C 21.234721 10.204185 20.620138 10.818768 20.620138 11.615643 L 20.620138 23.928144 C 20.620138 24.709394 20.005554 25.323977 19.229513 25.323977 C 18.432638 25.323977 17.818054 24.709394 17.818054 23.928144 L 17.818054 11.615643 C 17.818054 10.818768 17.151387 10.204185 16.370137 10.204185 L 2.427428 10.204185 C 1.635761 10.204185 1.021178 10.818768 1.021178 11.615643 L 1.021178 53.605229 C 1.021178 54.386479 1.70347 55.001063 2.479511 55.001063 Z M 2.479511 55.001063 " stroke="#231f20" stroke-width="6.719892" stroke-opacity="1" stroke-miterlimit="4"/><path stroke-linecap="butt" transform="matrix(0.75, 0, 0, 0.75, 168.301635, 199.237487)" fill="none" stroke-linejoin="miter" d="M 2.483237 55.001063 L 16.425946 55.001063 C 17.201988 55.001063 17.816571 54.386479 17.816571 53.605229 L 17.816571 45.761479 C 17.816571 44.980229 18.436363 44.365645 19.22803 44.365645 C 20.004071 44.365645 20.618655 45.03752 20.618655 45.813562 L 20.618655 53.605229 C 20.618655 54.386479 21.29053 55.001063 22.07178 55.001063 L 36.014489 55.001063 C 36.806156 55.001063 37.420739 54.386479 37.420739 53.605229 L 37.420739 21.631269 C 37.420739 15.016685 32.608239 10.204185 25.993655 10.204185 L 12.446779 10.204185 C 5.842612 10.204185 1.019695 15.016685 1.019695 21.631269 L 1.019695 53.605229 C 1.019695 54.386479 1.701987 55.001063 2.483237 55.001063 Z M 19.22803 30.928144 C 18.436363 30.928144 17.816571 30.313561 17.816571 29.521894 L 17.816571 25.047936 C 17.816571 24.256269 18.436363 23.641686 19.22803 23.641686 C 20.004071 23.641686 20.618655 24.256269 20.618655 25.047936 L 20.618655 29.521894 C 20.618655 30.313561 20.004071 30.928144 19.22803 30.928144 Z M 19.22803 30.928144 " stroke="#231f20" stroke-width="6.719892" stroke-opacity="1" stroke-miterlimit="4"/><path stroke-linecap="butt" transform="matrix(0.75, 0, 0, 0.75, 197.693384, 199.237487)" fill="none" stroke-linejoin="miter" d="M 2.429654 55.001063 L 34.398407 55.001063 C 41.002574 55.001063 45.815074 50.188562 45.815074 43.573979 L 45.815074 37.313562 C 45.815074 30.693769 41.002574 25.886477 34.398407 25.886477 L 19.226531 25.886477 C 18.434864 25.886477 17.82028 25.266686 17.82028 24.490644 C 17.82028 23.698977 18.434864 23.084394 19.226531 23.084394 L 44.41924 23.084394 C 45.200491 23.084394 45.815074 22.464602 45.815074 21.688561 L 45.815074 11.615643 C 45.815074 10.818768 45.200491 10.204185 44.41924 10.204185 L 12.44528 10.204185 C 5.846321 10.204185 1.018196 15.016685 1.018196 21.631269 L 1.018196 27.907311 C 1.018196 34.511478 5.846321 39.31877 12.44528 39.31877 L 27.622364 39.31877 C 28.398406 39.31877 29.012989 39.938562 29.012989 40.730228 C 29.012989 41.50627 28.398406 42.120854 27.622364 42.120854 L 2.429654 42.120854 C 1.632779 42.120854 1.018196 42.740645 1.018196 43.516687 L 1.018196 53.605229 C 1.018196 54.386479 1.632779 55.001063 2.429654 55.001063 Z M 2.429654 55.001063 " stroke="#231f20" stroke-width="6.719892" stroke-opacity="1" stroke-miterlimit="4"/><path stroke-linecap="butt" transform="matrix(0.75, 0, 0, 0.75, 233.383333, 199.237487)" fill="none" stroke-linejoin="miter" d="M 2.483681 55.001063 L 44.473267 55.001063 C 45.254517 55.001063 45.8691 54.386479 45.8691 53.605229 L 45.8691 42.959395 C 45.8691 42.178145 45.197225 41.563562 44.421184 41.563562 L 19.228474 41.563562 C 18.431599 41.563562 17.817015 40.948978 17.817015 40.167728 C 17.817015 39.376062 18.431599 38.761478 19.228474 38.761478 L 42.233684 38.761478 C 43.009725 38.761478 43.624309 38.146895 43.624309 37.365645 L 43.624309 27.839603 C 43.624309 27.058353 42.957642 26.443769 42.176392 26.443769 L 19.228474 26.443769 C 18.431599 26.443769 17.817015 25.829186 17.817015 25.047936 C 17.817015 24.256269 18.431599 23.641686 19.228474 23.641686 L 44.473267 23.641686 C 45.254517 23.641686 45.8691 23.027102 45.8691 22.245852 L 45.8691 11.615643 C 45.8691 10.818768 45.254517 10.204185 44.473267 10.204185 L 2.426389 10.204185 C 1.634723 10.204185 1.020139 10.818768 1.020139 11.615643 L 1.020139 53.605229 C 1.020139 54.386479 1.702431 55.001063 2.483681 55.001063 Z M 2.483681 55.001063 " stroke="#231f20" stroke-width="6.719892" stroke-opacity="1" stroke-miterlimit="4"/><g fill="#2291f6" fill-opacity="1"><g transform="translate(102.938685, 240.487484)"><g><path d="M 9.617188 0 L 33.59375 0 C 34.183594 0 34.644531 -0.503906 34.644531 -1.09375 L 34.644531 -10.289062 C 34.644531 -10.875 34.183594 -11.339844 33.59375 -11.339844 L 14.699219 -11.339844 C 14.109375 -11.339844 13.648438 -11.800781 13.648438 -12.386719 L 13.648438 -21.207031 C 13.648438 -21.792969 14.109375 -22.257812 14.699219 -22.257812 L 33.59375 -22.257812 C 34.183594 -22.257812 34.644531 -22.761719 34.644531 -23.347656 L 34.644531 -32.542969 C 34.644531 -33.132812 34.183594 -33.59375 33.59375 -33.59375 L 9.617188 -33.59375 C 4.660156 -33.59375 1.050781 -29.984375 1.050781 -25.027344 L 1.050781 -8.566406 C 1.050781 -3.613281 4.660156 0 9.617188 0 Z M 9.617188 0 "/></g></g></g><g fill="#2291f6" fill-opacity="1"><g transform="translate(138.628648, 240.487484)"><g><path d="M 2.140625 0 L 12.597656 0 C 13.1875 0 13.648438 -0.460938 13.648438 -1.050781 L 13.648438 -10.289062 C 13.648438 -10.875 14.109375 -11.339844 14.699219 -11.339844 C 15.285156 -11.339844 15.746094 -10.835938 15.746094 -10.246094 L 15.746094 -1.050781 C 15.746094 -0.460938 16.25 0 16.839844 0 L 27.296875 0 C 27.882812 0 28.34375 -0.460938 28.34375 -1.050781 L 28.34375 -32.542969 C 28.34375 -33.132812 27.839844 -33.59375 27.253906 -33.59375 L 16.796875 -33.59375 C 16.210938 -33.59375 15.746094 -33.132812 15.746094 -32.542969 L 15.746094 -23.304688 C 15.746094 -22.71875 15.285156 -22.257812 14.699219 -22.257812 C 14.109375 -22.257812 13.648438 -22.71875 13.648438 -23.304688 L 13.648438 -32.542969 C 13.648438 -33.132812 13.144531 -33.59375 12.554688 -33.59375 L 2.101562 -33.59375 C 1.511719 -33.59375 1.050781 -33.132812 1.050781 -32.542969 L 1.050781 -1.050781 C 1.050781 -0.460938 1.554688 0 2.140625 0 Z M 2.140625 0 "/></g></g></g><g fill="#2291f6" fill-opacity="1"><g transform="translate(168.020385, 240.487484)"><g><path d="M 2.140625 0 L 12.597656 0 C 13.1875 0 13.648438 -0.460938 13.648438 -1.050781 L 13.648438 -6.929688 C 13.648438 -7.515625 14.109375 -7.980469 14.699219 -7.980469 C 15.285156 -7.980469 15.746094 -7.476562 15.746094 -6.886719 L 15.746094 -1.050781 C 15.746094 -0.460938 16.25 0 16.839844 0 L 27.296875 0 C 27.882812 0 28.34375 -0.460938 28.34375 -1.050781 L 28.34375 -25.027344 C 28.34375 -29.984375 24.734375 -33.59375 19.777344 -33.59375 L 9.617188 -33.59375 C 4.660156 -33.59375 1.050781 -29.984375 1.050781 -25.027344 L 1.050781 -1.050781 C 1.050781 -0.460938 1.554688 0 2.140625 0 Z M 14.699219 -18.058594 C 14.109375 -18.058594 13.648438 -18.519531 13.648438 -19.105469 L 13.648438 -22.464844 C 13.648438 -23.054688 14.109375 -23.515625 14.699219 -23.515625 C 15.285156 -23.515625 15.746094 -23.054688 15.746094 -22.464844 L 15.746094 -19.105469 C 15.746094 -18.519531 15.285156 -18.058594 14.699219 -18.058594 Z M 14.699219 -18.058594 "/></g></g></g><g fill="#2291f6" fill-opacity="1"><g transform="translate(197.412134, 240.487484)"><g><path d="M 2.101562 0 L 26.078125 0 C 31.03125 0 34.644531 -3.613281 34.644531 -8.566406 L 34.644531 -13.269531 C 34.644531 -18.226562 31.03125 -21.835938 26.078125 -21.835938 L 14.699219 -21.835938 C 14.109375 -21.835938 13.648438 -22.296875 13.648438 -22.886719 C 13.648438 -23.472656 14.109375 -23.9375 14.699219 -23.9375 L 33.59375 -23.9375 C 34.183594 -23.9375 34.644531 -24.398438 34.644531 -24.984375 L 34.644531 -32.542969 C 34.644531 -33.132812 34.183594 -33.59375 33.59375 -33.59375 L 9.617188 -33.59375 C 4.660156 -33.59375 1.050781 -29.984375 1.050781 -25.027344 L 1.050781 -20.324219 C 1.050781 -15.371094 4.660156 -11.757812 9.617188 -11.757812 L 20.996094 -11.757812 C 21.585938 -11.757812 22.046875 -11.296875 22.046875 -10.707031 C 22.046875 -10.121094 21.585938 -9.660156 20.996094 -9.660156 L 2.101562 -9.660156 C 1.511719 -9.660156 1.050781 -9.195312 1.050781 -8.609375 L 1.050781 -1.050781 C 1.050781 -0.460938 1.511719 0 2.101562 0 Z M 2.101562 0 "/></g></g></g><g fill="#2291f6" fill-opacity="1"><g transform="translate(233.102083, 240.487484)"><g><path d="M 2.140625 0 L 33.636719 0 C 34.222656 0 34.6875 -0.460938 34.6875 -1.050781 L 34.6875 -9.027344 C 34.6875 -9.617188 34.183594 -10.078125 33.59375 -10.078125 L 14.699219 -10.078125 C 14.109375 -10.078125 13.648438 -10.539062 13.648438 -11.128906 C 13.648438 -11.714844 14.109375 -12.179688 14.699219 -12.179688 L 31.957031 -12.179688 C 32.542969 -12.179688 33.007812 -12.640625 33.007812 -13.226562 L 33.007812 -20.367188 C 33.007812 -20.953125 32.503906 -21.417969 31.914062 -21.417969 L 14.699219 -21.417969 C 14.109375 -21.417969 13.648438 -21.878906 13.648438 -22.464844 C 13.648438 -23.054688 14.109375 -23.515625 14.699219 -23.515625 L 33.636719 -23.515625 C 34.222656 -23.515625 34.6875 -23.976562 34.6875 -24.566406 L 34.6875 -32.542969 C 34.6875 -33.132812 34.222656 -33.59375 33.636719 -33.59375 L 2.101562 -33.59375 C 1.511719 -33.59375 1.050781 -33.132812 1.050781 -32.542969 L 1.050781 -1.050781 C 1.050781 -0.460938 1.554688 0 2.140625 0 Z M 2.140625 0 "/></g></g></g><g fill="#2291f6" fill-opacity="1"><g transform="translate(268.83403, 240.487484)"><g/></g></g></svg>