<svg xmlns="http://www.w3.org/2000/svg" xmlns:xlink="http://www.w3.org/1999/xlink" width="500" zoomAndPan="magnify" viewBox="0 0 375 374.999991" height="500" preserveAspectRatio="xMidYMid meet" version="1.0"><defs><g/></defs><path stroke-linecap="butt" transform="matrix(0.75, 0, 0, 0.75, 13.448025, 151.799872)" fill="none" stroke-linejoin="miter" d="M 12.38701 55.001215 L 44.355762 55.001215 C 45.137012 55.001215 45.751595 54.32934 45.751595 53.553299 L 45.751595 41.277256 C 45.751595 40.496006 45.137012 39.881423 44.355762 39.881423 L 19.163052 39.881423 C 18.371385 39.881423 17.756802 39.266839 17.756802 38.485589 L 17.756802 26.73038 C 17.756802 25.938713 18.371385 25.32413 19.163052 25.32413 L 44.355762 25.32413 C 45.137012 25.32413 45.751595 24.652255 45.751595 23.876213 L 45.751595 11.615796 C 45.751595 10.818921 45.137012 10.204337 44.355762 10.204337 L 12.38701 10.204337 C 5.782843 10.204337 0.954717 15.016838 0.954717 21.631422 L 0.954717 43.574131 C 0.954717 50.188715 5.782843 55.001215 12.38701 55.001215 Z M 12.38701 55.001215 " stroke="#ffffff" stroke-width="6.719892" stroke-opacity="1" stroke-miterlimit="4"/><path stroke-linecap="butt" transform="matrix(0.75, 0, 0, 0.75, 49.13799, 151.799872)" fill="none" stroke-linejoin="miter" d="M 12.274347 55.001215 L 26.217057 55.001215 C 26.998307 55.001215 27.61289 54.386632 27.61289 53.605382 L 27.61289 38.485589 C 27.61289 37.693923 28.227473 37.079339 29.008723 37.079339 L 36.071224 37.079339 C 36.800391 37.079339 37.467057 36.516839 37.467057 35.792881 L 37.467057 11.829338 C 37.467057 10.876212 36.909766 10.204337 36.003516 10.204337 L 22.076431 10.204337 C 21.284765 10.204337 20.670181 10.818921 20.670181 11.558504 L 20.670181 22.751213 C 20.670181 23.641838 19.998306 24.204338 19.217056 24.204338 C 18.425389 24.204338 17.758723 23.641838 17.758723 22.751213 L 17.758723 11.558504 C 17.758723 10.818921 17.138931 10.204337 16.362889 10.204337 L 2.42018 10.204337 C 1.519138 10.204337 0.956638 10.876212 0.956638 11.829338 L 0.956638 35.792881 C 0.956638 36.516839 1.63893 37.079339 2.362888 37.079339 L 9.420181 37.079339 C 10.196222 37.079339 10.810806 37.693923 10.810806 38.485589 L 10.810806 53.605382 C 10.810806 54.386632 11.482681 55.001215 12.274347 55.001215 Z M 12.274347 55.001215 " stroke="#ffffff" stroke-width="6.719892" stroke-opacity="1" stroke-miterlimit="4"/><path stroke-linecap="butt" transform="matrix(0.75, 0, 0, 0.75, 78.613703, 151.799872)" fill="none" stroke-linejoin="miter" d="M 2.364021 55.001215 L 36.744231 55.001215 C 42.004648 55.001215 45.858815 51.131423 45.858815 45.871006 L 45.858815 39.719964 C 45.858815 36.407464 43.452565 34.001214 40.160898 34.001214 L 39.65569 34.001214 C 38.864023 34.001214 38.24944 33.386631 38.24944 32.610589 C 38.24944 31.818922 38.864023 31.19913 39.65569 31.19913 L 40.160898 31.19913 C 43.452565 31.19913 45.858815 28.798089 45.858815 25.485588 L 45.858815 19.334546 C 45.858815 14.074129 42.004648 10.204337 36.744231 10.204337 L 2.364021 10.204337 C 1.572354 10.204337 0.957771 10.818921 0.957771 11.615796 L 0.957771 53.605382 C 0.957771 54.386632 1.572354 55.001215 2.364021 55.001215 Z M 19.166105 26.173088 C 18.36923 26.173088 17.754647 25.558505 17.754647 24.76163 C 17.754647 23.985588 18.36923 23.371005 19.166105 23.371005 L 27.556731 23.371005 C 28.337981 23.371005 28.952564 23.985588 28.952564 24.76163 C 28.952564 25.558505 28.337981 26.173088 27.556731 26.173088 Z M 19.166105 41.834548 C 18.36923 41.834548 17.754647 41.219964 17.754647 40.443923 C 17.754647 39.662673 18.36923 39.048089 19.166105 39.048089 L 27.556731 39.048089 C 28.337981 39.048089 28.952564 39.662673 28.952564 40.443923 C 28.952564 41.219964 28.337981 41.834548 27.556731 41.834548 Z M 19.166105 41.834548 " stroke="#ffffff" stroke-width="6.719892" stroke-opacity="1" stroke-miterlimit="4"/><path stroke-linecap="butt" transform="matrix(0.75, 0, 0, 0.75, 114.387645, 151.799872)" fill="none" stroke-linejoin="miter" d="M 2.42064 55.001215 L 44.410226 55.001215 C 45.191476 55.001215 45.80606 54.386632 45.80606 53.605382 L 45.80606 42.959548 C 45.80606 42.178298 45.134185 41.563714 44.358143 41.563714 L 19.165433 41.563714 C 18.373766 41.563714 17.753975 40.949131 17.753975 40.167881 C 17.753975 39.376214 18.373766 38.761631 19.165433 38.761631 L 42.170643 38.761631 C 42.946685 38.761631 43.566476 38.147048 43.566476 37.365798 L 43.566476 27.839755 C 43.566476 27.058505 42.894601 26.443922 42.113351 26.443922 L 19.165433 26.443922 C 18.373766 26.443922 17.753975 25.829338 17.753975 25.048088 C 17.753975 24.256422 18.373766 23.641838 19.165433 23.641838 L 44.410226 23.641838 C 45.191476 23.641838 45.80606 23.027255 45.80606 22.246005 L 45.80606 11.615796 C 45.80606 10.818921 45.191476 10.204337 44.410226 10.204337 L 2.363349 10.204337 C 1.571682 10.204337 0.957098 10.818921 0.957098 11.615796 L 0.957098 53.605382 C 0.957098 54.386632 1.63939 55.001215 2.42064 55.001215 Z M 2.42064 55.001215 " stroke="#ffffff" stroke-width="6.719892" stroke-opacity="1" stroke-miterlimit="4"/><path stroke-linecap="butt" transform="matrix(0.75, 0, 0, 0.75, 150.119599, 151.799872)" fill="none" stroke-linejoin="miter" d="M 2.366577 55.001215 L 16.36137 55.001215 C 17.14262 55.001215 17.757203 54.32934 17.757203 53.553299 L 17.757203 40.443923 C 17.757203 39.662673 18.371786 39.048089 19.163453 39.048089 L 27.559287 39.048089 C 28.335329 39.048089 28.949912 39.662673 28.949912 40.443923 L 28.949912 53.605382 C 28.949912 54.386632 29.564495 55.001215 30.36137 55.001215 L 44.356163 55.001215 C 45.137413 55.001215 45.751996 54.32934 45.751996 53.553299 L 45.751996 39.719964 C 45.751996 36.407464 43.345746 34.001214 40.038454 34.001214 L 39.543663 34.001214 C 38.751996 34.001214 38.137413 33.386631 38.137413 32.610589 C 38.137413 31.818922 38.751996 31.19913 39.543663 31.19913 L 40.038454 31.19913 C 43.345746 31.19913 45.751996 28.798089 45.751996 25.485588 L 45.751996 19.334546 C 45.751996 14.074129 41.89783 10.204337 36.632204 10.204337 L 2.366577 10.204337 C 1.569702 10.204337 0.955119 10.818921 0.955119 11.615796 L 0.955119 53.605382 C 0.955119 54.386632 1.569702 55.001215 2.366577 55.001215 Z M 19.163453 26.173088 C 18.371786 26.173088 17.757203 25.558505 17.757203 24.76163 C 17.757203 23.985588 18.371786 23.371005 19.163453 23.371005 L 27.559287 23.371005 C 28.335329 23.371005 28.949912 23.985588 28.949912 24.76163 C 28.949912 25.558505 28.335329 26.173088 27.559287 26.173088 Z M 19.163453 26.173088 " stroke="#ffffff" stroke-width="6.719892" stroke-opacity="1" stroke-miterlimit="4"/><path stroke-linecap="butt" transform="matrix(0.75, 0, 0, 0.75, 185.809562, 151.799872)" fill="none" stroke-linejoin="miter" d="M 12.384127 55.001215 L 44.358087 55.001215 C 45.134129 55.001215 45.75392 54.32934 45.75392 53.553299 L 45.75392 41.277256 C 45.75392 40.496006 45.134129 39.881423 44.358087 39.881423 L 19.165377 39.881423 C 18.37371 39.881423 17.753919 39.266839 17.753919 38.485589 L 17.753919 26.73038 C 17.753919 25.938713 18.37371 25.32413 19.165377 25.32413 L 44.358087 25.32413 C 45.134129 25.32413 45.75392 24.652255 45.75392 23.876213 L 45.75392 11.615796 C 45.75392 10.818921 45.134129 10.204337 44.358087 10.204337 L 12.384127 10.204337 C 5.77996 10.204337 0.957043 15.016838 0.957043 21.631422 L 0.957043 43.574131 C 0.957043 50.188715 5.77996 55.001215 12.384127 55.001215 Z M 12.384127 55.001215 " stroke="#ffffff" stroke-width="6.719892" stroke-opacity="1" stroke-miterlimit="4"/><path stroke-linecap="butt" transform="matrix(0.75, 0, 0, 0.75, 221.499511, 151.799872)" fill="none" stroke-linejoin="miter" d="M 2.417319 55.001215 L 16.360028 55.001215 C 17.141278 55.001215 17.755862 54.386632 17.755862 53.605382 L 17.755862 41.277256 C 17.755862 40.496006 18.370445 39.881423 19.162112 39.881423 C 19.943362 39.881423 20.557945 40.553298 20.557945 41.344964 L 20.557945 53.605382 C 20.557945 54.386632 21.22982 55.001215 22.005862 55.001215 L 35.948571 55.001215 C 36.745446 55.001215 37.36003 54.386632 37.36003 53.605382 L 37.36003 11.615796 C 37.36003 10.818921 36.688155 10.204337 35.896488 10.204337 L 21.953779 10.204337 C 21.172529 10.204337 20.557945 10.818921 20.557945 11.615796 L 20.557945 23.928297 C 20.557945 24.709547 19.943362 25.32413 19.162112 25.32413 C 18.370445 25.32413 17.755862 24.709547 17.755862 23.928297 L 17.755862 11.615796 C 17.755862 10.818921 17.089195 10.204337 16.307945 10.204337 L 2.365236 10.204337 C 1.573569 10.204337 0.958986 10.818921 0.958986 11.615796 L 0.958986 53.605382 C 0.958986 54.386632 1.641277 55.001215 2.417319 55.001215 Z M 2.417319 55.001215 " stroke="#ffffff" stroke-width="6.719892" stroke-opacity="1" stroke-miterlimit="4"/><path stroke-linecap="butt" transform="matrix(0.75, 0, 0, 0.75, 250.891248, 151.799872)" fill="none" stroke-linejoin="miter" d="M 2.421044 55.001215 L 16.363754 55.001215 C 17.139795 55.001215 17.754379 54.386632 17.754379 53.605382 L 17.754379 45.761631 C 17.754379 44.980381 18.374171 44.365798 19.165837 44.365798 C 19.941879 44.365798 20.556462 45.032465 20.556462 45.813715 L 20.556462 53.605382 C 20.556462 54.386632 21.228337 55.001215 22.009587 55.001215 L 35.952297 55.001215 C 36.743963 55.001215 37.358547 54.386632 37.358547 53.605382 L 37.358547 21.631422 C 37.358547 15.016838 32.546046 10.204337 25.931463 10.204337 L 12.384587 10.204337 C 5.78042 10.204337 0.957503 15.016838 0.957503 21.631422 L 0.957503 53.605382 C 0.957503 54.386632 1.639794 55.001215 2.421044 55.001215 Z M 19.165837 30.928297 C 18.374171 30.928297 17.754379 30.313714 17.754379 29.522047 L 17.754379 25.048088 C 17.754379 24.256422 18.374171 23.641838 19.165837 23.641838 C 19.941879 23.641838 20.556462 24.256422 20.556462 25.048088 L 20.556462 29.522047 C 20.556462 30.313714 19.941879 30.928297 19.165837 30.928297 Z M 19.165837 30.928297 " stroke="#ffffff" stroke-width="6.719892" stroke-opacity="1" stroke-miterlimit="4"/><path stroke-linecap="butt" transform="matrix(0.75, 0, 0, 0.75, 280.283014, 151.799872)" fill="none" stroke-linejoin="miter" d="M 2.362231 55.001215 L 34.336192 55.001215 C 40.940359 55.001215 45.752859 50.188715 45.752859 43.574131 L 45.752859 37.313714 C 45.752859 30.693922 40.940359 25.88663 34.336192 25.88663 L 19.164316 25.88663 C 18.372649 25.88663 17.758066 25.266838 17.758066 24.490797 C 17.758066 23.69913 18.372649 23.079338 19.164316 23.079338 L 44.357026 23.079338 C 45.138276 23.079338 45.752859 22.464755 45.752859 21.688713 L 45.752859 11.615796 C 45.752859 10.818921 45.138276 10.204337 44.357026 10.204337 L 12.383065 10.204337 C 5.784107 10.204337 0.955981 15.016838 0.955981 21.631422 L 0.955981 27.907464 C 0.955981 34.511631 5.784107 39.318923 12.383065 39.318923 L 27.554941 39.318923 C 28.336191 39.318923 28.950775 39.938714 28.950775 40.730381 C 28.950775 41.506423 28.336191 42.121006 27.554941 42.121006 L 2.362231 42.121006 C 1.570565 42.121006 0.955981 42.740798 0.955981 43.51684 L 0.955981 53.605382 C 0.955981 54.386632 1.570565 55.001215 2.362231 55.001215 Z M 2.362231 55.001215 " stroke="#ffffff" stroke-width="6.719892" stroke-opacity="1" stroke-miterlimit="4"/><path stroke-linecap="butt" transform="matrix(0.75, 0, 0, 0.75, 315.972963, 151.799872)" fill="none" stroke-linejoin="miter" d="M 2.421466 55.001215 L 44.411052 55.001215 C 45.192302 55.001215 45.806886 54.386632 45.806886 53.605382 L 45.806886 42.959548 C 45.806886 42.178298 45.135011 41.563714 44.358969 41.563714 L 19.166259 41.563714 C 18.369384 41.563714 17.754801 40.949131 17.754801 40.167881 C 17.754801 39.376214 18.369384 38.761631 19.166259 38.761631 L 42.171469 38.761631 C 42.947511 38.761631 43.562094 38.147048 43.562094 37.365798 L 43.562094 27.839755 C 43.562094 27.058505 42.895427 26.443922 42.114177 26.443922 L 19.166259 26.443922 C 18.369384 26.443922 17.754801 25.829338 17.754801 25.048088 C 17.754801 24.256422 18.369384 23.641838 19.166259 23.641838 L 44.411052 23.641838 C 45.192302 23.641838 45.806886 23.027255 45.806886 22.246005 L 45.806886 11.615796 C 45.806886 10.818921 45.192302 10.204337 44.411052 10.204337 L 2.364175 10.204337 C 1.572508 10.204337 0.957924 10.818921 0.957924 11.615796 L 0.957924 53.605382 C 0.957924 54.386632 1.640216 55.001215 2.421466 55.001215 Z M 2.421466 55.001215 " stroke="#ffffff" stroke-width="6.719892" stroke-opacity="1" stroke-miterlimit="4"/><g fill="#000000" fill-opacity="1"><g transform="translate(13.1199, 193.04987)"><g><path d="M 9.617188 0 L 33.59375 0 C 34.183594 0 34.644531 -0.503906 34.644531 -1.09375 L 34.644531 -10.289062 C 34.644531 -10.875 34.183594 -11.339844 33.59375 -11.339844 L 14.699219 -11.339844 C 14.109375 -11.339844 13.648438 -11.800781 13.648438 -12.386719 L 13.648438 -21.207031 C 13.648438 -21.792969 14.109375 -22.257812 14.699219 -22.257812 L 33.59375 -22.257812 C 34.183594 -22.257812 34.644531 -22.761719 34.644531 -23.347656 L 34.644531 -32.542969 C 34.644531 -33.132812 34.183594 -33.59375 33.59375 -33.59375 L 9.617188 -33.59375 C 4.660156 -33.59375 1.050781 -29.984375 1.050781 -25.027344 L 1.050781 -8.566406 C 1.050781 -3.613281 4.660156 0 9.617188 0 Z M 9.617188 0 "/></g></g></g><g fill="#000000" fill-opacity="1"><g transform="translate(48.809865, 193.04987)"><g><path d="M 9.53125 0 L 19.988281 0 C 20.578125 0 21.039062 -0.460938 21.039062 -1.050781 L 21.039062 -12.386719 C 21.039062 -12.976562 21.5 -13.4375 22.089844 -13.4375 L 27.378906 -13.4375 C 27.925781 -13.4375 28.429688 -13.859375 28.429688 -14.402344 L 28.429688 -32.375 C 28.429688 -33.089844 28.007812 -33.59375 27.335938 -33.59375 L 16.882812 -33.59375 C 16.292969 -33.59375 15.832031 -33.132812 15.832031 -32.585938 L 15.832031 -24.1875 C 15.832031 -23.515625 15.328125 -23.097656 14.738281 -23.097656 C 14.152344 -23.097656 13.648438 -23.515625 13.648438 -24.1875 L 13.648438 -32.585938 C 13.648438 -33.132812 13.1875 -33.59375 12.597656 -33.59375 L 2.140625 -33.59375 C 1.46875 -33.59375 1.050781 -33.089844 1.050781 -32.375 L 1.050781 -14.402344 C 1.050781 -13.859375 1.554688 -13.4375 2.101562 -13.4375 L 7.390625 -13.4375 C 7.980469 -13.4375 8.441406 -12.976562 8.441406 -12.386719 L 8.441406 -1.050781 C 8.441406 -0.460938 8.945312 0 9.53125 0 Z M 9.53125 0 "/></g></g></g><g fill="#000000" fill-opacity="1"><g transform="translate(78.285578, 193.04987)"><g><path d="M 2.101562 0 L 27.882812 0 C 31.832031 0 34.726562 -2.898438 34.726562 -6.84375 L 34.726562 -11.464844 C 34.726562 -13.941406 32.921875 -15.746094 30.445312 -15.746094 L 30.066406 -15.746094 C 29.480469 -15.746094 29.015625 -16.210938 29.015625 -16.796875 C 29.015625 -17.386719 29.480469 -17.847656 30.066406 -17.847656 L 30.445312 -17.847656 C 32.921875 -17.847656 34.726562 -19.652344 34.726562 -22.128906 L 34.726562 -26.75 C 34.726562 -30.695312 31.832031 -33.59375 27.882812 -33.59375 L 2.101562 -33.59375 C 1.511719 -33.59375 1.050781 -33.132812 1.050781 -32.542969 L 1.050781 -1.050781 C 1.050781 -0.460938 1.511719 0 2.101562 0 Z M 14.699219 -21.625 C 14.109375 -21.625 13.648438 -22.089844 13.648438 -22.675781 C 13.648438 -23.265625 14.109375 -23.726562 14.699219 -23.726562 L 20.996094 -23.726562 C 21.585938 -23.726562 22.046875 -23.265625 22.046875 -22.675781 C 22.046875 -22.089844 21.585938 -21.625 20.996094 -21.625 Z M 14.699219 -9.867188 C 14.109375 -9.867188 13.648438 -10.332031 13.648438 -10.917969 C 13.648438 -11.507812 14.109375 -11.96875 14.699219 -11.96875 L 20.996094 -11.96875 C 21.585938 -11.96875 22.046875 -11.507812 22.046875 -10.917969 C 22.046875 -10.332031 21.585938 -9.867188 20.996094 -9.867188 Z M 14.699219 -9.867188 "/></g></g></g><g fill="#000000" fill-opacity="1"><g transform="translate(114.05952, 193.04987)"><g><path d="M 2.140625 0 L 33.636719 0 C 34.222656 0 34.6875 -0.460938 34.6875 -1.050781 L 34.6875 -9.027344 C 34.6875 -9.617188 34.183594 -10.078125 33.59375 -10.078125 L 14.699219 -10.078125 C 14.109375 -10.078125 13.648438 -10.539062 13.648438 -11.128906 C 13.648438 -11.714844 14.109375 -12.179688 14.699219 -12.179688 L 31.957031 -12.179688 C 32.542969 -12.179688 33.007812 -12.640625 33.007812 -13.226562 L 33.007812 -20.367188 C 33.007812 -20.953125 32.503906 -21.417969 31.914062 -21.417969 L 14.699219 -21.417969 C 14.109375 -21.417969 13.648438 -21.878906 13.648438 -22.464844 C 13.648438 -23.054688 14.109375 -23.515625 14.699219 -23.515625 L 33.636719 -23.515625 C 34.222656 -23.515625 34.6875 -23.976562 34.6875 -24.566406 L 34.6875 -32.542969 C 34.6875 -33.132812 34.222656 -33.59375 33.636719 -33.59375 L 2.101562 -33.59375 C 1.511719 -33.59375 1.050781 -33.132812 1.050781 -32.542969 L 1.050781 -1.050781 C 1.050781 -0.460938 1.554688 0 2.140625 0 Z M 2.140625 0 "/></g></g></g><g fill="#000000" fill-opacity="1"><g transform="translate(149.791474, 193.04987)"><g><path d="M 2.101562 0 L 12.597656 0 C 13.1875 0 13.648438 -0.503906 13.648438 -1.09375 L 13.648438 -10.917969 C 13.648438 -11.507812 14.109375 -11.96875 14.699219 -11.96875 L 20.996094 -11.96875 C 21.585938 -11.96875 22.046875 -11.507812 22.046875 -10.917969 L 22.046875 -1.050781 C 22.046875 -0.460938 22.507812 0 23.097656 0 L 33.59375 0 C 34.183594 0 34.644531 -0.503906 34.644531 -1.09375 L 34.644531 -11.464844 C 34.644531 -13.941406 32.839844 -15.746094 30.359375 -15.746094 L 29.984375 -15.746094 C 29.394531 -15.746094 28.933594 -16.210938 28.933594 -16.796875 C 28.933594 -17.386719 29.394531 -17.847656 29.984375 -17.847656 L 30.359375 -17.847656 C 32.839844 -17.847656 34.644531 -19.652344 34.644531 -22.128906 L 34.644531 -26.75 C 34.644531 -30.695312 31.746094 -33.59375 27.800781 -33.59375 L 2.101562 -33.59375 C 1.511719 -33.59375 1.050781 -33.132812 1.050781 -32.542969 L 1.050781 -1.050781 C 1.050781 -0.460938 1.511719 0 2.101562 0 Z M 14.699219 -21.625 C 14.109375 -21.625 13.648438 -22.089844 13.648438 -22.675781 C 13.648438 -23.265625 14.109375 -23.726562 14.699219 -23.726562 L 20.996094 -23.726562 C 21.585938 -23.726562 22.046875 -23.265625 22.046875 -22.675781 C 22.046875 -22.089844 21.585938 -21.625 20.996094 -21.625 Z M 14.699219 -21.625 "/></g></g></g><g fill="#000000" fill-opacity="1"><g transform="translate(185.481437, 193.04987)"><g><path d="M 9.617188 0 L 33.59375 0 C 34.183594 0 34.644531 -0.503906 34.644531 -1.09375 L 34.644531 -10.289062 C 34.644531 -10.875 34.183594 -11.339844 33.59375 -11.339844 L 14.699219 -11.339844 C 14.109375 -11.339844 13.648438 -11.800781 13.648438 -12.386719 L 13.648438 -21.207031 C 13.648438 -21.792969 14.109375 -22.257812 14.699219 -22.257812 L 33.59375 -22.257812 C 34.183594 -22.257812 34.644531 -22.761719 34.644531 -23.347656 L 34.644531 -32.542969 C 34.644531 -33.132812 34.183594 -33.59375 33.59375 -33.59375 L 9.617188 -33.59375 C 4.660156 -33.59375 1.050781 -29.984375 1.050781 -25.027344 L 1.050781 -8.566406 C 1.050781 -3.613281 4.660156 0 9.617188 0 Z M 9.617188 0 "/></g></g></g><g fill="#000000" fill-opacity="1"><g transform="translate(221.171386, 193.04987)"><g><path d="M 2.140625 0 L 12.597656 0 C 13.1875 0 13.648438 -0.460938 13.648438 -1.050781 L 13.648438 -10.289062 C 13.648438 -10.875 14.109375 -11.339844 14.699219 -11.339844 C 15.285156 -11.339844 15.746094 -10.835938 15.746094 -10.246094 L 15.746094 -1.050781 C 15.746094 -0.460938 16.25 0 16.839844 0 L 27.296875 0 C 27.882812 0 28.34375 -0.460938 28.34375 -1.050781 L 28.34375 -32.542969 C 28.34375 -33.132812 27.839844 -33.59375 27.253906 -33.59375 L 16.796875 -33.59375 C 16.210938 -33.59375 15.746094 -33.132812 15.746094 -32.542969 L 15.746094 -23.304688 C 15.746094 -22.71875 15.285156 -22.257812 14.699219 -22.257812 C 14.109375 -22.257812 13.648438 -22.71875 13.648438 -23.304688 L 13.648438 -32.542969 C 13.648438 -33.132812 13.144531 -33.59375 12.554688 -33.59375 L 2.101562 -33.59375 C 1.511719 -33.59375 1.050781 -33.132812 1.050781 -32.542969 L 1.050781 -1.050781 C 1.050781 -0.460938 1.554688 0 2.140625 0 Z M 2.140625 0 "/></g></g></g><g fill="#000000" fill-opacity="1"><g transform="translate(250.563123, 193.04987)"><g><path d="M 2.140625 0 L 12.597656 0 C 13.1875 0 13.648438 -0.460938 13.648438 -1.050781 L 13.648438 -6.929688 C 13.648438 -7.515625 14.109375 -7.980469 14.699219 -7.980469 C 15.285156 -7.980469 15.746094 -7.476562 15.746094 -6.886719 L 15.746094 -1.050781 C 15.746094 -0.460938 16.25 0 16.839844 0 L 27.296875 0 C 27.882812 0 28.34375 -0.460938 28.34375 -1.050781 L 28.34375 -25.027344 C 28.34375 -29.984375 24.734375 -33.59375 19.777344 -33.59375 L 9.617188 -33.59375 C 4.660156 -33.59375 1.050781 -29.984375 1.050781 -25.027344 L 1.050781 -1.050781 C 1.050781 -0.460938 1.554688 0 2.140625 0 Z M 14.699219 -18.058594 C 14.109375 -18.058594 13.648438 -18.519531 13.648438 -19.105469 L 13.648438 -22.464844 C 13.648438 -23.054688 14.109375 -23.515625 14.699219 -23.515625 C 15.285156 -23.515625 15.746094 -23.054688 15.746094 -22.464844 L 15.746094 -19.105469 C 15.746094 -18.519531 15.285156 -18.058594 14.699219 -18.058594 Z M 14.699219 -18.058594 "/></g></g></g><g fill="#000000" fill-opacity="1"><g transform="translate(279.954889, 193.04987)"><g><path d="M 2.101562 0 L 26.078125 0 C 31.03125 0 34.644531 -3.613281 34.644531 -8.566406 L 34.644531 -13.269531 C 34.644531 -18.226562 31.03125 -21.835938 26.078125 -21.835938 L 14.699219 -21.835938 C 14.109375 -21.835938 13.648438 -22.296875 13.648438 -22.886719 C 13.648438 -23.472656 14.109375 -23.9375 14.699219 -23.9375 L 33.59375 -23.9375 C 34.183594 -23.9375 34.644531 -24.398438 34.644531 -24.984375 L 34.644531 -32.542969 C 34.644531 -33.132812 34.183594 -33.59375 33.59375 -33.59375 L 9.617188 -33.59375 C 4.660156 -33.59375 1.050781 -29.984375 1.050781 -25.027344 L 1.050781 -20.324219 C 1.050781 -15.371094 4.660156 -11.757812 9.617188 -11.757812 L 20.996094 -11.757812 C 21.585938 -11.757812 22.046875 -11.296875 22.046875 -10.707031 C 22.046875 -10.121094 21.585938 -9.660156 20.996094 -9.660156 L 2.101562 -9.660156 C 1.511719 -9.660156 1.050781 -9.195312 1.050781 -8.609375 L 1.050781 -1.050781 C 1.050781 -0.460938 1.511719 0 2.101562 0 Z M 2.101562 0 "/></g></g></g><g fill="#000000" fill-opacity="1"><g transform="translate(315.644838, 193.04987)"><g><path d="M 2.140625 0 L 33.636719 0 C 34.222656 0 34.6875 -0.460938 34.6875 -1.050781 L 34.6875 -9.027344 C 34.6875 -9.617188 34.183594 -10.078125 33.59375 -10.078125 L 14.699219 -10.078125 C 14.109375 -10.078125 13.648438 -10.539062 13.648438 -11.128906 C 13.648438 -11.714844 14.109375 -12.179688 14.699219 -12.179688 L 31.957031 -12.179688 C 32.542969 -12.179688 33.007812 -12.640625 33.007812 -13.226562 L 33.007812 -20.367188 C 33.007812 -20.953125 32.503906 -21.417969 31.914062 -21.417969 L 14.699219 -21.417969 C 14.109375 -21.417969 13.648438 -21.878906 13.648438 -22.464844 C 13.648438 -23.054688 14.109375 -23.515625 14.699219 -23.515625 L 33.636719 -23.515625 C 34.222656 -23.515625 34.6875 -23.976562 34.6875 -24.566406 L 34.6875 -32.542969 C 34.6875 -33.132812 34.222656 -33.59375 33.636719 -33.59375 L 2.101562 -33.59375 C 1.511719 -33.59375 1.050781 -33.132812 1.050781 -32.542969 L 1.050781 -1.050781 C 1.050781 -0.460938 1.554688 0 2.140625 0 Z M 2.140625 0 "/></g></g></g><g fill="#000000" fill-opacity="1"><g transform="translate(351.376799, 193.04987)"><g/></g></g><path stroke-linecap="butt" transform="matrix(0.75, 0, 0, 0.75, 94.646549, 202.200104)" fill="none" stroke-linejoin="miter" d="M 13.632727 20.998821 L 6.773351 20.998821 L 6.773351 8.696736 L 0.372309 8.696736 L 0.372309 4.65507 L 20.033769 4.65507 L 20.033769 8.696736 L 13.632727 8.696736 Z M 13.632727 20.998821 " stroke="#ffffff" stroke-width="2.800008" stroke-opacity="1" stroke-miterlimit="4"/><path stroke-linecap="butt" transform="matrix(0.75, 0, 0, 0.75, 110.416953, 202.200104)" fill="none" stroke-linejoin="miter" d="M 21.194064 20.998821 L 1.511771 20.998821 L 1.511771 4.65507 L 20.293022 4.65507 L 20.293022 8.696736 L 8.365938 8.696736 L 8.365938 11.259237 L 18.449272 11.259237 L 18.449272 14.40507 L 8.365938 14.40507 L 8.365938 16.957154 L 21.194064 16.957154 Z M 21.194064 20.998821 " stroke="#ffffff" stroke-width="2.800008" stroke-opacity="1" stroke-miterlimit="4"/><path stroke-linecap="butt" transform="matrix(0.75, 0, 0, 0.75, 127.2296, 202.200104)" fill="none" stroke-linejoin="miter" d="M 12.048034 21.352987 C 8.006367 21.352987 5.032408 20.519654 3.126158 18.858195 C 1.443867 17.394654 0.600117 15.389445 0.600117 12.84257 C 0.600117 10.300903 1.443867 8.290486 3.126158 6.816528 C 5.032408 5.160278 8.006367 4.332153 12.048034 4.332153 C 14.417826 4.332153 16.376159 4.602986 17.923034 5.149861 C 19.475118 5.691528 20.678243 6.43632 21.537618 7.37382 C 22.396993 8.316528 22.964701 9.394653 23.245951 10.613403 L 16.032409 10.613403 C 15.313659 9.34257 13.985534 8.707153 12.048034 8.707153 C 10.391784 8.707153 9.173034 9.18632 8.391784 10.144653 C 7.766784 10.90507 7.454284 11.800903 7.454284 12.84257 C 7.454284 13.884237 7.766784 14.785279 8.391784 15.545695 C 9.173034 16.49882 10.391784 16.977987 12.048034 16.977987 C 13.985534 16.977987 15.313659 16.34257 16.032409 15.066529 L 23.245951 15.066529 C 22.964701 16.285279 22.396993 17.368612 21.537618 18.31132 C 20.678243 19.254029 19.475118 19.993612 17.923034 20.540487 C 16.376159 21.082154 14.417826 21.352987 12.048034 21.352987 Z M 12.048034 21.352987 " stroke="#ffffff" stroke-width="2.800008" stroke-opacity="1" stroke-miterlimit="4"/><path stroke-linecap="butt" transform="matrix(0.75, 0, 0, 0.75, 145.580004, 202.200104)" fill="none" stroke-linejoin="miter" d="M 23.836038 20.998821 L 16.981871 20.998821 L 16.981871 14.40507 L 8.367287 14.40507 L 8.367287 20.998821 L 1.507912 20.998821 L 1.507912 4.65507 L 8.367287 4.65507 L 8.367287 11.259237 L 16.981871 11.259237 L 16.981871 4.65507 L 23.836038 4.65507 Z M 23.836038 20.998821 " stroke="#ffffff" stroke-width="2.800008" stroke-opacity="1" stroke-miterlimit="4"/><path stroke-linecap="butt" transform="matrix(0.75, 0, 0, 0.75, 165.058074, 202.200104)" fill="none" stroke-linejoin="miter" d="M 25.761112 20.998821 L 17.604861 20.998821 L 8.370486 9.93632 L 8.370486 20.998821 L 1.51111 20.998821 L 1.51111 4.65507 L 9.667361 4.65507 L 18.906945 15.65507 L 18.906945 4.65507 L 25.761112 4.65507 Z M 25.761112 20.998821 " stroke="#ffffff" stroke-width="2.800008" stroke-opacity="1" stroke-miterlimit="4"/><path stroke-linecap="butt" transform="matrix(0.75, 0, 0, 0.75, 185.979923, 202.200104)" fill="none" stroke-linejoin="miter" d="M 12.047603 21.352987 C 8.005936 21.352987 5.031977 20.519654 3.125727 18.858195 C 1.443435 17.384237 0.599685 15.37382 0.599685 12.832153 C 0.599685 10.295695 1.443435 8.290486 3.125727 6.816528 C 5.031977 5.15507 8.005936 4.321736 12.047603 4.321736 C 16.08927 4.321736 19.063228 5.15507 20.969478 6.816528 C 22.65177 8.290486 23.49552 10.295695 23.49552 12.832153 C 23.49552 15.37382 22.65177 17.384237 20.969478 18.858195 C 19.063228 20.519654 16.08927 21.352987 12.047603 21.352987 Z M 12.047603 16.96757 C 13.703853 16.96757 14.917395 16.493612 15.693436 15.545695 C 16.313228 14.774862 16.625728 13.87382 16.625728 12.832153 C 16.625728 11.790487 16.313228 10.889445 15.693436 10.134237 C 14.917395 9.175903 13.703853 8.696736 12.047603 8.696736 C 10.391353 8.696736 9.172603 9.175903 8.391353 10.134237 C 7.766353 10.889445 7.459061 11.790487 7.459061 12.832153 C 7.459061 13.87382 7.766353 14.774862 8.391353 15.545695 C 9.172603 16.493612 10.391353 16.96757 12.047603 16.96757 Z M 12.047603 16.96757 " stroke="#ffffff" stroke-width="2.800008" stroke-opacity="1" stroke-miterlimit="4"/><path stroke-linecap="butt" transform="matrix(0.75, 0, 0, 0.75, 204.518266, 202.200104)" fill="none" stroke-linejoin="miter" d="M 20.59023 20.998821 L 1.512103 20.998821 L 1.512103 4.65507 L 8.366271 4.65507 L 8.366271 16.957154 L 20.59023 16.957154 Z M 20.59023 20.998821 " stroke="#ffffff" stroke-width="2.800008" stroke-opacity="1" stroke-miterlimit="4"/><path stroke-linecap="butt" transform="matrix(0.75, 0, 0, 0.75, 220.536436, 202.200104)" fill="none" stroke-linejoin="miter" d="M 12.045169 21.352987 C 8.00871 21.352987 5.034752 20.519654 3.128502 18.858195 C 1.441002 17.384237 0.597251 15.37382 0.597251 12.832153 C 0.597251 10.295695 1.441002 8.290486 3.128502 6.816528 C 5.034752 5.15507 8.00871 4.321736 12.045169 4.321736 C 16.086836 4.321736 19.060794 5.15507 20.967044 6.816528 C 22.654545 8.290486 23.498295 10.295695 23.498295 12.832153 C 23.498295 15.37382 22.654545 17.384237 20.967044 18.858195 C 19.060794 20.519654 16.086836 21.352987 12.045169 21.352987 Z M 12.045169 16.96757 C 13.701419 16.96757 14.920169 16.493612 15.691002 15.545695 C 16.316003 14.774862 16.628503 13.87382 16.628503 12.832153 C 16.628503 11.790487 16.316003 10.889445 15.691002 10.134237 C 14.920169 9.175903 13.701419 8.696736 12.045169 8.696736 C 10.394127 8.696736 9.175377 9.175903 8.388919 10.134237 C 7.769127 10.889445 7.456627 11.790487 7.456627 12.832153 C 7.456627 13.87382 7.769127 14.774862 8.388919 15.545695 C 9.175377 16.493612 10.394127 16.96757 12.045169 16.96757 Z M 12.045169 16.96757 " stroke="#ffffff" stroke-width="2.800008" stroke-opacity="1" stroke-miterlimit="4"/><path stroke-linecap="butt" transform="matrix(0.75, 0, 0, 0.75, 239.074765, 202.200104)" fill="none" stroke-linejoin="miter" d="M 12.046148 21.352987 C 8.009689 21.352987 5.035731 20.519654 3.12948 18.858195 C 1.44198 17.384237 0.59823 15.379029 0.59823 12.84257 C 0.59823 10.300903 1.44198 8.290486 3.12948 6.816528 C 5.035731 5.15507 8.009689 4.321736 12.046148 4.321736 C 14.348231 4.321736 16.25969 4.582153 17.79094 5.097778 C 19.316982 5.613403 20.514898 6.316528 21.38469 7.212361 C 22.254482 8.102986 22.848232 9.129028 23.16594 10.290487 L 15.827398 10.290487 C 15.061773 9.238403 13.801356 8.707153 12.046148 8.707153 C 10.389898 8.707153 9.171148 9.181112 8.389897 10.134237 C 7.770106 10.899862 7.457606 11.800903 7.457606 12.84257 C 7.457606 13.884237 7.770106 14.785279 8.389897 15.545695 C 9.171148 16.493612 10.389898 16.96757 12.046148 16.96757 C 13.384689 16.96757 14.389898 16.852987 15.061773 16.618612 C 15.733648 16.389445 16.223231 16.087362 16.535731 15.712362 L 13.858648 15.712362 L 13.858648 12.84257 L 23.16594 12.84257 L 23.16594 21.009237 L 20.316982 21.009237 L 19.738857 19.425904 C 17.921148 20.712362 15.358648 21.352987 12.046148 21.352987 Z M 12.046148 21.352987 " stroke="#ffffff" stroke-width="2.800008" stroke-opacity="1" stroke-miterlimit="4"/><path stroke-linecap="butt" transform="matrix(0.75, 0, 0, 0.75, 257.707077, 202.200104)" fill="none" stroke-linejoin="miter" d="M 15.635356 20.998821 L 8.775981 20.998821 L 8.775981 13.254028 L -0.140686 4.65507 L 7.458273 4.65507 L 12.208273 9.540487 L 16.947857 4.65507 L 24.541607 4.65507 L 15.635356 13.254028 Z M 15.635356 20.998821 " stroke="#ffffff" stroke-width="2.800008" stroke-opacity="1" stroke-miterlimit="4"/><g fill="#000000" fill-opacity="1"><g transform="translate(94.412175, 217.950103)"><g><path d="M 10.453125 0 L 5.3125 0 L 5.3125 -9.234375 L 0.515625 -9.234375 L 0.515625 -12.265625 L 15.265625 -12.265625 L 15.265625 -9.234375 L 10.453125 -9.234375 Z M 10.453125 0 "/></g></g></g><g fill="#000000" fill-opacity="1"><g transform="translate(110.182578, 217.950103)"><g><path d="M 16.140625 0 L 1.375 0 L 1.375 -12.265625 L 15.453125 -12.265625 L 15.453125 -9.234375 L 6.515625 -9.234375 L 6.515625 -7.3125 L 14.078125 -7.3125 L 14.078125 -4.953125 L 6.515625 -4.953125 L 6.515625 -3.03125 L 16.140625 -3.03125 Z M 16.140625 0 "/></g></g></g><g fill="#000000" fill-opacity="1"><g transform="translate(126.995225, 217.950103)"><g><path d="M 9.265625 0.265625 C 6.234375 0.265625 4.003906 -0.359375 2.578125 -1.609375 C 1.316406 -2.703125 0.6875 -4.207031 0.6875 -6.125 C 0.6875 -8.03125 1.316406 -9.535156 2.578125 -10.640625 C 4.003906 -11.878906 6.234375 -12.5 9.265625 -12.5 C 11.046875 -12.5 12.515625 -12.296875 13.671875 -11.890625 C 14.835938 -11.484375 15.742188 -10.925781 16.390625 -10.21875 C 17.035156 -9.507812 17.460938 -8.703125 17.671875 -7.796875 L 12.265625 -7.796875 C 11.722656 -8.742188 10.722656 -9.21875 9.265625 -9.21875 C 8.023438 -9.21875 7.113281 -8.859375 6.53125 -8.140625 C 6.0625 -7.566406 5.828125 -6.894531 5.828125 -6.125 C 5.828125 -5.34375 6.0625 -4.664062 6.53125 -4.09375 C 7.113281 -3.375 8.023438 -3.015625 9.265625 -3.015625 C 10.722656 -3.015625 11.722656 -3.492188 12.265625 -4.453125 L 17.671875 -4.453125 C 17.460938 -3.535156 17.035156 -2.722656 16.390625 -2.015625 C 15.742188 -1.304688 14.835938 -0.75 13.671875 -0.34375 C 12.515625 0.0625 11.046875 0.265625 9.265625 0.265625 Z M 9.265625 0.265625 "/></g></g></g><g fill="#000000" fill-opacity="1"><g transform="translate(145.345629, 217.950103)"><g><path d="M 18.109375 0 L 12.96875 0 L 12.96875 -4.953125 L 6.515625 -4.953125 L 6.515625 0 L 1.375 0 L 1.375 -12.265625 L 6.515625 -12.265625 L 6.515625 -7.3125 L 12.96875 -7.3125 L 12.96875 -12.265625 L 18.109375 -12.265625 Z M 18.109375 0 "/></g></g></g><g fill="#000000" fill-opacity="1"><g transform="translate(164.823699, 217.950103)"><g><path d="M 19.5625 0 L 13.4375 0 L 6.515625 -8.296875 L 6.515625 0 L 1.375 0 L 1.375 -12.265625 L 7.484375 -12.265625 L 14.421875 -4 L 14.421875 -12.265625 L 19.5625 -12.265625 Z M 19.5625 0 "/></g></g></g><g fill="#000000" fill-opacity="1"><g transform="translate(185.745549, 217.950103)"><g><path d="M 9.265625 0.265625 C 6.234375 0.265625 4.003906 -0.359375 2.578125 -1.609375 C 1.316406 -2.710938 0.6875 -4.21875 0.6875 -6.125 C 0.6875 -8.03125 1.316406 -9.535156 2.578125 -10.640625 C 4.003906 -11.890625 6.234375 -12.515625 9.265625 -12.515625 C 12.296875 -12.515625 14.53125 -11.890625 15.96875 -10.640625 C 17.226562 -9.535156 17.859375 -8.03125 17.859375 -6.125 C 17.859375 -4.21875 17.226562 -2.710938 15.96875 -1.609375 C 14.53125 -0.359375 12.296875 0.265625 9.265625 0.265625 Z M 9.265625 -3.03125 C 10.515625 -3.03125 11.425781 -3.382812 12 -4.09375 C 12.46875 -4.664062 12.703125 -5.34375 12.703125 -6.125 C 12.703125 -6.90625 12.46875 -7.582031 12 -8.15625 C 11.425781 -8.875 10.515625 -9.234375 9.265625 -9.234375 C 8.023438 -9.234375 7.113281 -8.875 6.53125 -8.15625 C 6.0625 -7.582031 5.828125 -6.90625 5.828125 -6.125 C 5.828125 -5.34375 6.0625 -4.664062 6.53125 -4.09375 C 7.113281 -3.382812 8.023438 -3.03125 9.265625 -3.03125 Z M 9.265625 -3.03125 "/></g></g></g><g fill="#000000" fill-opacity="1"><g transform="translate(204.283891, 217.950103)"><g><path d="M 15.6875 0 L 1.375 0 L 1.375 -12.265625 L 6.515625 -12.265625 L 6.515625 -3.03125 L 15.6875 -3.03125 Z M 15.6875 0 "/></g></g></g><g fill="#000000" fill-opacity="1"><g transform="translate(220.302061, 217.950103)"><g><path d="M 9.265625 0.265625 C 6.234375 0.265625 4.003906 -0.359375 2.578125 -1.609375 C 1.316406 -2.710938 0.6875 -4.21875 0.6875 -6.125 C 0.6875 -8.03125 1.316406 -9.535156 2.578125 -10.640625 C 4.003906 -11.890625 6.234375 -12.515625 9.265625 -12.515625 C 12.296875 -12.515625 14.53125 -11.890625 15.96875 -10.640625 C 17.226562 -9.535156 17.859375 -8.03125 17.859375 -6.125 C 17.859375 -4.21875 17.226562 -2.710938 15.96875 -1.609375 C 14.53125 -0.359375 12.296875 0.265625 9.265625 0.265625 Z M 9.265625 -3.03125 C 10.515625 -3.03125 11.425781 -3.382812 12 -4.09375 C 12.46875 -4.664062 12.703125 -5.34375 12.703125 -6.125 C 12.703125 -6.90625 12.46875 -7.582031 12 -8.15625 C 11.425781 -8.875 10.515625 -9.234375 9.265625 -9.234375 C 8.023438 -9.234375 7.113281 -8.875 6.53125 -8.15625 C 6.0625 -7.582031 5.828125 -6.90625 5.828125 -6.125 C 5.828125 -5.34375 6.0625 -4.664062 6.53125 -4.09375 C 7.113281 -3.382812 8.023438 -3.03125 9.265625 -3.03125 Z M 9.265625 -3.03125 "/></g></g></g><g fill="#000000" fill-opacity="1"><g transform="translate(238.84039, 217.950103)"><g><path d="M 9.265625 0.265625 C 6.234375 0.265625 4.003906 -0.359375 2.578125 -1.609375 C 1.316406 -2.710938 0.6875 -4.21875 0.6875 -6.125 C 0.6875 -8.03125 1.316406 -9.535156 2.578125 -10.640625 C 4.003906 -11.890625 6.234375 -12.515625 9.265625 -12.515625 C 10.992188 -12.515625 12.429688 -12.316406 13.578125 -11.921875 C 14.722656 -11.535156 15.617188 -11.007812 16.265625 -10.34375 C 16.921875 -9.675781 17.367188 -8.90625 17.609375 -8.03125 L 12.109375 -8.03125 C 11.535156 -8.820312 10.585938 -9.21875 9.265625 -9.21875 C 8.023438 -9.21875 7.113281 -8.863281 6.53125 -8.15625 C 6.0625 -7.570312 5.828125 -6.894531 5.828125 -6.125 C 5.828125 -5.34375 6.0625 -4.664062 6.53125 -4.09375 C 7.113281 -3.382812 8.023438 -3.03125 9.265625 -3.03125 C 10.273438 -3.03125 11.03125 -3.113281 11.53125 -3.28125 C 12.03125 -3.457031 12.398438 -3.6875 12.640625 -3.96875 L 10.625 -3.96875 L 10.625 -6.125 L 17.609375 -6.125 L 17.609375 0.015625 L 15.46875 0.015625 L 15.046875 -1.171875 C 13.679688 -0.210938 11.753906 0.265625 9.265625 0.265625 Z M 9.265625 0.265625 "/></g></g></g><g fill="#000000" fill-opacity="1"><g transform="translate(257.472702, 217.950103)"><g><path d="M 11.96875 0 L 6.8125 0 L 6.8125 -5.8125 L 0.125 -12.265625 L 5.828125 -12.265625 L 9.390625 -8.59375 L 12.953125 -12.265625 L 18.640625 -12.265625 L 11.96875 -5.8125 Z M 11.96875 0 "/></g></g></g><g fill="#000000" fill-opacity="1"><g transform="translate(276.241714, 217.950103)"><g/></g></g></svg>