<svg xmlns="http://www.w3.org/2000/svg" xmlns:xlink="http://www.w3.org/1999/xlink" width="500" zoomAndPan="magnify" viewBox="0 0 375 374.999991" height="500" preserveAspectRatio="xMidYMid meet" version="1.0"><defs><g/><clipPath id="859ed16279"><path d="M 43.5 140 L 331.5 140 L 331.5 214 L 43.5 214 Z M 43.5 140 " clip-rule="nonzero"/></clipPath><clipPath id="0e81b0826e"><path d="M 267 82.25 L 317 82.25 L 317 132 L 267 132 Z M 267 82.25 " clip-rule="nonzero"/></clipPath></defs><path fill="#ffffff" d="M 84.726562 168.953125 C 84.636719 170.960938 84.582031 172.984375 84.609375 175.007812 C 84.175781 175.832031 83.773438 176.671875 83.410156 177.511719 C 83.726562 174.621094 84.175781 171.757812 84.726562 168.953125 Z M 125.984375 105.5625 C 124.148438 107.613281 122.488281 109.898438 120.972656 112.386719 C 117.523438 114.121094 114.34375 116 111.457031 118.027344 C 115.890625 113.441406 120.757812 109.25 125.984375 105.5625 Z M 258.023438 118.011719 C 255.136719 115.988281 251.945312 114.09375 248.492188 112.371094 C 246.976562 109.855469 245.285156 107.558594 243.4375 105.488281 C 248.175781 108.828125 252.667969 112.589844 256.839844 116.769531 C 257.242188 117.15625 257.632812 117.59375 258.023438 118.011719 Z M 284.871094 174.996094 C 284.914062 172.941406 284.855469 170.917969 284.753906 168.894531 C 285.304688 171.699219 285.722656 174.519531 286.039062 177.382812 C 285.695312 176.585938 285.304688 175.777344 284.871094 174.996094 Z M 284.464844 210.304688 C 284.25 206.445312 283.167969 202.683594 281.261719 199.027344 C 283.167969 192.304688 284.335938 185.464844 284.726562 178.625 C 285.75 181.082031 286.371094 183.585938 286.648438 186.113281 C 286.660156 187.054688 286.703125 188.007812 286.703125 188.964844 C 286.703125 196.222656 285.9375 203.363281 284.464844 210.304688 Z M 254.542969 263.339844 C 254.789062 262.980469 255.003906 262.605469 255.222656 262.226562 C 256.03125 261.621094 256.8125 260.984375 257.605469 260.347656 C 257.34375 260.609375 257.097656 260.898438 256.839844 261.15625 C 256.089844 261.910156 255.308594 262.617188 254.542969 263.339844 Z M 111.816406 260.289062 C 112.613281 260.941406 113.40625 261.59375 114.214844 262.199219 C 114.429688 262.574219 114.664062 262.949219 114.90625 263.328125 C 114.140625 262.605469 113.375 261.894531 112.625 261.15625 C 112.351562 260.867188 112.089844 260.578125 111.816406 260.289062 Z M 94.847656 164.902344 C 94.933594 171.554688 95.773438 178.378906 97.417969 185.347656 C 97.550781 185.867188 97.679688 186.390625 97.808594 186.910156 C 96.882812 187.71875 96.003906 188.542969 95.167969 189.382812 C 92.625 191.925781 90.53125 194.558594 88.914062 197.234375 C 87.078125 190.367188 86.039062 183.394531 85.808594 176.414062 C 87.871094 172.363281 90.921875 168.503906 94.847656 164.902344 Z M 89.214844 153.21875 C 91.195312 149.402344 94.070312 145.789062 97.722656 142.433594 C 95.886719 148.910156 94.921875 155.691406 94.832031 162.675781 C 93.835938 163.542969 92.882812 164.425781 91.988281 165.308594 C 89.476562 167.839844 87.410156 170.410156 85.75 173.058594 C 85.765625 169.066406 86.054688 165.089844 86.601562 161.144531 C 87.367188 158.453125 88.25 155.808594 89.214844 153.21875 Z M 104.769531 125.6875 C 104.078125 126.890625 103.414062 128.117188 102.792969 129.363281 C 102.011719 130.042969 101.261719 130.707031 100.554688 131.414062 C 101.894531 129.449219 103.296875 127.527344 104.769531 125.6875 Z M 117.160156 119.949219 C 112.582031 122.277344 108.511719 124.820312 105 127.554688 C 106.113281 125.515625 107.339844 123.519531 108.65625 121.566406 C 111.917969 118.894531 115.703125 116.421875 119.90625 114.207031 C 118.90625 116.03125 117.984375 117.9375 117.160156 119.949219 Z M 139.011719 106.574219 C 138.144531 108.382812 137.363281 110.320312 136.671875 112.359375 C 133.753906 113.210938 130.921875 114.152344 128.179688 115.164062 C 124.828125 116.421875 121.695312 117.75 118.75 119.183594 C 119.660156 117.085938 120.667969 115.105469 121.78125 113.238281 C 126.964844 110.664062 132.757812 108.425781 139.011719 106.574219 Z M 131.082031 102.164062 C 132.570312 101.238281 134.070312 100.355469 135.601562 99.519531 C 139.023438 97.941406 142.738281 96.539062 146.664062 95.339844 C 143.949219 98.117188 141.625 101.398438 139.675781 105.199219 C 133.636719 106.949219 127.992188 109.046875 122.894531 111.445312 C 125.246094 107.859375 127.992188 104.753906 131.082031 102.164062 Z M 148.441406 93.632812 C 148.179688 93.691406 147.921875 93.761719 147.660156 93.851562 C 147.980469 93.71875 148.296875 93.605469 148.613281 93.488281 C 148.554688 93.53125 148.5 93.574219 148.441406 93.632812 Z M 165.902344 90.046875 C 160.671875 90.726562 155.632812 91.710938 150.851562 92.96875 C 150.882812 92.867188 150.894531 92.75 150.882812 92.648438 C 156.167969 90.785156 161.640625 89.339844 167.289062 88.371094 C 166.796875 88.875 166.335938 89.441406 165.902344 90.046875 Z M 218.628906 92.9375 C 213.847656 91.679688 208.808594 90.699219 203.566406 90.019531 C 203.144531 89.425781 202.699219 88.875 202.222656 88.371094 C 207.808594 89.339844 213.296875 90.742188 218.613281 92.605469 C 218.582031 92.722656 218.582031 92.824219 218.628906 92.9375 Z M 220.980469 93.574219 C 220.9375 93.53125 220.878906 93.488281 220.824219 93.429688 C 221.140625 93.5625 221.472656 93.675781 221.789062 93.804688 C 221.53125 93.734375 221.253906 93.648438 220.980469 93.574219 Z M 250.730469 119.152344 C 247.785156 117.738281 244.652344 116.390625 241.316406 115.148438 C 238.554688 114.136719 235.726562 113.195312 232.824219 112.34375 C 232.128906 110.304688 231.335938 108.382812 230.46875 106.546875 C 236.722656 108.410156 242.511719 110.636719 247.683594 113.226562 C 248.808594 115.089844 249.820312 117.070312 250.730469 119.152344 Z M 260.796875 121.523438 C 262.125 123.476562 263.351562 125.472656 264.464844 127.511719 C 260.957031 124.792969 256.898438 122.246094 252.320312 119.933594 C 251.496094 117.925781 250.570312 116 249.5625 114.179688 C 253.761719 116.40625 257.53125 118.851562 260.796875 121.523438 Z M 266.660156 129.320312 C 266.039062 128.046875 265.359375 126.800781 264.652344 125.558594 C 266.167969 127.480469 267.628906 129.433594 269 131.429688 C 268.25 130.722656 267.46875 129.996094 266.660156 129.320312 Z M 277.519531 165.308594 C 276.609375 164.410156 275.65625 163.542969 274.660156 162.660156 C 274.558594 155.605469 273.578125 148.765625 271.714844 142.230469 C 275.367188 145.613281 278.242188 149.257812 280.25 153.117188 C 281.246094 155.777344 282.125 158.484375 282.890625 161.230469 C 283.441406 165.148438 283.714844 169.082031 283.730469 173.042969 C 282.082031 170.398438 280.019531 167.824219 277.519531 165.308594 Z M 273.996094 189.382812 C 273.246094 188.617188 272.4375 187.878906 271.613281 187.15625 C 271.773438 186.546875 271.929688 185.941406 272.0625 185.347656 C 273.722656 178.378906 274.558594 171.554688 274.632812 164.917969 C 275.210938 165.4375 275.773438 165.972656 276.308594 166.523438 C 279.5 169.703125 281.953125 173.015625 283.6875 176.398438 C 283.457031 183.496094 282.371094 190.609375 280.464844 197.609375 C 278.820312 194.789062 276.652344 192.042969 273.996094 189.382812 Z M 276.261719 209.84375 C 274.703125 207.210938 272.667969 204.664062 270.199219 202.179688 C 269.359375 201.355469 268.492188 200.558594 267.585938 199.75 C 269.027344 195.976562 270.285156 192.1875 271.308594 188.382812 C 271.945312 188.976562 272.582031 189.570312 273.203125 190.175781 C 276.105469 193.082031 278.386719 196.089844 280.046875 199.15625 C 279.007812 202.757812 277.738281 206.328125 276.261719 209.84375 Z M 283.296875 213.804688 C 282.328125 216.40625 281.273438 218.894531 280.132812 221.292969 C 279.800781 217.808594 278.746094 214.398438 276.957031 211.070312 C 278.445312 207.628906 279.730469 204.160156 280.796875 200.632812 C 282.515625 204.261719 283.382812 207.992188 283.382812 211.792969 C 283.382812 212.460938 283.355469 213.140625 283.296875 213.804688 Z M 280.234375 223.652344 C 280.753906 222.636719 281.246094 221.597656 281.738281 220.542969 C 281.246094 222.03125 280.742188 223.492188 280.191406 224.964844 C 280.21875 224.519531 280.234375 224.097656 280.234375 223.652344 Z M 235.8125 271.597656 C 236.507812 269.949219 236.867188 268.273438 236.925781 266.535156 C 243.554688 263.082031 250.441406 258.640625 256.984375 253.046875 C 256.796875 255.894531 255.902344 258.714844 254.371094 261.445312 C 248.621094 265.683594 242.269531 269.039062 235.8125 271.597656 Z M 225.921875 282.382812 C 225.832031 282.414062 225.746094 282.457031 225.660156 282.472656 C 227.148438 281.515625 228.519531 280.535156 229.746094 279.476562 C 231.839844 278.855469 233.921875 278.105469 235.941406 277.28125 C 232.691406 279.160156 229.355469 280.867188 225.921875 282.382812 Z M 139.617188 279.433594 C 140.800781 280.476562 142.128906 281.457031 143.574219 282.382812 C 143.546875 282.382812 143.515625 282.371094 143.488281 282.355469 C 140.078125 280.851562 136.730469 279.144531 133.492188 277.25 C 135.488281 278.074219 137.539062 278.8125 139.617188 279.433594 Z M 112.496094 253.046875 C 119.039062 258.628906 125.925781 263.066406 132.554688 266.523438 C 132.597656 268.242188 132.960938 269.933594 133.636719 271.582031 C 127.199219 269.007812 120.84375 265.667969 115.09375 261.433594 C 113.566406 258.699219 112.667969 255.878906 112.496094 253.046875 Z M 89.230469 223.605469 C 89.230469 224.054688 89.257812 224.488281 89.273438 224.953125 C 88.710938 223.449219 88.191406 221.945312 87.699219 220.425781 C 88.191406 221.511719 88.695312 222.582031 89.230469 223.605469 Z M 101.894531 199.734375 C 100.984375 200.542969 100.105469 201.339844 99.28125 202.179688 C 96.796875 204.652344 94.789062 207.210938 93.230469 209.8125 C 91.699219 206.183594 90.398438 202.496094 89.332031 198.765625 C 91.425781 195.019531 94.402344 191.464844 98.125 188.140625 C 99.152344 192.015625 100.421875 195.890625 101.894531 199.734375 Z M 114.199219 177.496094 C 115.007812 181.558594 115.992188 185.652344 117.144531 189.730469 C 111.703125 192.460938 106.878906 195.554688 102.820312 198.953125 C 101.347656 195.078125 100.089844 191.191406 99.078125 187.316406 C 103.28125 183.714844 108.367188 180.433594 114.199219 177.496094 Z M 113.59375 131.644531 C 112.410156 137.113281 111.703125 143.011719 111.570312 149.328125 C 111.542969 150.125 111.558594 150.921875 111.558594 151.714844 C 105.652344 154.664062 100.410156 158.003906 96.003906 161.679688 C 96.191406 154.507812 97.304688 147.582031 99.355469 140.972656 C 103.355469 137.574219 108.148438 134.453125 113.59375 131.644531 Z M 113.925781 130.113281 C 108.625 132.804688 103.945312 135.765625 99.988281 138.949219 C 101.042969 135.898438 102.285156 132.917969 103.730469 130.011719 C 107.371094 126.890625 111.703125 124.027344 116.597656 121.453125 C 115.558594 124.183594 114.648438 127.078125 113.925781 130.113281 Z M 134.085938 122.277344 C 129.941406 123.492188 125.957031 124.863281 122.199219 126.367188 C 119.789062 127.351562 117.476562 128.378906 115.269531 129.449219 C 116.046875 126.367188 116.988281 123.417969 118.097656 120.671875 C 123.53125 117.9375 129.636719 115.566406 136.238281 113.601562 C 135.386719 116.304688 134.648438 119.195312 134.085938 122.277344 Z M 159.429688 108.640625 C 158.984375 111.359375 158.609375 114.207031 158.332031 117.144531 C 150.289062 118.257812 142.550781 119.847656 135.300781 121.914062 C 135.90625 118.804688 136.65625 115.914062 137.566406 113.210938 C 144.382812 111.246094 151.71875 109.710938 159.429688 108.640625 Z M 160.816406 101.933594 C 160.371094 103.695312 159.980469 105.546875 159.617188 107.5 C 152.09375 108.527344 144.832031 110.015625 138 111.953125 C 138.734375 109.898438 139.546875 107.960938 140.453125 106.140625 C 146.824219 104.332031 153.667969 102.914062 160.816406 101.933594 Z M 184.167969 99.199219 C 176.675781 99.214844 169.324219 99.691406 162.289062 100.585938 C 163.402344 96.757812 164.804688 93.53125 166.480469 91.117188 C 172.210938 90.363281 178.132812 89.976562 184.167969 89.945312 Z M 207.203125 100.585938 C 200.15625 99.691406 192.804688 99.214844 185.296875 99.199219 L 185.296875 89.945312 C 191.363281 89.960938 197.28125 90.351562 202.972656 91.074219 C 204.675781 93.503906 206.0625 96.726562 207.203125 100.585938 Z M 209.859375 107.484375 C 209.515625 105.546875 209.125 103.683594 208.664062 101.917969 C 215.824219 102.902344 222.65625 104.316406 229.023438 106.125 C 229.933594 107.949219 230.757812 109.898438 231.496094 111.953125 C 224.648438 110 217.398438 108.511719 209.859375 107.484375 Z M 234.179688 121.871094 C 226.988281 119.832031 219.261719 118.226562 211.160156 117.113281 C 210.871094 114.179688 210.511719 111.34375 210.050781 108.640625 C 217.773438 109.695312 225.113281 111.246094 231.929688 113.195312 C 232.824219 115.898438 233.574219 118.777344 234.179688 121.871094 Z M 254.210938 129.375 C 248.535156 126.628906 242.226562 124.230469 235.394531 122.234375 C 234.816406 119.152344 234.109375 116.289062 233.242188 113.585938 C 239.855469 115.566406 245.949219 117.925781 251.378906 120.644531 C 252.492188 123.390625 253.429688 126.3125 254.210938 129.375 Z M 255.554688 130.027344 C 254.816406 127.003906 253.921875 124.140625 252.882812 121.4375 C 257.777344 123.996094 262.097656 126.859375 265.734375 129.984375 C 267.164062 132.847656 268.421875 135.8125 269.460938 138.832031 C 265.476562 135.636719 260.796875 132.671875 255.554688 130.027344 Z M 257.9375 151.703125 C 257.9375 150.921875 257.9375 150.125 257.921875 149.328125 C 257.777344 142.9375 257.070312 136.953125 255.859375 131.429688 C 261.289062 134.21875 266.082031 137.359375 270.066406 140.769531 C 272.148438 147.449219 273.304688 154.433594 273.492188 161.664062 C 269.070312 158.003906 263.84375 154.664062 257.9375 151.703125 Z M 252.332031 189.730469 C 253.488281 185.695312 254.457031 181.660156 255.25 177.65625 C 261.101562 180.621094 266.167969 183.929688 270.34375 187.546875 C 269.347656 191.347656 268.117188 195.179688 266.675781 198.96875 C 262.601562 195.554688 257.777344 192.476562 252.332031 189.730469 Z M 261.765625 210.1875 C 257.980469 207.023438 253.503906 204.144531 248.449219 201.601562 C 249.777344 198.027344 250.960938 194.441406 252.015625 190.828125 C 257.445312 193.574219 262.226562 196.667969 266.242188 200.082031 C 264.914062 203.480469 263.425781 206.847656 261.765625 210.1875 Z M 270.933594 220.671875 C 269.445312 218.128906 267.496094 215.640625 265.085938 213.210938 C 264.320312 212.445312 263.484375 211.691406 262.644531 210.957031 C 264.320312 207.628906 265.808594 204.261719 267.152344 200.878906 C 267.917969 201.570312 268.683594 202.265625 269.390625 202.972656 C 272.03125 205.632812 274.125 208.351562 275.699219 211.15625 C 274.285156 214.367188 272.710938 217.550781 270.933594 220.671875 Z M 212.144531 274.402344 C 212.054688 273.550781 211.824219 272.695312 211.449219 271.859375 C 219.652344 268.691406 227.320312 264.832031 234.382812 260.320312 C 235.277344 262.113281 235.742188 263.964844 235.785156 265.855469 C 226.917969 270.410156 218.539062 273.160156 212.144531 274.402344 Z M 211.722656 277.773438 C 211.984375 277.0625 212.128906 276.3125 212.171875 275.558594 C 218.539062 274.316406 226.875 271.625 235.753906 267.128906 C 235.625 268.835938 235.148438 270.527344 234.339844 272.160156 C 226.554688 275.097656 218.726562 276.933594 211.722656 277.773438 Z M 205.976562 284.191406 C 206.972656 283.570312 207.867188 282.890625 208.648438 282.183594 C 214.484375 282.570312 220.808594 281.863281 227.046875 280.246094 C 225.34375 281.488281 223.40625 282.660156 221.3125 283.714844 C 216.488281 284.886719 212.605469 284.914062 205.976562 284.191406 Z M 171.011719 287.417969 C 175.101562 288.601562 179.808594 289.28125 184.734375 289.28125 C 187.171875 289.28125 189.527344 289.121094 191.765625 288.832031 C 192.515625 289.570312 193.296875 290.179688 194.089844 290.625 C 191 290.902344 187.882812 291.058594 184.734375 291.058594 C 177.828125 291.058594 171.027344 290.367188 164.398438 289.035156 C 166.710938 288.832031 168.847656 288.296875 171.011719 287.417969 Z M 160.875 282.183594 C 161.65625 282.890625 162.550781 283.570312 163.546875 284.191406 C 156.875 284.914062 152.988281 284.886719 148.136719 283.699219 C 146.042969 282.644531 144.121094 281.488281 142.417969 280.230469 C 148.671875 281.863281 155.027344 282.570312 160.875 282.183594 Z M 157.308594 275.558594 C 157.351562 276.296875 157.496094 277.046875 157.757812 277.773438 C 150.75 276.917969 142.910156 275.097656 135.125 272.148438 C 134.316406 270.511719 133.839844 268.835938 133.726562 267.128906 C 142.59375 271.613281 150.925781 274.316406 157.308594 275.558594 Z M 135.082031 260.289062 C 142.160156 264.832031 149.828125 268.691406 158.03125 271.84375 C 157.640625 272.683594 157.410156 273.535156 157.324219 274.402344 C 150.925781 273.144531 142.5625 270.398438 133.683594 265.84375 C 133.726562 263.933594 134.214844 262.082031 135.082031 260.289062 Z M 97.910156 221.800781 C 96.25 224.921875 95.28125 228.132812 95.023438 231.429688 C 93.359375 228.855469 91.800781 226.195312 90.371094 223.363281 C 90.414062 219.601562 91.351562 215.945312 93.101562 212.429688 C 94.53125 215.613281 96.132812 218.734375 97.910156 221.800781 Z M 106.847656 210.941406 C 105.984375 211.691406 105.160156 212.445312 104.378906 213.210938 C 101.984375 215.625 100.03125 218.113281 98.546875 220.65625 C 96.785156 217.535156 95.195312 214.367188 93.792969 211.15625 C 95.816406 207.527344 98.703125 204.085938 102.328125 200.878906 C 103.671875 204.246094 105.175781 207.617188 106.847656 210.941406 Z M 121.046875 201.585938 C 115.976562 204.128906 111.5 207.007812 107.714844 210.175781 C 106.054688 206.847656 104.566406 203.464844 103.238281 200.082031 C 107.210938 196.726562 112.003906 193.632812 117.476562 190.871094 C 118.53125 194.457031 119.714844 198.042969 121.046875 201.585938 Z M 137.132812 183.28125 C 137.914062 186.9375 138.792969 190.640625 139.777344 194.355469 C 133.335938 196.222656 127.398438 198.476562 122.054688 201.078125 C 120.742188 197.523438 119.558594 193.953125 118.503906 190.367188 C 124.078125 187.648438 130.347656 185.261719 137.132812 183.28125 Z M 134.589844 169.601562 C 135.226562 173.707031 135.976562 177.886719 136.875 182.125 C 130.101562 184.089844 123.816406 186.460938 118.1875 189.222656 C 117.03125 185.132812 116.046875 181.039062 115.238281 176.976562 C 121.046875 174.140625 127.542969 171.65625 134.589844 169.601562 Z M 132.410156 145.46875 C 132.554688 152.699219 133.234375 160.40625 134.417969 168.429688 C 127.386719 170.46875 120.871094 172.925781 115.007812 175.789062 C 113.535156 168.039062 112.757812 160.40625 112.667969 153.074219 C 118.574219 150.152344 125.203125 147.609375 132.410156 145.46875 Z M 132.800781 131.804688 C 132.46875 135.578125 132.339844 139.554688 132.367188 143.675781 C 125.261719 145.757812 118.648438 148.273438 112.683594 151.152344 C 112.683594 150.558594 112.683594 149.953125 112.699219 149.359375 C 112.84375 142.78125 113.59375 136.621094 114.894531 130.980469 C 120.597656 128.160156 126.953125 125.675781 133.855469 123.59375 C 133.40625 126.210938 133.046875 128.929688 132.800781 131.804688 Z M 157.480469 138.414062 C 149.046875 139.554688 141.003906 141.21875 133.492188 143.34375 C 133.464844 139.425781 133.609375 135.59375 133.925781 131.890625 C 134.1875 128.871094 134.578125 125.976562 135.054688 123.261719 C 142.289062 121.132812 150.074219 119.472656 158.21875 118.328125 C 157.65625 124.808594 157.4375 131.691406 157.480469 138.414062 Z M 184.167969 116.480469 L 184.167969 136.621094 C 175.332031 136.648438 166.695312 137.226562 158.40625 138.296875 C 158.390625 131.125 158.652344 124.34375 159.214844 118.183594 C 167.242188 117.113281 175.605469 116.523438 184.167969 116.480469 Z M 184.167969 106.949219 L 184.167969 115.351562 C 175.75 115.378906 167.402344 115.945312 159.328125 117 C 159.632812 114.019531 160.007812 111.15625 160.484375 108.511719 C 168.066406 107.515625 176.011719 106.980469 184.167969 106.949219 Z M 184.167969 105.808594 C 176.140625 105.835938 168.285156 106.355469 160.6875 107.339844 C 161.0625 105.386719 161.480469 103.523438 161.945312 101.789062 C 169.09375 100.847656 176.542969 100.355469 184.167969 100.328125 Z M 185.296875 105.808594 L 185.296875 100.328125 C 192.9375 100.355469 200.386719 100.847656 207.535156 101.773438 C 208.011719 103.507812 208.417969 105.375 208.792969 107.339844 C 201.195312 106.355469 193.324219 105.835938 185.296875 105.808594 Z M 185.296875 115.351562 L 185.296875 106.949219 C 193.46875 106.964844 201.414062 107.5 209.007812 108.496094 C 209.472656 111.15625 209.847656 113.992188 210.148438 116.96875 C 202.191406 115.929688 193.84375 115.378906 185.296875 115.351562 Z M 211.074219 138.296875 C 202.800781 137.214844 194.148438 136.636719 185.296875 136.621094 L 185.296875 116.480469 C 193.902344 116.507812 202.265625 117.085938 210.265625 118.125 C 210.84375 124.300781 211.101562 131.109375 211.074219 138.296875 Z M 235.566406 131.890625 C 235.886719 135.59375 236.015625 139.425781 235.984375 143.34375 C 228.492188 141.21875 220.445312 139.554688 212.011719 138.414062 C 212.042969 131.660156 211.839844 124.765625 211.261719 118.257812 C 219.4375 119.386719 227.191406 121.019531 234.398438 123.085938 C 234.902344 125.878906 235.292969 128.8125 235.566406 131.890625 Z M 237.113281 143.675781 C 237.15625 139.554688 237.011719 135.578125 236.695312 131.804688 C 236.433594 128.882812 236.074219 126.109375 235.609375 123.433594 C 242.511719 125.488281 248.867188 127.945312 254.558594 130.765625 C 255.871094 136.476562 256.636719 142.691406 256.796875 149.359375 C 256.8125 149.953125 256.796875 150.558594 256.8125 151.152344 C 250.847656 148.261719 244.230469 145.757812 237.113281 143.675781 Z M 235.046875 168.53125 C 236.261719 160.449219 236.9375 152.699219 237.082031 145.410156 C 244.246094 147.535156 250.875 150.097656 256.8125 153.046875 C 256.738281 160.421875 255.929688 168.128906 254.457031 175.933594 C 248.609375 173.058594 242.082031 170.585938 235.046875 168.53125 Z M 232.605469 182.136719 C 233.503906 177.929688 234.238281 173.796875 234.875 169.730469 C 235.726562 169.976562 236.59375 170.210938 237.445312 170.46875 C 243.539062 172.390625 249.140625 174.621094 254.210938 177.121094 C 253.417969 181.140625 252.449219 185.1875 251.308594 189.222656 C 245.660156 186.476562 239.394531 184.089844 232.605469 182.136719 Z M 229.71875 194.355469 C 230.699219 190.625 231.582031 186.910156 232.359375 183.238281 C 239.132812 185.1875 245.386719 187.574219 250.992188 190.320312 C 249.9375 193.921875 248.753906 197.523438 247.4375 201.09375 C 242.09375 198.492188 236.144531 196.222656 229.71875 194.355469 Z M 243.597656 210.578125 C 241.316406 215.726562 238.800781 220.699219 236.058594 225.488281 C 231.726562 223.363281 226.902344 221.523438 221.6875 220.007812 C 223.234375 215.828125 224.707031 211.519531 226.078125 207.125 C 227.292969 203.207031 228.417969 199.316406 229.445312 195.46875 C 235.828125 197.304688 241.734375 199.546875 247.046875 202.148438 C 245.964844 204.984375 244.839844 207.804688 243.597656 210.578125 Z M 247.582031 232.804688 C 244.578125 230.300781 241.039062 228.015625 237.070312 225.992188 C 239.8125 221.191406 242.339844 216.203125 244.636719 211.042969 C 245.863281 208.265625 247.003906 205.476562 248.058594 202.65625 C 253.070312 205.199219 257.503906 208.0625 261.230469 211.214844 C 257.460938 218.632812 252.882812 225.878906 247.582031 232.804688 Z M 250.398438 235.363281 C 249.777344 234.742188 249.113281 234.132812 248.433594 233.539062 C 253.734375 226.628906 258.328125 219.398438 262.109375 211.980469 C 262.863281 212.660156 263.597656 213.328125 264.277344 214.019531 C 266.804688 216.550781 268.796875 219.140625 270.269531 221.800781 C 269.878906 222.480469 269.492188 223.160156 269.085938 223.824219 C 265.113281 230.257812 260.492188 236.230469 255.308594 241.695312 C 254.066406 239.511719 252.433594 237.414062 250.398438 235.363281 Z M 231.394531 254.332031 C 231.003906 253.957031 230.585938 253.582031 230.167969 253.21875 C 236.363281 247.710938 242.226562 241.480469 247.523438 234.742188 C 247.597656 234.640625 247.667969 234.523438 247.742188 234.4375 C 248.390625 235 249.011719 235.578125 249.589844 236.15625 C 251.65625 238.226562 253.273438 240.367188 254.484375 242.550781 C 248.636719 248.578125 242.035156 253.972656 234.800781 258.683594 C 233.933594 257.195312 232.792969 255.75 231.394531 254.332031 Z M 209.167969 268.632812 C 209.082031 268.546875 209.007812 268.488281 208.921875 268.417969 C 215.867188 264.613281 222.757812 259.699219 229.3125 253.972656 C 229.761719 254.347656 230.195312 254.738281 230.597656 255.144531 C 231.941406 256.503906 233.027344 257.890625 233.863281 259.308594 C 226.785156 263.832031 219.117188 267.695312 210.914062 270.847656 C 210.453125 270.078125 209.875 269.34375 209.167969 268.632812 Z M 140.136719 253.941406 C 146.707031 259.683594 153.609375 264.597656 160.558594 268.402344 C 160.472656 268.488281 160.382812 268.546875 160.3125 268.632812 C 159.605469 269.34375 159.027344 270.078125 158.550781 270.847656 C 150.347656 267.695312 142.691406 263.820312 135.617188 259.308594 C 136.714844 257.414062 138.246094 255.621094 140.136719 253.941406 Z M 121.722656 234.421875 C 121.8125 234.523438 121.882812 234.640625 121.96875 234.742188 C 127.253906 241.480469 133.117188 247.710938 139.3125 253.207031 C 138.894531 253.582031 138.476562 253.957031 138.070312 254.332031 C 136.671875 255.734375 135.53125 257.195312 134.664062 258.683594 C 127.441406 253.972656 120.84375 248.5625 114.996094 242.550781 C 116.570312 239.6875 118.851562 236.953125 121.722656 234.421875 Z M 121.046875 233.527344 C 120.367188 234.121094 119.703125 234.742188 119.082031 235.363281 C 117.03125 237.402344 115.414062 239.511719 114.171875 241.667969 C 108.972656 236.214844 104.367188 230.257812 100.410156 223.824219 C 99.988281 223.160156 99.613281 222.480469 99.210938 221.800781 C 101.128906 218.328125 103.890625 215.046875 107.371094 211.980469 C 111.167969 219.386719 115.746094 226.613281 121.046875 233.527344 Z M 124.859375 211.042969 C 127.140625 216.191406 129.667969 221.179688 132.410156 225.980469 C 128.4375 228.015625 124.902344 230.300781 121.910156 232.789062 C 116.613281 225.878906 112.019531 218.632812 108.25 211.214844 C 111.945312 208.105469 116.378906 205.242188 121.433594 202.699219 C 122.503906 205.503906 123.644531 208.28125 124.859375 211.042969 Z M 143.414062 207.125 C 144.789062 211.519531 146.261719 215.828125 147.792969 220.007812 C 142.578125 221.511719 137.753906 223.363281 133.421875 225.488281 C 130.691406 220.699219 128.164062 215.726562 125.882812 210.578125 C 124.65625 207.816406 123.53125 205.011719 122.460938 202.179688 C 127.730469 199.621094 133.636719 197.363281 140.066406 195.511719 C 141.089844 199.34375 142.1875 203.234375 143.414062 207.125 Z M 161.308594 191.074219 C 162.449219 199.820312 163.777344 208.351562 165.25 216.347656 C 159.546875 217.128906 154.101562 218.242188 149.003906 219.660156 C 146.128906 211.910156 143.488281 203.652344 141.234375 195.179688 C 147.488281 193.417969 154.21875 192.042969 161.308594 191.074219 Z M 159.835938 178.550781 C 160.226562 182.355469 160.671875 186.171875 161.148438 189.933594 C 154.058594 190.886719 147.269531 192.257812 140.929688 194.039062 C 139.964844 190.378906 139.082031 186.679688 138.289062 182.960938 C 144.988281 181.082031 152.226562 179.578125 159.835938 178.550781 Z M 158.566406 164.585938 C 158.765625 167.230469 158.96875 169.660156 159.171875 171.800781 C 159.328125 173.664062 159.519531 175.542969 159.71875 177.410156 C 152.09375 178.421875 144.816406 179.910156 138.027344 181.804688 C 137.148438 177.625 136.367188 173.449219 135.734375 169.269531 C 142.835938 167.257812 150.507812 165.683594 158.566406 164.585938 Z M 158.492188 163.457031 C 150.433594 164.527344 142.738281 166.089844 135.558594 168.113281 C 134.375 160.304688 133.652344 152.570312 133.523438 145.136719 C 140.960938 142.996094 149.003906 141.304688 157.496094 140.148438 C 157.566406 148.550781 158 156.675781 158.492188 163.457031 Z M 184.167969 161.734375 C 175.679688 161.75 167.375 162.300781 159.402344 163.328125 C 158.824219 155.332031 158.476562 147.480469 158.421875 140.019531 C 166.636719 138.917969 175.273438 138.355469 184.167969 138.328125 Z M 210.078125 163.371094 C 202.121094 162.328125 193.800781 161.765625 185.296875 161.734375 L 185.296875 138.328125 C 194.148438 138.339844 202.800781 138.917969 211.074219 140.003906 C 211.015625 147.480469 210.667969 155.34375 210.078125 163.371094 Z M 211.003906 163.484375 C 211.492188 156.691406 211.910156 148.5625 212 140.121094 C 220.433594 141.261719 228.476562 142.9375 235.972656 145.09375 C 235.828125 152.554688 235.105469 160.347656 233.921875 168.199219 C 226.757812 166.160156 219.058594 164.570312 211.003906 163.484375 Z M 209.773438 177.410156 C 209.960938 175.542969 210.148438 173.664062 210.324219 171.800781 C 210.511719 169.675781 210.714844 167.273438 210.914062 164.640625 C 218.871094 165.726562 226.542969 167.332031 233.746094 169.398438 C 233.097656 173.535156 232.332031 177.671875 231.453125 181.804688 C 224.664062 179.910156 217.386719 178.421875 209.773438 177.410156 Z M 208.332031 189.933594 C 208.808594 186.15625 209.253906 182.355469 209.660156 178.523438 C 217.226562 179.550781 224.476562 181.011719 231.21875 182.90625 C 230.410156 186.648438 229.53125 190.367188 228.5625 194.039062 C 222.207031 192.257812 215.4375 190.886719 208.332031 189.933594 Z M 204.230469 216.347656 C 205.703125 208.339844 207.046875 199.808594 208.1875 191.058594 C 215.234375 192.015625 221.976562 193.371094 228.273438 195.136719 C 226.007812 203.625 223.347656 211.910156 220.488281 219.675781 C 215.390625 218.242188 209.933594 217.128906 204.230469 216.347656 Z M 210.324219 243.230469 C 206.726562 242.230469 202.886719 241.421875 198.871094 240.855469 C 200.691406 233.976562 202.4375 226.035156 204.042969 217.460938 C 209.671875 218.226562 215.058594 219.328125 220.101562 220.730469 C 217.023438 228.972656 213.6875 236.589844 210.324219 243.230469 Z M 221.054688 247.261719 C 218.152344 245.84375 214.960938 244.617188 211.507812 243.574219 C 214.914062 236.867188 218.238281 229.246094 221.300781 221.0625 C 226.453125 222.550781 231.234375 224.375 235.507812 226.46875 C 231.207031 233.902344 226.351562 240.855469 221.054688 247.261719 Z M 222.078125 247.785156 C 227.363281 241.378906 232.214844 234.410156 236.519531 226.976562 C 240.449219 228.972656 243.929688 231.242188 246.890625 233.699219 C 246.800781 233.816406 246.714844 233.917969 246.628906 234.03125 C 241.34375 240.769531 235.480469 246.988281 229.3125 252.46875 C 227.234375 250.746094 224.808594 249.171875 222.078125 247.785156 Z M 210.988281 244.601562 C 214.351562 245.601562 217.484375 246.769531 220.300781 248.128906 C 215.148438 254.261719 209.558594 259.871094 203.609375 264.832031 C 202.25 264.179688 200.761719 263.585938 199.175781 263.09375 C 203.03125 258.554688 207.058594 252.191406 210.988281 244.601562 Z M 198.582031 241.96875 C 202.511719 242.503906 206.28125 243.285156 209.804688 244.269531 C 205.804688 252.035156 201.757812 258.382812 197.988281 262.75 C 196.011719 262.199219 193.902344 261.765625 191.707031 261.476562 C 193.976562 257.09375 196.316406 250.34375 198.582031 241.96875 Z M 185.296875 241.046875 C 189.5 241.058594 193.601562 241.335938 197.542969 241.824219 C 195.246094 250.210938 192.847656 256.964844 190.496094 261.332031 C 188.820312 261.144531 187.074219 261.042969 185.296875 261.027344 Z M 178.984375 261.332031 C 176.632812 256.964844 174.234375 250.210938 171.953125 241.824219 C 175.851562 241.320312 179.953125 241.058594 184.167969 241.03125 L 184.167969 261.027344 C 182.40625 261.042969 180.660156 261.144531 178.984375 261.332031 Z M 171.503906 262.75 C 167.734375 258.382812 163.691406 252.035156 159.691406 244.269531 C 163.199219 243.300781 166.957031 242.519531 170.914062 241.96875 C 173.164062 250.355469 175.503906 257.09375 177.785156 261.476562 C 175.578125 261.75 173.46875 262.183594 171.503906 262.75 Z M 165.886719 264.832031 C 159.9375 259.871094 154.347656 254.261719 149.175781 248.144531 C 152.007812 246.800781 155.128906 245.613281 158.507812 244.601562 C 162.433594 252.191406 166.464844 258.554688 170.304688 263.082031 C 168.71875 263.585938 167.230469 264.164062 165.886719 264.832031 Z M 147.402344 247.769531 C 144.6875 249.171875 142.246094 250.746094 140.167969 252.453125 C 134 246.972656 128.136719 240.769531 122.863281 234.03125 C 122.765625 233.917969 122.675781 233.800781 122.589844 233.683594 C 125.523438 231.257812 129.015625 229.015625 132.972656 227.003906 C 137.277344 234.421875 142.117188 241.378906 147.402344 247.769531 Z M 157.972656 243.574219 C 154.535156 244.601562 151.328125 245.832031 148.441406 247.25 C 143.140625 240.855469 138.304688 233.917969 134 226.5 C 138.246094 224.417969 143.027344 222.609375 148.195312 221.105469 C 151.257812 229.261719 154.578125 236.882812 157.972656 243.574219 Z M 170.609375 240.855469 C 166.59375 241.421875 162.765625 242.230469 159.171875 243.230469 C 155.804688 236.589844 152.484375 228.972656 149.410156 220.746094 C 154.417969 219.355469 159.792969 218.257812 165.453125 217.476562 C 167.054688 226.035156 168.804688 233.976562 170.609375 240.855469 Z M 184.167969 216.191406 L 184.167969 239.902344 C 179.867188 239.933594 175.679688 240.222656 171.648438 240.726562 C 169.816406 233.84375 168.039062 225.90625 166.421875 217.347656 C 172.097656 216.609375 178.046875 216.21875 184.167969 216.191406 Z M 184.167969 189.511719 L 184.167969 215.0625 C 178.003906 215.078125 171.980469 215.480469 166.21875 216.21875 C 164.714844 208.207031 163.375 199.664062 162.234375 190.945312 C 169.25 190.03125 176.601562 189.542969 184.167969 189.511719 Z M 184.167969 176.890625 L 184.167969 188.382812 C 176.585938 188.398438 169.195312 188.890625 162.089844 189.800781 C 161.597656 186.042969 161.148438 182.238281 160.746094 178.40625 C 168.242188 177.453125 176.082031 176.917969 184.167969 176.890625 Z M 184.167969 175.761719 C 176.097656 175.777344 168.195312 176.296875 160.628906 177.28125 C 160.195312 173 159.804688 168.707031 159.488281 164.46875 C 167.375 163.441406 175.648438 162.894531 184.167969 162.863281 Z M 185.296875 175.761719 L 185.296875 162.878906 C 193.699219 162.90625 201.992188 163.484375 209.992188 164.527344 C 209.6875 168.75 209.296875 173.015625 208.851562 177.28125 C 201.28125 176.296875 193.382812 175.777344 185.296875 175.761719 Z M 185.296875 188.382812 L 185.296875 176.890625 C 193.355469 176.917969 201.210938 177.425781 208.75 178.394531 C 208.34375 182.226562 207.898438 186.042969 207.40625 189.816406 C 200.300781 188.890625 192.890625 188.398438 185.296875 188.382812 Z M 185.296875 215.0625 L 185.296875 189.511719 C 192.835938 189.527344 200.199219 190.019531 207.261719 190.929688 C 206.121094 199.664062 204.761719 208.207031 203.277344 216.234375 C 197.5 215.480469 191.460938 215.078125 185.296875 215.0625 Z M 185.296875 216.191406 C 191.40625 216.21875 197.355469 216.59375 203.074219 217.332031 C 201.457031 225.90625 199.679688 233.84375 197.832031 240.742188 C 193.800781 240.222656 189.597656 239.933594 185.296875 239.902344 Z M 161.4375 267.605469 C 154.507812 263.832031 147.574219 258.945312 141.003906 253.191406 C 143.027344 251.558594 145.421875 250.039062 148.136719 248.664062 C 153.292969 254.796875 158.867188 260.390625 164.789062 265.394531 C 163.546875 266.058594 162.421875 266.796875 161.4375 267.605469 Z M 204.691406 265.394531 C 210.625 260.40625 216.199219 254.796875 221.34375 248.664062 C 224.027344 250.039062 226.410156 251.558594 228.449219 253.234375 C 221.875 258.960938 214.972656 263.847656 208.042969 267.621094 C 207.058594 266.8125 205.949219 266.074219 204.691406 265.394531 Z M 196.503906 290.367188 C 195.363281 290.105469 194.265625 289.511719 193.210938 288.617188 C 195.074219 288.3125 196.835938 287.90625 198.496094 287.429688 C 200.660156 288.296875 202.785156 288.832031 205.066406 289.035156 C 202.25 289.597656 199.375 290.035156 196.503906 290.367188 Z M 207.953125 280.460938 C 203.652344 284.785156 194.523438 287.574219 184.734375 287.574219 C 174.941406 287.574219 165.828125 284.785156 161.511719 280.460938 C 159.835938 278.785156 158.984375 276.992188 158.984375 275.15625 C 158.984375 268.285156 170.535156 262.707031 184.734375 262.707031 C 194.523438 262.707031 203.652344 265.511719 207.953125 269.832031 C 209.644531 271.511719 210.496094 273.304688 210.496094 275.15625 C 210.496094 276.992188 209.644531 278.785156 207.953125 280.460938 Z M 96.0625 233.0625 C 96.121094 229.59375 97 226.222656 98.601562 222.972656 C 98.878906 223.460938 99.152344 223.941406 99.457031 224.429688 C 103.511719 231.023438 108.265625 237.140625 113.609375 242.738281 C 112.324219 245.28125 111.585938 247.898438 111.398438 250.574219 C 105.867188 245.613281 100.625 239.816406 96.0625 233.0625 Z M 112.46875 251.527344 C 112.539062 248.796875 113.21875 246.148438 114.445312 243.605469 C 120.324219 249.589844 126.910156 254.984375 134.128906 259.683594 C 133.21875 261.503906 132.714844 263.371094 132.585938 265.277344 C 125.914062 261.75 119.007812 257.226562 112.46875 251.527344 Z M 138.878906 277.222656 C 137.726562 276.078125 136.785156 274.894531 136.019531 273.695312 C 143.71875 276.484375 151.429688 278.207031 158.304688 278.988281 C 158.695312 279.722656 159.1875 280.417969 159.792969 281.113281 C 153.554688 281.386719 146.765625 280.417969 140.195312 278.453125 C 139.746094 278.046875 139.285156 277.640625 138.878906 277.222656 Z M 155.488281 286.808594 C 154.390625 286.433594 153.308594 286.027344 152.269531 285.609375 C 155.894531 286.011719 159.632812 285.78125 165.238281 285.132812 C 166.480469 285.78125 167.820312 286.359375 169.28125 286.851562 C 166.203125 287.894531 163.128906 288.210938 159.375 287.863281 C 159.359375 287.863281 159.328125 287.863281 159.328125 287.863281 C 158.042969 287.546875 156.757812 287.183594 155.488281 286.808594 Z M 213.976562 286.808594 C 212.707031 287.183594 211.433594 287.53125 210.148438 287.863281 C 210.136719 287.863281 210.136719 287.863281 210.121094 287.863281 C 206.367188 288.210938 203.320312 287.894531 200.257812 286.867188 C 201.714844 286.359375 203.074219 285.78125 204.300781 285.144531 C 209.859375 285.78125 213.585938 286.011719 217.199219 285.609375 C 216.15625 286.027344 215.074219 286.433594 213.976562 286.808594 Z M 229.269531 278.453125 C 222.699219 280.417969 215.925781 281.386719 209.714844 281.113281 C 210.308594 280.417969 210.800781 279.722656 211.203125 278.988281 C 218.050781 278.207031 225.761719 276.5 233.457031 273.707031 C 232.679688 274.894531 231.738281 276.078125 230.597656 277.222656 C 230.179688 277.640625 229.71875 278.046875 229.269531 278.453125 Z M 236.882812 265.292969 C 236.765625 263.371094 236.246094 261.519531 235.335938 259.683594 C 242.570312 254.984375 249.15625 249.605469 255.035156 243.605469 C 256.289062 246.179688 256.941406 248.839844 257 251.542969 C 250.457031 257.226562 243.554688 261.765625 236.882812 265.292969 Z M 258.082031 250.589844 C 257.894531 247.914062 257.15625 245.296875 255.859375 242.75 C 261.230469 237.140625 265.980469 231.023438 270.039062 224.429688 C 270.328125 223.941406 270.601562 223.460938 270.890625 222.972656 C 272.507812 226.253906 273.359375 229.636719 273.402344 233.09375 C 268.839844 239.832031 263.613281 245.628906 258.082031 250.589844 Z M 274.457031 231.457031 C 274.183594 228.160156 273.214844 224.953125 271.585938 221.8125 C 273.347656 218.734375 274.964844 215.613281 276.378906 212.429688 C 278.15625 216 279.066406 219.644531 279.109375 223.390625 C 277.664062 226.210938 276.105469 228.898438 274.457031 231.457031 Z M 270.660156 186.300781 C 266.386719 182.671875 261.273438 179.375 255.511719 176.457031 C 257 168.675781 257.820312 160.984375 257.921875 153.59375 C 263.914062 156.644531 269.160156 160.117188 273.519531 163.917969 C 273.519531 170.789062 272.683594 177.859375 270.964844 185.085938 C 270.875 185.492188 270.761719 185.898438 270.660156 186.300781 Z M 220.433594 94.601562 C 223.507812 97.363281 226.121094 100.761719 228.304688 104.765625 C 222.035156 103.03125 215.335938 101.6875 208.34375 100.746094 C 207.320312 97.058594 206.035156 93.835938 204.445312 91.277344 C 210.035156 92.058594 215.390625 93.171875 220.433594 94.601562 Z M 149.003906 94.644531 C 154.042969 93.214844 159.429688 92.085938 165.035156 91.289062 C 163.445312 93.851562 162.175781 97.074219 161.148438 100.746094 C 154.160156 101.699219 147.460938 103.046875 141.191406 104.765625 C 143.34375 100.804688 145.941406 97.40625 149.003906 94.644531 Z M 98.515625 185.085938 C 96.8125 177.859375 95.976562 170.773438 95.960938 163.90625 C 100.277344 160.160156 105.519531 156.703125 111.558594 153.640625 C 111.671875 160.96875 112.480469 168.574219 113.953125 176.296875 C 108.179688 179.203125 103.066406 182.46875 98.777344 186.085938 C 98.691406 185.753906 98.601562 185.421875 98.515625 185.085938 Z M 85.777344 211.792969 C 85.777344 207.816406 86.746094 203.941406 88.582031 200.242188 C 89.664062 203.886719 90.992188 207.5 92.523438 211.058594 C 90.734375 214.367188 89.679688 217.78125 89.347656 221.25 C 88.046875 218.53125 86.863281 215.699219 85.808594 212.734375 C 85.792969 212.429688 85.777344 212.113281 85.777344 211.792969 Z M 91.121094 229.507812 C 90.820312 228.351562 90.617188 227.191406 90.5 226.023438 C 91.886719 228.582031 93.359375 231.039062 94.921875 233.367188 C 94.921875 233.382812 94.921875 233.394531 94.921875 233.410156 C 94.921875 235.074219 95.109375 236.722656 95.46875 238.355469 C 93.867188 235.476562 92.421875 232.527344 91.121094 229.507812 Z M 102.761719 249.5625 C 102.691406 249.488281 102.617188 249.429688 102.53125 249.402344 C 101 247.320312 99.570312 245.179688 98.214844 242.996094 C 97.027344 240.410156 96.320312 237.761719 96.121094 235.089844 C 100.683594 241.59375 105.867188 247.203125 111.324219 252.003906 C 111.339844 254.652344 111.917969 257.269531 113.03125 259.8125 C 109.246094 256.804688 105.75 253.40625 102.761719 249.5625 Z M 120.554688 268.300781 C 119.066406 266.882812 117.765625 265.421875 116.683594 263.917969 C 122.242188 267.695312 128.25 270.714844 134.332031 273.058594 C 135.167969 274.632812 136.296875 276.152344 137.726562 277.640625 C 133.074219 276.035156 128.613281 273.941406 124.582031 271.425781 C 123.226562 270.410156 121.882812 269.386719 120.554688 268.300781 Z M 248.925781 268.300781 C 247.566406 269.398438 246.183594 270.46875 244.78125 271.496094 C 240.765625 274.011719 236.304688 276.078125 231.683594 277.671875 C 233.097656 276.210938 234.238281 274.664062 235.105469 273.074219 C 241.183594 270.746094 247.191406 267.722656 252.753906 263.949219 C 251.683594 265.4375 250.398438 266.898438 248.925781 268.300781 Z M 266.933594 249.402344 C 266.863281 249.429688 266.789062 249.488281 266.730469 249.5625 C 263.726562 253.421875 260.21875 256.820312 256.433594 259.84375 C 257.546875 257.28125 258.125 254.664062 258.140625 252.019531 C 263.597656 247.21875 268.78125 241.609375 273.347656 235.132812 C 273.144531 237.804688 272.421875 240.4375 271.253906 243.027344 C 269.894531 245.195312 268.464844 247.320312 266.933594 249.402344 Z M 273.996094 238.355469 C 274.355469 236.738281 274.546875 235.074219 274.546875 233.410156 C 276.105469 231.066406 277.578125 228.640625 278.964844 226.066406 C 278.847656 227.222656 278.644531 228.363281 278.359375 229.519531 C 277.042969 232.527344 275.597656 235.492188 273.996094 238.355469 Z M 277.835938 147.234375 C 275.945312 144.773438 273.664062 142.417969 271.078125 140.164062 C 270.183594 137.371094 269.128906 134.625 267.917969 131.949219 C 269.78125 133.742188 271.441406 135.59375 272.855469 137.53125 C 274.703125 140.667969 276.351562 143.921875 277.835938 147.234375 Z M 246.585938 111.433594 C 241.472656 109.015625 235.839844 106.921875 229.804688 105.1875 C 227.839844 101.367188 225.5 98.070312 222.773438 95.265625 C 226.785156 96.511719 230.585938 97.96875 234.109375 99.605469 C 235.480469 100.371094 236.839844 101.152344 238.179688 101.992188 C 241.359375 104.59375 244.175781 107.757812 246.585938 111.433594 Z M 200.171875 88.023438 C 200.820312 88.542969 201.425781 89.136719 202.019531 89.832031 C 196.605469 89.179688 191.015625 88.832031 185.296875 88.804688 L 185.296875 86.878906 C 190.320312 86.894531 195.289062 87.285156 200.171875 88.023438 Z M 184.167969 86.867188 L 184.167969 88.804688 C 178.480469 88.832031 172.875 89.195312 167.460938 89.84375 C 168.039062 89.152344 168.660156 88.542969 169.308594 88.023438 C 174.160156 87.285156 179.128906 86.894531 184.167969 86.867188 Z M 96.695312 137.472656 C 98.097656 135.578125 99.714844 133.742188 101.550781 131.992188 C 100.320312 134.695312 99.265625 137.472656 98.371094 140.308594 C 95.742188 142.578125 93.476562 144.976562 91.585938 147.4375 C 93.117188 144.007812 94.820312 140.683594 96.695312 137.472656 Z M 82.789062 187.023438 C 82.976562 184.175781 83.640625 181.386719 84.769531 178.667969 C 85.144531 185.363281 86.285156 192.042969 88.117188 198.621094 C 86.242188 202.078125 85.128906 205.632812 84.78125 209.292969 C 83.453125 202.671875 82.761719 195.859375 82.761719 188.964844 C 82.761719 188.3125 82.773438 187.660156 82.789062 187.023438 Z M 81.027344 188.71875 C 81.027344 188.789062 81.042969 188.847656 81.070312 188.917969 C 81.070312 188.933594 81.054688 188.949219 81.054688 188.964844 C 81.054688 216.679688 91.84375 242.75 111.425781 262.359375 C 131.011719 281.964844 157.035156 292.75 184.734375 292.75 C 241.863281 292.75 288.351562 246.234375 288.410156 189.050781 C 288.453125 188.949219 288.480469 188.832031 288.480469 188.71875 C 288.480469 187.804688 288.421875 186.910156 288.335938 186.011719 C 287.601562 159.394531 276.929688 134.464844 258.039062 115.566406 C 238.457031 95.960938 212.433594 85.160156 184.734375 85.160156 C 157.046875 85.160156 131.011719 95.960938 111.425781 115.566406 C 92.421875 134.597656 81.734375 159.699219 81.128906 186.519531 C 81.054688 187.257812 81.027344 187.980469 81.027344 188.71875 " fill-opacity="1" fill-rule="nonzero"/><g clip-path="url(#859ed16279)"><path fill="#ffffff" d="M 294.488281 209.175781 C 292.914062 209.308594 291.902344 210.363281 292.222656 211.519531 C 292.539062 212.691406 294.070312 213.527344 295.644531 213.398438 C 306.648438 212.472656 315.488281 210.8125 321.566406 208.441406 C 328.023438 205.921875 331.558594 202.570312 331.558594 198.390625 C 331.558594 189.714844 315.039062 179.652344 288.351562 170.410156 C 262.585938 161.492188 227.046875 153.046875 187.835938 147.21875 C 168.023438 144.285156 149.191406 142.289062 132.078125 141.1875 C 107.296875 139.597656 86.066406 139.917969 70.746094 142 C 54.484375 144.210938 44.5625 148.5625 43.539062 154.953125 C 43.480469 155.332031 43.449219 155.707031 43.449219 156.066406 C 43.449219 159.667969 46.136719 163.429688 51.105469 167.230469 C 55.886719 170.859375 62.847656 174.605469 71.597656 178.304688 C 73.042969 178.914062 74.789062 178.609375 75.496094 177.597656 C 76.203125 176.601562 75.613281 175.300781 74.167969 174.675781 C 65.949219 171.207031 59.464844 167.738281 55.148438 164.441406 C 51.335938 161.535156 49.269531 158.828125 49.269531 156.445312 C 49.269531 156.210938 49.300781 155.996094 49.328125 155.808594 C 50.050781 151.3125 58.414062 148.058594 72.261719 146.179688 C 87.050781 144.152344 107.757812 143.878906 132.078125 145.425781 C 149.003906 146.511719 167.632812 148.492188 187.171875 151.398438 C 225.90625 157.136719 260.941406 165.453125 286.257812 174.214844 C 310.632812 182.660156 325.726562 191.261719 325.726562 198.015625 C 325.726562 200.601562 323.167969 202.828125 318.492188 204.652344 C 312.988281 206.792969 304.800781 208.308594 294.488281 209.175781 " fill-opacity="1" fill-rule="nonzero"/></g><g clip-path="url(#0e81b0826e)"><path fill="#ffffff" d="M 291.789062 82.789062 L 291.933594 82.789062 C 292.914062 95.730469 303.226562 106.066406 316.152344 107.035156 L 316.152344 107.195312 C 303.226562 108.164062 292.914062 118.503906 291.933594 131.445312 L 291.789062 131.445312 C 290.804688 118.503906 280.496094 108.164062 267.570312 107.195312 L 267.570312 107.035156 C 280.496094 106.066406 290.804688 95.730469 291.789062 82.789062 " fill-opacity="1" fill-rule="evenodd"/></g><path fill="#ffffff" d="M 316.542969 127.4375 L 316.613281 127.4375 C 317.019531 132.949219 321.40625 137.34375 326.894531 137.75 L 326.894531 137.820312 C 321.40625 138.226562 317.019531 142.621094 316.613281 148.117188 L 316.542969 148.117188 C 316.136719 142.621094 311.746094 138.226562 306.246094 137.820312 L 306.246094 137.75 C 311.746094 137.34375 316.136719 132.949219 316.542969 127.4375 " fill-opacity="1" fill-rule="evenodd"/><path stroke-linecap="butt" transform="matrix(0.73475, -0.150472, 0.150472, 0.73475, 9.76211, 165.780575)" fill="none" stroke-linejoin="miter" d="M 12.819596 54.998447 L 44.791958 55.001641 C 45.573365 55.002174 46.189325 54.330854 46.189859 53.549448 L 46.189182 41.27367 C 46.188671 40.497367 45.575567 39.882696 44.794161 39.882162 L 19.600132 39.879536 C 18.807476 39.882015 18.194373 39.267344 18.194906 38.485937 L 18.193874 26.731097 C 18.196497 25.939486 18.811168 25.326382 19.603824 25.323904 L 44.792751 25.325485 C 45.574157 25.326018 46.190117 24.654698 46.190651 23.873292 L 46.18684 11.612821 C 46.189463 10.82121 45.571257 10.205494 44.794953 10.206006 L 12.822591 10.202812 C 6.218908 10.206113 1.394917 15.018419 1.396128 21.632307 L 1.395203 43.573029 C 1.396414 50.186917 6.221015 55.002793 12.819596 54.998447 Z M 12.819596 54.998447 " stroke="#231f20" stroke-width="6.719892" stroke-opacity="1" stroke-miterlimit="4"/><path stroke-linecap="butt" transform="matrix(0.740426, -0.119454, 0.119454, 0.740426, 45.78489, 158.49292)" fill="none" stroke-linejoin="miter" d="M 12.709714 55.00147 L 26.653832 54.998374 C 27.434735 54.997742 28.050624 54.384887 28.049991 53.603985 L 28.051089 38.489343 C 28.047804 37.692185 28.663693 37.079331 29.444595 37.078698 L 36.50871 37.078813 C 37.236535 37.080169 37.90749 36.518403 37.902875 35.794891 L 37.906812 11.833393 C 37.903533 10.872691 37.34608 10.207707 36.444426 10.204686 L 22.511421 10.204298 C 21.720235 10.203272 21.103517 10.821268 21.105644 11.560206 L 21.103872 22.754911 C 21.103339 23.641139 20.437526 24.203734 19.656624 24.204366 C 18.865437 24.203339 18.196352 23.641687 18.191743 22.754629 L 18.193514 11.559925 C 18.191387 10.820987 17.578533 10.205098 16.79763 10.20573 L 2.859484 10.204513 C 1.957001 10.206633 1.395348 10.875719 1.394315 11.83045 L 1.395519 35.792777 C 1.394163 36.520602 2.079504 37.079601 2.802187 37.080128 L 9.856019 37.078583 C 10.636921 37.077951 11.249776 37.69384 11.248749 38.485026 L 11.251963 53.60564 C 11.247454 54.385713 11.918528 55.000443 12.709714 55.00147 Z M 12.709714 55.00147 " stroke="#231f20" stroke-width="6.719892" stroke-opacity="1" stroke-miterlimit="4"/><path stroke-linecap="butt" transform="matrix(0.744798, -0.0881841, 0.0881841, 0.744798, 75.93036, 153.584755)" fill="none" stroke-linejoin="miter" d="M 2.801825 54.99897 L 37.180851 54.999552 C 42.441448 54.998287 46.297647 51.133217 46.296994 45.867448 L 46.29639 39.715328 C 46.299452 36.411521 43.894128 34.002622 40.600054 34.005957 L 40.091613 34.003449 C 39.299587 34.004078 38.685104 33.391118 38.683251 32.609436 C 38.682622 31.81741 39.300754 31.203539 40.092781 31.20291 L 40.596661 31.199633 C 43.890123 31.201471 46.299023 28.796147 46.297525 25.486556 L 46.296922 19.334436 C 46.300828 14.074451 42.442768 10.203348 37.182171 10.204613 L 2.803145 10.204031 C 2.011119 10.20466 1.392986 10.81853 1.393615 11.610556 L 1.393462 53.604957 C 1.395316 54.386639 2.009799 54.999599 2.801825 54.99897 Z M 19.599697 26.169905 C 18.807671 26.170534 18.193188 25.557574 18.192559 24.765547 C 18.195878 23.984478 18.808838 23.369995 19.600864 23.369366 L 27.992748 23.366471 C 28.773818 23.369789 29.3883 23.982749 29.390154 24.764431 C 29.390783 25.556457 28.77265 26.170328 27.996141 26.172794 Z M 19.60145 41.836071 C 18.809424 41.8367 18.194941 41.223739 18.193087 40.442058 C 18.196406 39.660988 18.809366 39.046505 19.601392 39.045877 L 27.992664 39.048153 C 28.774346 39.046299 29.388216 39.664432 29.390682 40.440941 C 29.387364 41.222011 28.774403 41.836494 27.992722 41.838347 Z M 19.60145 41.836071 " stroke="#231f20" stroke-width="6.719892" stroke-opacity="1" stroke-miterlimit="4"/><path stroke-linecap="butt" transform="matrix(0.748072, -0.0537389, 0.0537389, 0.748072, 112.619661, 149.268506)" fill="none" stroke-linejoin="miter" d="M 2.854976 54.998337 L 44.848065 55.002019 C 45.626217 55.00048 46.244683 54.386967 46.243516 53.60362 L 46.245982 42.956639 C 46.244442 42.178487 45.573412 41.561111 44.795259 41.56265 L 19.600146 41.564672 C 18.806409 41.565092 18.192897 40.946626 18.196552 40.168847 C 18.196132 39.37511 18.809403 38.761224 19.60314 38.760804 L 42.610001 38.763461 C 43.388153 38.761922 44.001424 38.148036 44.000258 37.364689 L 44.000412 27.840219 C 44.004067 27.06244 43.333037 26.445064 42.554885 26.446603 L 19.600346 26.442483 C 18.811804 26.443277 18.192723 25.829633 18.196378 25.051854 C 18.195958 24.258117 18.809229 23.644231 19.602966 23.643811 L 44.850402 23.640327 C 45.628181 23.643982 46.241824 23.024901 46.24548 22.247122 L 46.241631 11.615353 C 46.241211 10.821616 45.627698 10.20315 44.849546 10.20469 L 2.803761 10.207665 C 2.010397 10.20289 1.396753 10.821971 1.391978 11.615335 L 1.393864 53.603602 C 1.39503 54.386949 2.076824 54.999877 2.854976 54.998337 Z M 2.854976 54.998337 " stroke="#231f20" stroke-width="6.719892" stroke-opacity="1" stroke-miterlimit="4"/><path stroke-linecap="butt" transform="matrix(0.749754, -0.0192199, 0.0192199, 0.749754, 149.425718, 146.651592)" fill="none" stroke-linejoin="miter" d="M 2.799822 55.002279 L 16.799229 55.00166 C 17.580756 55.000854 18.191929 54.328795 18.196197 53.552608 L 18.19358 40.444068 C 18.192774 39.662541 18.807686 39.047888 19.599627 39.04735 L 27.992969 39.0489 C 28.774497 39.048095 29.389149 39.663006 29.389955 40.444534 L 29.391237 53.60514 C 29.386836 54.386534 30.006695 55.001579 30.798635 55.00104 L 44.792835 55.000287 C 45.574363 54.999481 46.190609 54.332763 46.189803 53.551236 L 46.190119 39.718574 C 46.191568 36.410233 43.78369 34.003987 40.475349 34.002539 L 39.985526 34.005612 C 39.188378 34.006018 38.573726 33.391106 38.57292 32.609579 C 38.577588 31.817771 39.1925 31.203119 39.984441 31.20258 L 40.474264 31.199507 C 43.782605 31.200955 46.188717 28.798284 46.190166 25.489943 L 46.191597 19.336917 C 46.191031 14.074757 42.335837 10.203857 37.073677 10.204423 L 2.801952 10.206368 C 2.010011 10.206907 1.395099 10.821559 1.395638 11.6135 L 1.392424 53.606379 C 1.393363 54.3827 2.008015 54.997612 2.799822 55.002279 Z M 19.601417 26.173375 C 18.80961 26.168707 18.194958 25.553795 18.194419 24.761854 C 18.19348 23.985534 18.808391 23.370881 19.600332 23.370343 L 27.993808 23.366687 C 28.775202 23.371088 29.389854 23.985999 29.390793 24.76232 C 29.391332 25.554261 28.776421 26.168913 27.994893 26.169719 Z M 19.601417 26.173375 " stroke="#231f20" stroke-width="6.719892" stroke-opacity="1" stroke-miterlimit="4"/><path stroke-linecap="butt" transform="matrix(0.749844, 0.0153196, -0.0153196, 0.749844, 186.270578, 145.733779)" fill="none" stroke-linejoin="miter" d="M 12.822643 55.000352 L 44.792814 54.998366 C 45.57422 54.998029 46.190893 54.329044 46.190663 53.552845 L 46.189858 41.274258 C 46.189628 40.498059 45.572715 39.880323 44.796516 39.880552 L 19.603739 39.879519 C 18.806711 39.880174 18.195111 39.267539 18.194775 38.486133 L 18.194301 26.733691 C 18.193645 25.936663 18.811488 25.324957 19.603308 25.324408 L 44.796086 25.325441 C 45.572285 25.325211 46.188957 24.656225 46.188621 23.874819 L 46.188135 11.611854 C 46.187586 10.820033 45.575987 10.207398 44.79458 10.207734 L 12.824303 10.204514 C 6.218748 10.204023 1.394179 15.017116 1.393901 21.633086 L 1.394071 43.569951 C 1.393793 50.18592 6.217088 54.999862 12.822643 55.000352 Z M 12.822643 55.000352 " stroke="#231f20" stroke-width="6.719892" stroke-opacity="1" stroke-miterlimit="4"/><path stroke-linecap="butt" transform="matrix(0.748539, 0.0467851, -0.0467851, 0.748539, 223.012197, 146.572608)" fill="none" stroke-linejoin="miter" d="M 2.857628 54.998713 L 16.80145 54.998688 C 17.579229 55.00226 18.19294 54.384649 18.196512 53.60687 L 18.192916 41.275786 C 18.196488 40.498007 18.810199 39.880396 19.603572 39.882993 C 20.381027 39.881368 20.997014 40.552583 20.994416 41.345957 L 20.998662 53.603941 C 20.995414 54.386918 21.665332 55.002578 22.442787 55.000952 L 36.386609 55.000927 C 37.179658 54.998326 37.793693 54.385913 37.797266 53.608134 L 37.797514 11.614873 C 37.794914 10.821824 37.124996 10.206165 36.331622 10.203567 L 22.392998 10.203267 C 21.610345 10.205218 20.996635 10.822829 20.993712 11.611005 L 20.996659 23.931692 C 20.998284 24.709147 20.379051 25.321885 19.601597 25.32351 C 18.808548 25.326111 18.19581 24.706878 18.194184 23.929423 L 18.191562 11.613934 C 18.19416 10.82056 17.524242 10.204901 16.746788 10.206527 L 2.802965 10.206552 C 2.009591 10.203954 1.395881 10.821565 1.393284 11.614939 L 1.393035 53.6082 C 1.394661 54.385654 2.080173 55.000339 2.857628 54.998713 Z M 2.857628 54.998713 " stroke="#231f20" stroke-width="6.719892" stroke-opacity="1" stroke-miterlimit="4"/><path stroke-linecap="butt" transform="matrix(0.746227, 0.0751361, -0.0751361, 0.746227, 253.302614, 148.483819)" fill="none" stroke-linejoin="miter" d="M 2.855417 55.001806 L 16.800452 55.000599 C 17.580416 55.000586 18.193602 54.38397 18.193589 53.604006 L 18.193945 45.757202 C 18.194454 44.98242 18.80764 44.365805 19.603151 44.364226 C 20.383115 44.364213 20.995106 45.035447 20.995119 45.815411 L 20.994206 53.60469 C 20.994219 54.384654 21.668359 54.997283 22.443141 54.997792 L 36.388698 55.001767 C 37.179027 55.00071 37.797395 54.383573 37.797382 53.603609 L 37.797369 21.630256 C 37.796494 15.018958 32.982831 10.206152 26.366351 10.207549 L 12.823993 10.204854 C 6.217877 10.205208 1.394185 15.014732 1.395582 21.631212 L 1.395595 53.604565 C 1.395608 54.384529 2.075452 55.001819 2.855417 55.001806 Z M 19.600735 30.927076 C 18.810407 30.928133 18.193791 30.314946 18.192213 29.519436 L 18.192277 25.049022 C 18.196403 24.258172 18.809589 23.641557 19.599918 23.6405 C 20.379882 23.640487 20.997019 24.258856 20.998076 25.049184 L 20.998011 29.519597 C 20.994408 30.31563 20.380699 30.927063 19.600735 30.927076 Z M 19.600735 30.927076 " stroke="#231f20" stroke-width="6.719892" stroke-opacity="1" stroke-miterlimit="4"/><path stroke-linecap="butt" transform="matrix(0.742415, 0.106397, -0.106397, 0.742415, 283.609409, 151.491552)" fill="none" stroke-linejoin="miter" d="M 2.804407 54.997782 L 34.773742 54.998998 C 41.37709 54.999737 46.191375 50.19 46.189897 43.571185 L 46.187106 37.310344 C 46.191523 30.695946 41.376631 25.8824 34.774022 25.886817 L 19.604367 25.882531 C 18.810347 25.885831 18.195772 25.26886 18.194689 24.490306 C 18.191389 23.696285 18.80836 23.081711 19.603119 23.083567 L 44.795276 23.082648 C 45.573829 23.081564 46.190801 22.46699 46.189717 21.688436 L 46.187435 11.612901 C 46.189291 10.818141 45.575455 10.206325 44.796902 10.207409 L 12.822411 10.206932 C 6.219063 10.206193 1.394467 15.017407 1.395206 21.631066 L 1.395058 27.908113 C 1.394319 34.511461 6.219522 39.323529 12.822131 39.319113 L 27.996941 39.32266 C 28.775495 39.321576 29.390069 39.938547 29.387475 40.728151 C 29.388559 41.506705 28.771587 42.121279 27.993034 42.122363 L 2.800877 42.123281 C 2.011273 42.120687 1.395041 42.740417 1.396124 43.518971 L 1.394728 53.605557 C 1.395812 54.38411 2.010386 55.001082 2.804407 54.997782 Z M 2.804407 54.997782 " stroke="#231f20" stroke-width="6.719892" stroke-opacity="1" stroke-miterlimit="4"/><path stroke-linecap="butt" transform="matrix(0.736725, 0.140485, -0.140485, 0.736725, 320.089963, 156.745771)" fill="none" stroke-linejoin="miter" d="M 2.858099 55.001087 L 44.851128 54.999774 C 45.630519 54.999614 46.244841 54.384064 46.244681 53.604674 L 46.245175 42.957799 C 46.245015 42.178408 45.576353 41.563609 44.796962 41.563769 L 19.601145 41.564558 C 18.810547 41.561553 18.194997 40.94723 18.194837 40.16784 C 18.192726 39.378217 18.807048 38.762668 19.601787 38.759581 L 42.60854 38.762653 C 43.38793 38.762493 44.002253 38.146944 44.002092 37.367553 L 44.003791 27.839209 C 44.00363 27.059819 43.329852 26.445995 42.555578 26.44518 L 19.601938 26.442584 C 18.807199 26.445671 18.196766 25.830373 18.196606 25.050982 C 18.193519 24.256244 18.807842 23.640694 19.603556 23.642723 L 44.84737 23.643387 C 45.62676 23.643227 46.246199 23.026702 46.246039 22.247312 L 46.243368 11.611644 C 46.246373 10.821046 45.630823 10.206724 44.851433 10.206884 L 2.804315 10.202605 C 2.009577 10.205692 1.395254 10.821241 1.392249 11.611839 L 1.393563 53.604869 C 1.393723 54.384259 2.078709 55.001247 2.858099 55.001087 Z M 2.858099 55.001087 " stroke="#231f20" stroke-width="6.719892" stroke-opacity="1" stroke-miterlimit="4"/><g fill="#ffffff" fill-opacity="1"><g transform="translate(18.038061, 206.191848)"><g><path d="M 9.421875 -1.929688 L 32.910156 -6.738281 C 33.488281 -6.859375 33.839844 -7.445312 33.71875 -8.019531 L 31.875 -17.03125 C 31.757812 -17.605469 31.210938 -17.964844 30.636719 -17.847656 L 12.125 -14.054688 C 11.546875 -13.9375 11.003906 -14.296875 10.882812 -14.875 L 9.117188 -23.511719 C 8.996094 -24.089844 9.355469 -24.632812 9.933594 -24.753906 L 28.445312 -28.542969 C 29.023438 -28.660156 29.375 -29.246094 29.253906 -29.824219 L 27.410156 -38.832031 C 27.292969 -39.410156 26.746094 -39.769531 26.171875 -39.652344 L 2.679688 -34.839844 C -2.171875 -33.847656 -4.988281 -29.582031 -3.992188 -24.730469 L -0.691406 -8.601562 C 0.304688 -3.75 4.566406 -0.933594 9.421875 -1.929688 Z M 9.421875 -1.929688 "/></g></g></g><g fill="#ffffff" fill-opacity="1"><g transform="translate(52.354846, 199.216353)"><g><path d="M 9.410156 -1.519531 L 19.734375 -3.183594 C 20.3125 -3.277344 20.695312 -3.808594 20.601562 -4.386719 L 18.796875 -15.582031 C 18.703125 -16.160156 19.085938 -16.691406 19.664062 -16.785156 L 24.890625 -17.625 C 25.429688 -17.714844 25.859375 -18.207031 25.773438 -18.746094 L 22.910156 -36.492188 C 22.796875 -37.195312 22.300781 -37.625 21.636719 -37.519531 L 11.316406 -35.855469 C 10.734375 -35.761719 10.351562 -35.230469 10.4375 -34.691406 L 11.777344 -26.398438 C 11.882812 -25.738281 11.453125 -25.242188 10.871094 -25.148438 C 10.292969 -25.054688 9.726562 -25.390625 9.621094 -26.050781 L 8.285156 -34.34375 C 8.195312 -34.882812 7.667969 -35.265625 7.085938 -35.171875 L -3.234375 -33.507812 C -3.898438 -33.398438 -4.234375 -32.835938 -4.121094 -32.128906 L -1.257812 -14.386719 C -1.171875 -13.847656 -0.605469 -13.511719 -0.0664062 -13.601562 L 5.15625 -14.441406 C 5.738281 -14.535156 6.265625 -14.15625 6.359375 -13.574219 L 8.164062 -2.378906 C 8.257812 -1.800781 8.832031 -1.425781 9.410156 -1.519531 Z M 9.410156 -1.519531 "/></g></g></g><g fill="#ffffff" fill-opacity="1"><g transform="translate(80.780486, 194.548625)"><g><path d="M 2.085938 -0.246094 L 27.691406 -3.277344 C 31.609375 -3.742188 34.144531 -6.960938 33.683594 -10.878906 L 33.140625 -15.46875 C 32.847656 -17.929688 30.84375 -19.507812 28.382812 -19.21875 L 28.007812 -19.171875 C 27.421875 -19.105469 26.910156 -19.507812 26.839844 -20.09375 C 26.769531 -20.675781 27.175781 -21.1875 27.757812 -21.257812 L 28.136719 -21.300781 C 30.59375 -21.59375 32.175781 -23.597656 31.886719 -26.058594 L 31.339844 -30.648438 C 30.878906 -34.566406 27.660156 -37.105469 23.738281 -36.640625 L -1.863281 -33.609375 C -2.449219 -33.539062 -2.851562 -33.027344 -2.785156 -32.441406 L 0.917969 -1.164062 C 0.988281 -0.582031 1.5 -0.179688 2.085938 -0.246094 Z M 12.050781 -23.203125 C 11.46875 -23.136719 10.957031 -23.539062 10.886719 -24.125 C 10.816406 -24.707031 11.222656 -25.21875 11.804688 -25.289062 L 18.0625 -26.03125 C 18.644531 -26.097656 19.15625 -25.695312 19.226562 -25.109375 C 19.296875 -24.527344 18.890625 -24.015625 18.308594 -23.945312 Z M 13.433594 -11.527344 C 12.851562 -11.457031 12.339844 -11.863281 12.269531 -12.445312 C 12.199219 -13.03125 12.605469 -13.542969 13.1875 -13.613281 L 19.445312 -14.355469 C 20.027344 -14.421875 20.539062 -14.019531 20.609375 -13.433594 C 20.679688 -12.851562 20.273438 -12.335938 19.691406 -12.269531 Z M 13.433594 -11.527344 "/></g></g></g><g fill="#ffffff" fill-opacity="1"><g transform="translate(115.575299, 190.41248)"><g><path d="M 2.136719 -0.152344 L 33.550781 -2.410156 C 34.136719 -2.453125 34.5625 -2.945312 34.519531 -3.53125 L 33.949219 -11.492188 C 33.90625 -12.078125 33.371094 -12.5 32.785156 -12.460938 L 13.9375 -11.105469 C 13.351562 -11.0625 12.855469 -11.492188 12.816406 -12.078125 C 12.773438 -12.664062 13.199219 -13.15625 13.785156 -13.199219 L 31 -14.4375 C 31.589844 -14.476562 32.015625 -14.972656 31.972656 -15.558594 L 31.460938 -22.679688 C 31.417969 -23.265625 30.882812 -23.691406 30.296875 -23.648438 L 13.125 -22.414062 C 12.539062 -22.371094 12.042969 -22.800781 12.003906 -23.386719 C 11.960938 -23.972656 12.386719 -24.464844 12.976562 -24.507812 L 31.863281 -25.867188 C 32.449219 -25.90625 32.878906 -26.402344 32.835938 -26.988281 L 32.265625 -34.945312 C 32.222656 -35.53125 31.730469 -35.960938 31.140625 -35.917969 L -0.3125 -33.65625 C -0.898438 -33.617188 -1.328125 -33.121094 -1.285156 -32.535156 L 0.972656 -1.121094 C 1.015625 -0.535156 1.550781 -0.109375 2.136719 -0.152344 Z M 2.136719 -0.152344 "/></g></g></g><g fill="#ffffff" fill-opacity="1"><g transform="translate(150.482811, 187.888041)"><g><path d="M 2.097656 -0.0546875 L 12.59375 -0.324219 C 13.179688 -0.339844 13.628906 -0.851562 13.613281 -1.441406 L 13.363281 -11.265625 C 13.347656 -11.851562 13.796875 -12.324219 14.386719 -12.339844 L 20.683594 -12.503906 C 21.269531 -12.515625 21.742188 -12.066406 21.757812 -11.480469 L 22.011719 -1.613281 C 22.027344 -1.027344 22.5 -0.578125 23.089844 -0.59375 L 33.582031 -0.859375 C 34.171875 -0.875 34.621094 -1.390625 34.605469 -1.980469 L 34.339844 -12.347656 C 34.273438 -14.824219 32.421875 -16.582031 29.945312 -16.519531 L 29.570312 -16.511719 C 28.980469 -16.496094 28.507812 -16.945312 28.492188 -17.53125 C 28.476562 -18.121094 28.929688 -18.59375 29.515625 -18.609375 L 29.894531 -18.617188 C 32.371094 -18.683594 34.128906 -20.535156 34.066406 -23.011719 L 33.945312 -27.628906 C 33.847656 -31.574219 30.875 -34.398438 26.929688 -34.296875 L 1.238281 -33.636719 C 0.648438 -33.621094 0.199219 -33.148438 0.214844 -32.558594 L 1.023438 -1.078125 C 1.039062 -0.488281 1.511719 -0.0390625 2.097656 -0.0546875 Z M 14.136719 -21.996094 C 13.550781 -21.980469 13.078125 -22.429688 13.0625 -23.019531 C 13.046875 -23.605469 13.496094 -24.078125 14.085938 -24.09375 L 20.382812 -24.257812 C 20.96875 -24.269531 21.441406 -23.820312 21.457031 -23.234375 C 21.472656 -22.644531 21.023438 -22.171875 20.433594 -22.15625 Z M 14.136719 -21.996094 "/></g></g></g><g fill="#ffffff" fill-opacity="1"><g transform="translate(185.427999, 186.975173)"><g><path d="M 9.613281 0.195312 L 33.585938 0.6875 C 34.175781 0.699219 34.648438 0.203125 34.660156 -0.382812 L 34.847656 -9.578125 C 34.859375 -10.167969 34.40625 -10.636719 33.820312 -10.648438 L 14.925781 -11.035156 C 14.339844 -11.046875 13.886719 -11.519531 13.898438 -12.105469 L 14.078125 -20.921875 C 14.089844 -21.511719 14.5625 -21.964844 15.148438 -21.953125 L 34.042969 -21.566406 C 34.628906 -21.554688 35.101562 -22.046875 35.113281 -22.636719 L 35.300781 -31.828125 C 35.3125 -32.417969 34.859375 -32.890625 34.273438 -32.902344 L 10.300781 -33.390625 C 5.347656 -33.492188 1.660156 -29.953125 1.5625 -25 L 1.222656 -8.542969 C 1.125 -3.589844 4.660156 0.09375 9.613281 0.195312 Z M 9.613281 0.195312 "/></g></g></g><g fill="#ffffff" fill-opacity="1"><g transform="translate(220.439018, 187.742269)"><g><path d="M 2.136719 0.132812 L 12.574219 0.785156 C 13.160156 0.824219 13.648438 0.390625 13.6875 -0.195312 L 14.261719 -9.417969 C 14.300781 -10.003906 14.789062 -10.4375 15.375 -10.398438 C 15.960938 -10.363281 16.390625 -9.832031 16.355469 -9.242188 L 15.78125 -0.0664062 C 15.746094 0.519531 16.21875 1.015625 16.804688 1.050781 L 27.242188 1.703125 C 27.828125 1.738281 28.320312 1.308594 28.355469 0.71875 L 30.320312 -30.710938 C 30.355469 -31.300781 29.882812 -31.792969 29.296875 -31.828125 L 18.859375 -32.480469 C 18.273438 -32.515625 17.785156 -32.085938 17.746094 -31.5 L 17.171875 -22.277344 C 17.132812 -21.691406 16.644531 -21.257812 16.058594 -21.296875 C 15.46875 -21.332031 15.039062 -21.824219 15.074219 -22.410156 L 15.652344 -31.628906 C 15.6875 -32.214844 15.214844 -32.707031 14.625 -32.746094 L 4.191406 -33.398438 C 3.605469 -33.433594 3.113281 -33.003906 3.078125 -32.414062 L 1.113281 -0.980469 C 1.078125 -0.394531 1.550781 0.0976562 2.136719 0.132812 Z M 2.136719 0.132812 "/></g></g></g><g fill="#ffffff" fill-opacity="1"><g transform="translate(249.170128, 189.526295)"><g><path d="M 2.128906 0.214844 L 12.535156 1.261719 C 13.121094 1.320312 13.625 0.90625 13.683594 0.324219 L 14.273438 -5.527344 C 14.332031 -6.113281 14.835938 -6.523438 15.421875 -6.464844 C 16.007812 -6.40625 16.417969 -5.859375 16.359375 -5.273438 L 15.773438 0.53125 C 15.714844 1.117188 16.167969 1.628906 16.753906 1.6875 L 27.15625 2.734375 C 27.742188 2.792969 28.25 2.378906 28.308594 1.796875 L 30.710938 -22.0625 C 31.207031 -26.992188 27.976562 -30.945312 23.042969 -31.445312 L 12.933594 -32.460938 C 8.003906 -32.957031 4.046875 -29.726562 3.550781 -24.796875 L 1.148438 -0.9375 C 1.089844 -0.355469 1.546875 0.15625 2.128906 0.214844 Z M 16.433594 -16.492188 C 15.847656 -16.550781 15.433594 -17.058594 15.492188 -17.644531 L 15.828125 -20.984375 C 15.886719 -21.570312 16.394531 -21.984375 16.980469 -21.925781 C 17.5625 -21.867188 17.976562 -21.359375 17.917969 -20.773438 L 17.582031 -17.433594 C 17.523438 -16.847656 17.015625 -16.433594 16.433594 -16.492188 Z M 16.433594 -16.492188 "/></g></g></g><g fill="#ffffff" fill-opacity="1"><g transform="translate(277.757575, 192.32436)"><g><path d="M 2.078125 0.296875 L 25.8125 3.699219 C 30.71875 4.402344 34.804688 1.339844 35.507812 -3.566406 L 36.175781 -8.222656 C 36.878906 -13.125 33.816406 -17.214844 28.910156 -17.914062 L 17.644531 -19.53125 C 17.066406 -19.613281 16.671875 -20.136719 16.757812 -20.71875 C 16.839844 -21.300781 17.363281 -21.691406 17.945312 -21.609375 L 36.648438 -18.929688 C 37.230469 -18.84375 37.753906 -19.234375 37.839844 -19.816406 L 38.910156 -27.300781 C 38.992188 -27.882812 38.601562 -28.40625 38.019531 -28.488281 L 14.285156 -31.890625 C 9.378906 -32.59375 5.292969 -29.53125 4.589844 -24.625 L 3.921875 -19.96875 C 3.21875 -15.066406 6.28125 -10.976562 11.1875 -10.273438 L 22.453125 -8.660156 C 23.035156 -8.578125 23.425781 -8.054688 23.34375 -7.472656 C 23.257812 -6.890625 22.734375 -6.5 22.152344 -6.582031 L 3.449219 -9.261719 C 2.867188 -9.347656 2.34375 -8.953125 2.261719 -8.371094 L 1.1875 -0.890625 C 1.105469 -0.308594 1.496094 0.214844 2.078125 0.296875 Z M 2.078125 0.296875 "/></g></g></g><g fill="#ffffff" fill-opacity="1"><g transform="translate(312.36327, 197.265647)"><g><path d="M 2.105469 0.402344 L 33.039062 6.300781 C 33.617188 6.410156 34.160156 6.042969 34.269531 5.464844 L 35.761719 -2.371094 C 35.875 -2.949219 35.464844 -3.496094 34.886719 -3.605469 L 16.324219 -7.148438 C 15.746094 -7.257812 15.378906 -7.796875 15.492188 -8.375 C 15.601562 -8.953125 16.140625 -9.320312 16.71875 -9.210938 L 33.671875 -5.976562 C 34.25 -5.867188 34.789062 -6.234375 34.898438 -6.8125 L 36.238281 -13.824219 C 36.347656 -14.402344 35.9375 -14.949219 35.359375 -15.058594 L 18.449219 -18.285156 C 17.871094 -18.394531 17.503906 -18.933594 17.613281 -19.511719 C 17.722656 -20.089844 18.265625 -20.457031 18.84375 -20.347656 L 37.445312 -16.800781 C 38.023438 -16.6875 38.5625 -17.054688 38.671875 -17.632812 L 40.167969 -25.472656 C 40.277344 -26.046875 39.910156 -26.589844 39.332031 -26.699219 L 8.355469 -32.605469 C 7.777344 -32.714844 7.238281 -32.347656 7.128906 -31.773438 L 1.226562 -0.835938 C 1.117188 -0.257812 1.527344 0.292969 2.105469 0.402344 Z M 2.105469 0.402344 "/></g></g></g><g fill="#ffffff" fill-opacity="1"><g transform="translate(346.957403, 204.047259)"><g/></g></g><path stroke-linecap="butt" transform="matrix(0.744388, -0.0915813, 0.0915813, 0.744388, 93.336766, 194.599674)" fill="none" stroke-linejoin="miter" d="M 13.945478 20.997928 L 7.086734 20.998967 L 7.08353 8.698192 L 0.681516 8.697698 L 0.685938 4.652341 L 20.343541 4.651654 L 20.344289 8.697647 L 13.942274 8.697153 Z M 13.945478 20.997928 " stroke="#231f20" stroke-width="2.800008" stroke-opacity="1" stroke-miterlimit="4"/><path stroke-linecap="butt" transform="matrix(0.746327, -0.0741336, 0.0741336, 0.746327, 109.233353, 192.640768)" fill="none" stroke-linejoin="miter" d="M 21.504982 20.999134 L 1.825008 21.001802 L 1.821435 4.65054 L 20.605879 4.653129 L 20.607004 8.699096 L 8.67899 8.697149 L 8.680689 11.26196 L 18.76166 11.258394 L 18.763225 14.404162 L 8.682769 14.402546 L 8.680314 16.956477 L 21.50904 16.953682 Z M 21.504982 20.999134 " stroke="#231f20" stroke-width="2.800008" stroke-opacity="1" stroke-miterlimit="4"/><path stroke-linecap="butt" transform="matrix(0.747961, -0.0552589, 0.0552589, 0.747961, 126.227852, 190.946121)" fill="none" stroke-linejoin="miter" d="M 12.359656 21.353019 C 8.317489 21.35207 5.344569 20.521397 3.440898 18.860999 C 1.752722 17.394088 0.913775 15.389327 0.913667 12.845947 C 0.913943 10.297374 1.756731 8.291517 3.442798 6.817989 C 5.34602 5.162048 8.321504 4.332147 12.358477 4.332712 C 14.729297 4.335523 16.68868 4.605622 18.236243 5.148202 C 19.789001 5.691167 20.99283 6.432921 21.84773 7.373465 C 22.707441 8.319587 23.275538 9.395619 23.556448 10.612331 L 16.349341 10.612572 C 15.623267 9.342081 14.296724 8.706157 12.358939 8.709225 C 10.703559 8.707045 9.487847 9.186484 8.701798 10.141582 C 8.081347 10.905235 7.769682 11.801375 7.770846 12.845966 C 7.7672 13.88498 8.081906 14.785615 8.70496 15.54191 C 9.485607 16.497858 10.703429 16.97952 12.359193 16.976506 C 14.296594 16.978632 15.623275 16.34027 16.349242 15.067382 L 23.556349 15.067141 C 23.278027 16.28954 22.70727 17.370216 21.849271 18.309553 C 20.990887 19.254085 19.787153 19.995535 18.237684 20.5391 C 16.688215 21.082665 14.730476 21.355831 12.359656 21.353019 Z M 12.359656 21.353019 " stroke="#231f20" stroke-width="2.800008" stroke-opacity="1" stroke-miterlimit="4"/><path stroke-linecap="butt" transform="matrix(0.749187, -0.0349146, 0.0349146, 0.749187, 144.813746, 189.569402)" fill="none" stroke-linejoin="miter" d="M 24.150967 21.002446 L 17.294644 21.000972 L 17.2944 14.405268 L 8.680892 14.405327 L 8.681136 21.001031 L 1.824813 20.999557 L 1.820137 4.653492 L 8.681663 4.655208 L 8.681422 11.261318 L 17.29493 11.261259 L 17.289969 4.654907 L 24.151737 4.651421 Z M 24.150967 21.002446 " stroke="#231f20" stroke-width="2.800008" stroke-opacity="1" stroke-miterlimit="4"/><path stroke-linecap="butt" transform="matrix(0.749884, -0.0131592, 0.0131592, 0.749884, 164.57617, 188.642215)" fill="none" stroke-linejoin="miter" d="M 26.07566 21.000293 L 17.918198 20.997791 L 8.678531 9.938139 L 8.682319 21.002409 L 1.821898 21.001831 L 1.822244 4.65557 L 9.979798 4.652865 L 19.215262 15.655142 L 19.215585 4.653453 L 26.076006 4.654032 Z M 26.07566 21.000293 " stroke="#231f20" stroke-width="2.800008" stroke-opacity="1" stroke-miterlimit="4"/><path stroke-linecap="butt" transform="matrix(0.749956, 0.00810103, -0.00810103, 0.749956, 185.793655, 188.291004)" fill="none" stroke-linejoin="miter" d="M 12.360676 21.354731 C 8.318739 21.351514 5.346031 20.518991 3.442553 18.857163 C 1.754686 17.385725 0.909989 15.373898 0.913784 12.832042 C 0.912427 10.29545 1.755414 8.291435 3.442744 6.819999 C 5.346729 5.153503 8.317115 4.324495 12.358997 4.322504 C 16.400878 4.320512 19.373586 5.153035 21.27712 6.820072 C 22.964987 8.29151 23.809627 10.298129 23.810984 12.834721 C 23.80719 15.376577 22.964259 17.385799 21.276929 18.857235 C 19.372944 20.523732 16.402558 21.352739 12.360676 21.354731 Z M 12.36018 16.969063 C 14.016502 16.966797 15.230231 16.495327 16.006461 15.544178 C 16.628419 14.776999 16.941584 13.872522 16.940749 12.830803 C 16.93997 11.794293 16.628115 10.891358 16.005298 10.132416 C 15.22931 9.177201 14.015703 8.695489 12.35938 8.697755 C 10.703002 8.694813 9.484178 9.176756 8.702796 10.133168 C 8.080725 10.889932 7.76756 11.794409 7.768339 12.83092 C 7.769175 13.872638 8.081029 14.775572 8.703959 15.54493 C 9.485099 16.494882 10.703802 16.966121 12.36018 16.969063 Z M 12.36018 16.969063 " stroke="#231f20" stroke-width="2.800008" stroke-opacity="1" stroke-miterlimit="4"/><path stroke-linecap="butt" transform="matrix(0.749524, 0.0267145, -0.0267145, 0.749524, 204.591877, 188.512956)" fill="none" stroke-linejoin="miter" d="M 20.904446 21.001452 L 1.824534 20.998771 L 1.82051 4.65521 L 8.679047 4.655705 L 8.679645 16.955156 L 20.906225 16.957155 Z M 20.904446 21.001452 " stroke="#231f20" stroke-width="2.800008" stroke-opacity="1" stroke-miterlimit="4"/><path stroke-linecap="butt" transform="matrix(0.74863, 0.0453115, -0.0453115, 0.74863, 220.861732, 189.080378)" fill="none" stroke-linejoin="miter" d="M 12.361488 21.351676 C 8.317614 21.351195 5.345545 20.524035 3.439453 18.86011 C 1.753586 17.386354 0.911857 15.376244 0.909068 12.830094 C 0.912106 10.294028 1.756204 8.291457 3.441046 6.817182 C 5.343938 5.152302 8.320235 4.325144 12.358596 4.320741 C 16.40247 4.321222 19.374854 5.153581 21.280945 6.817505 C 22.966812 8.291262 23.808227 10.296173 23.810387 12.831925 C 23.807978 15.378389 22.964195 17.386159 21.279352 18.860434 C 19.370947 20.520429 16.400164 21.352472 12.361488 21.351676 Z M 12.362311 16.96862 C 14.016315 16.967649 15.229405 16.492451 16.00678 15.542709 C 16.628176 14.774597 16.938915 13.87397 16.938369 12.83043 C 16.938136 11.792089 16.628014 10.892516 16.002801 10.132024 C 15.230148 9.176959 14.016661 8.697313 12.357458 8.698598 C 10.703454 8.699569 9.485165 9.175082 8.702906 10.130338 C 8.081196 10.89325 7.770456 11.793877 7.770688 12.832218 C 7.77092 13.870559 8.081358 14.775332 8.701686 15.541337 C 9.484423 16.490574 10.703108 16.969905 12.362311 16.96862 Z M 12.362311 16.96862 " stroke="#231f20" stroke-width="2.800008" stroke-opacity="1" stroke-miterlimit="4"/><path stroke-linecap="butt" transform="matrix(0.747153, 0.0652838, -0.0652838, 0.747153, 239.6468, 190.220496)" fill="none" stroke-linejoin="miter" d="M 12.360788 21.35173 C 8.319653 21.354543 5.345247 20.521748 3.438025 18.858532 C 1.75648 17.384725 0.911906 15.377706 0.909946 12.842211 C 0.912722 10.301074 1.756749 8.2929 3.442028 6.817689 C 5.346284 5.156042 8.321348 4.320992 12.357748 4.32382 C 14.663133 4.321054 16.57338 4.582854 18.103149 5.097482 C 19.62773 5.612563 20.823919 6.318411 21.696452 7.209385 C 22.563797 8.100812 23.160934 9.130869 23.476577 10.290086 L 16.141711 10.293145 C 15.374914 9.236087 14.115857 8.708261 12.359352 8.710122 C 10.701883 8.708557 9.483174 9.181016 8.703678 10.132688 C 8.080445 10.898176 7.767467 11.803857 7.76948 12.844088 C 7.771493 13.88432 8.080034 14.782748 8.700746 15.544108 C 9.484419 16.495128 10.702169 16.969053 12.359185 16.965429 C 13.697885 16.968706 14.701746 16.849623 15.371676 16.618557 C 16.046794 16.387037 16.538247 16.087915 16.850771 15.715548 L 14.168636 15.714636 L 14.168793 12.844353 L 23.479897 12.841147 L 23.477665 21.012984 L 20.628136 21.011013 L 20.050848 19.430263 C 18.23374 20.713095 15.670538 21.355313 12.360788 21.35173 Z M 12.360788 21.35173 " stroke="#231f20" stroke-width="2.800008" stroke-opacity="1" stroke-miterlimit="4"/><path stroke-linecap="butt" transform="matrix(0.74513, 0.085333, -0.085333, 0.74513, 258.490154, 191.869675)" fill="none" stroke-linejoin="miter" d="M 15.948814 21.000736 L 9.091663 20.999668 L 9.090307 13.251591 L 0.168692 4.653543 L 7.770104 4.653256 L 12.518464 9.540571 L 17.258638 4.651791 L 24.854876 4.652096 L 15.947458 13.252659 Z M 15.948814 21.000736 " stroke="#231f20" stroke-width="2.800008" stroke-opacity="1" stroke-miterlimit="4"/><g fill="#ffffff" fill-opacity="1"><g transform="translate(95.259975, 210.231813)"><g><path d="M 10.375 -1.28125 L 5.265625 -0.65625 L 4.140625 -9.828125 L -0.609375 -9.234375 L -0.984375 -12.234375 L 13.65625 -14.03125 L 14.03125 -11.03125 L 9.25 -10.453125 Z M 10.375 -1.28125 "/></g></g></g><g fill="#ffffff" fill-opacity="1"><g transform="translate(110.790157, 208.313637)"><g><path d="M 16.0625 -1.59375 L 1.375 -0.140625 L 0.15625 -12.34375 L 14.15625 -13.734375 L 14.46875 -10.71875 L 5.578125 -9.828125 L 5.765625 -7.921875 L 13.296875 -8.671875 L 13.53125 -6.3125 L 6 -5.5625 L 6.1875 -3.65625 L 15.765625 -4.609375 Z M 16.0625 -1.59375 "/></g></g></g><g fill="#ffffff" fill-opacity="1"><g transform="translate(127.38829, 206.653312)"><g><path d="M 9.25 -0.421875 C 6.226562 -0.191406 3.960938 -0.648438 2.453125 -1.796875 C 1.117188 -2.785156 0.378906 -4.238281 0.234375 -6.15625 C 0.0976562 -8.050781 0.617188 -9.597656 1.796875 -10.796875 C 3.117188 -12.140625 5.289062 -12.925781 8.3125 -13.15625 C 10.09375 -13.28125 11.578125 -13.179688 12.765625 -12.859375 C 13.953125 -12.546875 14.894531 -12.054688 15.59375 -11.390625 C 16.289062 -10.734375 16.773438 -9.960938 17.046875 -9.078125 L 11.65625 -8.6875 C 11.050781 -9.582031 10.019531 -9.976562 8.5625 -9.875 C 7.332031 -9.78125 6.453125 -9.359375 5.921875 -8.609375 C 5.492188 -7.992188 5.304688 -7.300781 5.359375 -6.53125 C 5.421875 -5.75 5.707031 -5.09375 6.21875 -4.5625 C 6.851562 -3.882812 7.785156 -3.59375 9.015625 -3.6875 C 10.472656 -3.789062 11.4375 -4.34375 11.90625 -5.34375 L 17.296875 -5.734375 C 17.148438 -4.804688 16.78125 -3.96875 16.1875 -3.21875 C 15.601562 -2.46875 14.742188 -1.84375 13.609375 -1.34375 C 12.484375 -0.851562 11.03125 -0.546875 9.25 -0.421875 Z M 9.25 -0.421875 "/></g></g></g><g fill="#ffffff" fill-opacity="1"><g transform="translate(145.546952, 205.302326)"><g><path d="M 18.09375 -0.84375 L 12.953125 -0.609375 L 12.71875 -5.5625 L 6.28125 -5.25 L 6.515625 -0.296875 L 1.375 -0.0625 L 0.796875 -12.3125 L 5.9375 -12.546875 L 6.171875 -7.59375 L 12.609375 -7.90625 L 12.375 -12.859375 L 17.515625 -13.09375 Z M 18.09375 -0.84375 "/></g></g></g><g fill="#ffffff" fill-opacity="1"><g transform="translate(164.852513, 204.389789)"><g><path d="M 19.5625 -0.34375 L 13.4375 -0.234375 L 6.375 -8.40625 L 6.515625 -0.109375 L 1.375 -0.03125 L 1.15625 -12.296875 L 7.265625 -12.390625 L 14.359375 -4.25 L 14.203125 -12.515625 L 19.34375 -12.609375 Z M 19.5625 -0.34375 "/></g></g></g><g fill="#ffffff" fill-opacity="1"><g transform="translate(185.623533, 204.040083)"><g><path d="M 9.265625 0.359375 C 6.234375 0.328125 4.007812 -0.316406 2.59375 -1.578125 C 1.34375 -2.703125 0.726562 -4.21875 0.75 -6.125 C 0.769531 -8.03125 1.414062 -9.523438 2.6875 -10.609375 C 4.132812 -11.847656 6.375 -12.453125 9.40625 -12.421875 C 12.4375 -12.378906 14.660156 -11.726562 16.078125 -10.46875 C 17.328125 -9.351562 17.941406 -7.84375 17.921875 -5.9375 C 17.898438 -4.03125 17.253906 -2.53125 15.984375 -1.4375 C 14.535156 -0.195312 12.296875 0.398438 9.265625 0.359375 Z M 9.296875 -2.9375 C 10.546875 -2.914062 11.460938 -3.257812 12.046875 -3.96875 C 12.515625 -4.53125 12.753906 -5.203125 12.765625 -5.984375 C 12.773438 -6.765625 12.550781 -7.445312 12.09375 -8.03125 C 11.519531 -8.75 10.609375 -9.117188 9.359375 -9.140625 C 8.117188 -9.148438 7.207031 -8.796875 6.625 -8.078125 C 6.144531 -7.515625 5.898438 -6.84375 5.890625 -6.0625 C 5.878906 -5.28125 6.109375 -4.597656 6.578125 -4.015625 C 7.148438 -3.304688 8.054688 -2.945312 9.296875 -2.9375 Z M 9.296875 -2.9375 "/></g></g></g><g fill="#ffffff" fill-opacity="1"><g transform="translate(204.030873, 204.252961)"><g><path d="M 15.671875 0.5625 L 1.375 0.046875 L 1.8125 -12.203125 L 6.953125 -12.015625 L 6.625 -2.796875 L 15.78125 -2.46875 Z M 15.671875 0.5625 "/></g></g></g><g fill="#ffffff" fill-opacity="1"><g transform="translate(219.910192, 204.801608)"><g><path d="M 9.234375 0.828125 C 6.203125 0.640625 4.015625 -0.117188 2.671875 -1.453125 C 1.484375 -2.628906 0.945312 -4.164062 1.0625 -6.0625 C 1.175781 -7.96875 1.894531 -9.4375 3.21875 -10.46875 C 4.707031 -11.632812 6.96875 -12.125 10 -11.9375 C 13.019531 -11.757812 15.210938 -11 16.578125 -9.65625 C 17.773438 -8.476562 18.316406 -6.9375 18.203125 -5.03125 C 18.085938 -3.132812 17.363281 -1.671875 16.03125 -0.640625 C 14.519531 0.515625 12.253906 1.003906 9.234375 0.828125 Z M 9.4375 -2.46875 C 10.6875 -2.394531 11.617188 -2.695312 12.234375 -3.375 C 12.734375 -3.90625 13.007812 -4.5625 13.0625 -5.34375 C 13.101562 -6.125 12.910156 -6.816406 12.484375 -7.421875 C 11.953125 -8.171875 11.0625 -8.582031 9.8125 -8.65625 C 8.570312 -8.726562 7.640625 -8.425781 7.015625 -7.75 C 6.503906 -7.195312 6.226562 -6.53125 6.1875 -5.75 C 6.132812 -4.96875 6.328125 -4.285156 6.765625 -3.703125 C 7.304688 -2.953125 8.195312 -2.539062 9.4375 -2.46875 Z M 9.4375 -2.46875 "/></g></g></g><g fill="#ffffff" fill-opacity="1"><g transform="translate(238.275841, 205.910714)"><g><path d="M 9.21875 1.078125 C 6.195312 0.804688 4.023438 -0.015625 2.703125 -1.390625 C 1.546875 -2.585938 1.050781 -4.140625 1.21875 -6.046875 C 1.382812 -7.941406 2.140625 -9.382812 3.484375 -10.375 C 5.023438 -11.5 7.304688 -11.925781 10.328125 -11.65625 C 12.046875 -11.507812 13.457031 -11.191406 14.5625 -10.703125 C 15.664062 -10.210938 16.515625 -9.609375 17.109375 -8.890625 C 17.703125 -8.171875 18.082031 -7.363281 18.25 -6.46875 L 12.765625 -6.953125 C 12.253906 -7.785156 11.34375 -8.257812 10.03125 -8.375 C 8.789062 -8.488281 7.847656 -8.21875 7.203125 -7.5625 C 6.703125 -7.019531 6.414062 -6.367188 6.34375 -5.609375 C 6.28125 -4.828125 6.453125 -4.128906 6.859375 -3.515625 C 7.378906 -2.753906 8.257812 -2.316406 9.5 -2.203125 C 10.5 -2.117188 11.253906 -2.140625 11.765625 -2.265625 C 12.285156 -2.398438 12.675781 -2.597656 12.9375 -2.859375 L 10.921875 -3.03125 L 11.109375 -5.1875 L 18.078125 -4.578125 L 17.546875 1.546875 L 15.40625 1.359375 L 15.09375 0.140625 C 13.65625 0.972656 11.695312 1.285156 9.21875 1.078125 Z M 9.21875 1.078125 "/></g></g></g><g fill="#ffffff" fill-opacity="1"><g transform="translate(256.69816, 207.517397)"><g><path d="M 11.890625 1.359375 L 6.765625 0.78125 L 7.421875 -5 L 1.515625 -12.171875 L 7.1875 -11.53125 L 10.3125 -7.46875 L 14.265625 -10.71875 L 19.90625 -10.0625 L 12.546875 -4.421875 Z M 11.890625 1.359375 "/></g></g></g><g fill="#ffffff" fill-opacity="1"><g transform="translate(275.251662, 209.701391)"><g/></g></g></svg>