<svg xmlns="http://www.w3.org/2000/svg" xmlns:xlink="http://www.w3.org/1999/xlink" width="500" zoomAndPan="magnify" viewBox="0 0 375 374.999991" height="500" preserveAspectRatio="xMidYMid meet" version="1.0"><defs><g/></defs><path stroke-linecap="butt" transform="matrix(0.75, 0, 0, 0.75, 96.088781, 136.175192)" fill="none" stroke-linejoin="miter" d="M 12.761834 55.000789 L 44.741003 55.000789 C 45.517044 55.000789 46.136836 54.328914 46.136836 53.552873 L 46.136836 41.271622 C 46.136836 40.49558 45.517044 39.880997 44.741003 39.880997 L 19.543084 39.880997 C 18.751418 39.880997 18.136834 39.261205 18.136834 38.485163 L 18.136834 26.724746 C 18.136834 25.933079 18.751418 25.318496 19.543084 25.318496 L 44.741003 25.318496 C 45.517044 25.318496 46.136836 24.646621 46.136836 23.870579 L 46.136836 11.604953 C 46.136836 10.813287 45.517044 10.198703 44.741003 10.198703 L 12.761834 10.198703 C 6.157667 10.198703 1.329542 15.011204 1.329542 21.625787 L 1.329542 43.568497 C 1.329542 50.188289 6.157667 55.000789 12.761834 55.000789 Z M 12.761834 55.000789 " stroke="#231f20" stroke-width="6.72006" stroke-opacity="1" stroke-miterlimit="4"/><path stroke-linecap="butt" transform="matrix(0.75, 0, 0, 0.75, 131.788765, 136.175192)" fill="none" stroke-linejoin="miter" d="M 12.65144 55.000789 L 26.599357 55.000789 C 27.375399 55.000789 27.989982 54.386206 27.989982 53.604956 L 27.989982 38.485163 C 27.989982 37.693497 28.609774 37.073705 29.385816 37.073705 L 36.453525 37.073705 C 37.177483 37.073705 37.849358 36.516413 37.849358 35.792455 L 37.849358 11.823703 C 37.849358 10.86537 37.286858 10.198703 36.385816 10.198703 L 22.453524 10.198703 C 21.661857 10.198703 21.047274 10.813287 21.047274 11.55287 L 21.047274 22.745579 C 21.047274 23.636204 20.375398 24.198704 19.599357 24.198704 C 18.802482 24.198704 18.135815 23.636204 18.135815 22.745579 L 18.135815 11.55287 C 18.135815 10.813287 17.521232 10.198703 16.739982 10.198703 L 2.797272 10.198703 C 1.891022 10.198703 1.333731 10.86537 1.333731 11.823703 L 1.333731 35.792455 C 1.333731 36.516413 2.016022 37.073705 2.739981 37.073705 L 9.797273 37.073705 C 10.573314 37.073705 11.187898 37.693497 11.187898 38.485163 L 11.187898 53.604956 C 11.187898 54.386206 11.859773 55.000789 12.65144 55.000789 Z M 12.65144 55.000789 " stroke="#231f20" stroke-width="6.72006" stroke-opacity="1" stroke-miterlimit="4"/><path stroke-linecap="butt" transform="matrix(0.75, 0, 0, 0.75, 161.272772, 136.175192)" fill="none" stroke-linejoin="miter" d="M 2.74047 55.000789 L 37.125889 55.000789 C 42.386306 55.000789 46.245682 51.130998 46.245682 45.865372 L 46.245682 39.71433 C 46.245682 36.407038 43.839431 34.000788 40.542556 34.000788 L 40.037348 34.000788 C 39.245681 34.000788 38.631098 33.386205 38.631098 32.604955 C 38.631098 31.813288 39.245681 31.198705 40.037348 31.198705 L 40.542556 31.198705 C 43.839431 31.198705 46.245682 28.792454 46.245682 25.479954 L 46.245682 19.328912 C 46.245682 14.068495 42.386306 10.198703 37.125889 10.198703 L 2.74047 10.198703 C 1.948804 10.198703 1.33422 10.813287 1.33422 11.604953 L 1.33422 53.604956 C 1.33422 54.386206 1.948804 55.000789 2.74047 55.000789 Z M 19.542555 26.167454 C 18.750888 26.167454 18.136305 25.552871 18.136305 24.755996 C 18.136305 23.979954 18.750888 23.365371 19.542555 23.365371 L 27.938389 23.365371 C 28.71443 23.365371 29.334222 23.979954 29.334222 24.755996 C 29.334222 25.552871 28.71443 26.167454 27.938389 26.167454 Z M 19.542555 41.834122 C 18.750888 41.834122 18.136305 41.219539 18.136305 40.438289 C 18.136305 39.662247 18.750888 39.042455 19.542555 39.042455 L 27.938389 39.042455 C 28.71443 39.042455 29.334222 39.662247 29.334222 40.438289 C 29.334222 41.219539 28.71443 41.834122 27.938389 41.834122 Z M 19.542555 41.834122 " stroke="#231f20" stroke-width="6.72006" stroke-opacity="1" stroke-miterlimit="4"/><path stroke-linecap="butt" transform="matrix(0.75, 0, 0, 0.75, 197.056748, 136.175192)" fill="none" stroke-linejoin="miter" d="M 2.794127 55.000789 L 44.79413 55.000789 C 45.57538 55.000789 46.189964 54.386206 46.189964 53.604956 L 46.189964 42.953914 C 46.189964 42.177872 45.518089 41.55808 44.742047 41.55808 L 19.544128 41.55808 C 18.752462 41.55808 18.13267 40.943497 18.13267 40.167455 C 18.13267 39.37058 18.752462 38.755997 19.544128 38.755997 L 42.554547 38.755997 C 43.330588 38.755997 43.945172 38.141413 43.945172 37.365372 L 43.945172 27.834121 C 43.945172 27.052871 43.278505 26.438288 42.497255 26.438288 L 19.544128 26.438288 C 18.752462 26.438288 18.13267 25.823704 18.13267 25.042454 C 18.13267 24.250787 18.752462 23.636204 19.544128 23.636204 L 44.79413 23.636204 C 45.57538 23.636204 46.189964 23.021621 46.189964 22.240371 L 46.189964 11.604953 C 46.189964 10.813287 45.57538 10.198703 44.79413 10.198703 L 2.742044 10.198703 C 1.945169 10.198703 1.330586 10.813287 1.330586 11.604953 L 1.330586 53.604956 C 1.330586 54.386206 2.018086 55.000789 2.794127 55.000789 Z M 2.794127 55.000789 " stroke="#231f20" stroke-width="6.72006" stroke-opacity="1" stroke-miterlimit="4"/><path stroke-linecap="butt" transform="matrix(0.75, 0, 0, 0.75, 232.798744, 136.175192)" fill="none" stroke-linejoin="miter" d="M 2.7423 55.000789 L 16.742301 55.000789 C 17.518343 55.000789 18.132926 54.328914 18.132926 53.552873 L 18.132926 40.438289 C 18.132926 39.662247 18.74751 39.042455 19.544385 39.042455 L 27.93501 39.042455 C 28.71626 39.042455 29.330844 39.662247 29.330844 40.438289 L 29.330844 53.604956 C 29.330844 54.386206 29.945427 55.000789 30.742302 55.000789 L 44.742303 55.000789 C 45.518345 55.000789 46.132928 54.328914 46.132928 53.552873 L 46.132928 39.71433 C 46.132928 36.407038 43.726678 34.000788 40.419386 34.000788 L 39.929803 34.000788 C 39.132928 34.000788 38.518344 33.386205 38.518344 32.604955 C 38.518344 31.813288 39.132928 31.198705 39.929803 31.198705 L 40.419386 31.198705 C 43.726678 31.198705 46.132928 28.792454 46.132928 25.479954 L 46.132928 19.328912 C 46.132928 14.068495 42.278761 10.198703 37.013136 10.198703 L 2.7423 10.198703 C 1.945425 10.198703 1.330842 10.813287 1.330842 11.604953 L 1.330842 53.604956 C 1.330842 54.386206 1.945425 55.000789 2.7423 55.000789 Z M 19.544385 26.167454 C 18.74751 26.167454 18.132926 25.552871 18.132926 24.755996 C 18.132926 23.979954 18.74751 23.365371 19.544385 23.365371 L 27.93501 23.365371 C 28.71626 23.365371 29.330844 23.979954 29.330844 24.755996 C 29.330844 25.552871 28.71626 26.167454 27.93501 26.167454 Z M 19.544385 26.167454 " stroke="#231f20" stroke-width="6.72006" stroke-opacity="1" stroke-miterlimit="4"/><g fill="#2291f6" fill-opacity="1"><g transform="translate(96.041906, 177.425189)"><g><path d="M 9.617188 0 L 33.601562 0 C 34.1875 0 34.648438 -0.503906 34.648438 -1.09375 L 34.648438 -10.289062 C 34.648438 -10.878906 34.1875 -11.339844 33.601562 -11.339844 L 14.699219 -11.339844 C 14.113281 -11.339844 13.648438 -11.800781 13.648438 -12.390625 L 13.648438 -21.210938 C 13.648438 -21.796875 14.113281 -22.261719 14.699219 -22.261719 L 33.601562 -22.261719 C 34.1875 -22.261719 34.648438 -22.765625 34.648438 -23.351562 L 34.648438 -32.550781 C 34.648438 -33.136719 34.1875 -33.601562 33.601562 -33.601562 L 9.617188 -33.601562 C 4.660156 -33.601562 1.050781 -29.988281 1.050781 -25.03125 L 1.050781 -8.566406 C 1.050781 -3.613281 4.660156 0 9.617188 0 Z M 9.617188 0 "/></g></g></g><g fill="#2291f6" fill-opacity="1"><g transform="translate(131.74189, 177.425189)"><g><path d="M 9.535156 0 L 19.992188 0 C 20.578125 0 21.042969 -0.460938 21.042969 -1.050781 L 21.042969 -12.390625 C 21.042969 -12.976562 21.503906 -13.441406 22.09375 -13.441406 L 27.382812 -13.441406 C 27.929688 -13.441406 28.433594 -13.859375 28.433594 -14.40625 L 28.433594 -32.382812 C 28.433594 -33.097656 28.015625 -33.601562 27.34375 -33.601562 L 16.882812 -33.601562 C 16.296875 -33.601562 15.835938 -33.136719 15.835938 -32.59375 L 15.835938 -24.191406 C 15.835938 -23.519531 15.328125 -23.101562 14.742188 -23.101562 C 14.152344 -23.101562 13.648438 -23.519531 13.648438 -24.191406 L 13.648438 -32.59375 C 13.648438 -33.136719 13.1875 -33.601562 12.601562 -33.601562 L 2.140625 -33.601562 C 1.46875 -33.601562 1.050781 -33.097656 1.050781 -32.382812 L 1.050781 -14.40625 C 1.050781 -13.859375 1.554688 -13.441406 2.101562 -13.441406 L 7.390625 -13.441406 C 7.980469 -13.441406 8.441406 -12.976562 8.441406 -12.390625 L 8.441406 -1.050781 C 8.441406 -0.460938 8.945312 0 9.535156 0 Z M 9.535156 0 "/></g></g></g><g fill="#2291f6" fill-opacity="1"><g transform="translate(161.225897, 177.425189)"><g><path d="M 2.101562 0 L 27.886719 0 C 31.835938 0 34.734375 -2.898438 34.734375 -6.847656 L 34.734375 -11.464844 C 34.734375 -13.945312 32.929688 -15.75 30.449219 -15.75 L 30.070312 -15.75 C 29.484375 -15.75 29.023438 -16.210938 29.023438 -16.800781 C 29.023438 -17.386719 29.484375 -17.851562 30.070312 -17.851562 L 30.449219 -17.851562 C 32.929688 -17.851562 34.734375 -19.65625 34.734375 -22.132812 L 34.734375 -26.753906 C 34.734375 -30.703125 31.835938 -33.601562 27.886719 -33.601562 L 2.101562 -33.601562 C 1.511719 -33.601562 1.050781 -33.136719 1.050781 -32.550781 L 1.050781 -1.050781 C 1.050781 -0.460938 1.511719 0 2.101562 0 Z M 14.699219 -21.628906 C 14.113281 -21.628906 13.648438 -22.09375 13.648438 -22.679688 C 13.648438 -23.269531 14.113281 -23.730469 14.699219 -23.730469 L 21 -23.730469 C 21.589844 -23.730469 22.050781 -23.269531 22.050781 -22.679688 C 22.050781 -22.09375 21.589844 -21.628906 21 -21.628906 Z M 14.699219 -9.871094 C 14.113281 -9.871094 13.648438 -10.332031 13.648438 -10.921875 C 13.648438 -11.507812 14.113281 -11.96875 14.699219 -11.96875 L 21 -11.96875 C 21.589844 -11.96875 22.050781 -11.507812 22.050781 -10.921875 C 22.050781 -10.332031 21.589844 -9.871094 21 -9.871094 Z M 14.699219 -9.871094 "/></g></g></g><g fill="#2291f6" fill-opacity="1"><g transform="translate(197.009873, 177.425189)"><g><path d="M 2.140625 0 L 33.640625 0 C 34.230469 0 34.691406 -0.460938 34.691406 -1.050781 L 34.691406 -9.03125 C 34.691406 -9.617188 34.1875 -10.078125 33.601562 -10.078125 L 14.699219 -10.078125 C 14.113281 -10.078125 13.648438 -10.542969 13.648438 -11.128906 C 13.648438 -11.71875 14.113281 -12.179688 14.699219 -12.179688 L 31.960938 -12.179688 C 32.550781 -12.179688 33.011719 -12.640625 33.011719 -13.230469 L 33.011719 -20.371094 C 33.011719 -20.957031 32.507812 -21.421875 31.921875 -21.421875 L 14.699219 -21.421875 C 14.113281 -21.421875 13.648438 -21.882812 13.648438 -22.46875 C 13.648438 -23.058594 14.113281 -23.519531 14.699219 -23.519531 L 33.640625 -23.519531 C 34.230469 -23.519531 34.691406 -23.980469 34.691406 -24.570312 L 34.691406 -32.550781 C 34.691406 -33.136719 34.230469 -33.601562 33.640625 -33.601562 L 2.101562 -33.601562 C 1.511719 -33.601562 1.050781 -33.136719 1.050781 -32.550781 L 1.050781 -1.050781 C 1.050781 -0.460938 1.554688 0 2.140625 0 Z M 2.140625 0 "/></g></g></g><g fill="#2291f6" fill-opacity="1"><g transform="translate(232.751869, 177.425189)"><g><path d="M 2.101562 0 L 12.601562 0 C 13.1875 0 13.648438 -0.503906 13.648438 -1.09375 L 13.648438 -10.921875 C 13.648438 -11.507812 14.113281 -11.96875 14.699219 -11.96875 L 21 -11.96875 C 21.589844 -11.96875 22.050781 -11.507812 22.050781 -10.921875 L 22.050781 -1.050781 C 22.050781 -0.460938 22.511719 0 23.101562 0 L 33.601562 0 C 34.1875 0 34.648438 -0.503906 34.648438 -1.09375 L 34.648438 -11.464844 C 34.648438 -13.945312 32.84375 -15.75 30.367188 -15.75 L 29.988281 -15.75 C 29.398438 -15.75 28.9375 -16.210938 28.9375 -16.800781 C 28.9375 -17.386719 29.398438 -17.851562 29.988281 -17.851562 L 30.367188 -17.851562 C 32.84375 -17.851562 34.648438 -19.65625 34.648438 -22.132812 L 34.648438 -26.753906 C 34.648438 -30.703125 31.753906 -33.601562 27.804688 -33.601562 L 2.101562 -33.601562 C 1.511719 -33.601562 1.050781 -33.136719 1.050781 -32.550781 L 1.050781 -1.050781 C 1.050781 -0.460938 1.511719 0 2.101562 0 Z M 14.699219 -21.628906 C 14.113281 -21.628906 13.648438 -22.09375 13.648438 -22.679688 C 13.648438 -23.269531 14.113281 -23.730469 14.699219 -23.730469 L 21 -23.730469 C 21.589844 -23.730469 22.050781 -23.269531 22.050781 -22.679688 C 22.050781 -22.09375 21.589844 -21.628906 21 -21.628906 Z M 14.699219 -21.628906 "/></g></g></g><g fill="#2291f6" fill-opacity="1"><g transform="translate(268.451852, 177.425189)"><g/></g></g><path stroke-linecap="butt" transform="matrix(0.777524, 0, 0, 0.777524, 96.358702, 186.575189)" fill="none" stroke-linejoin="miter" d="M 12.445219 55.001089 L 44.417713 55.001089 C 45.196427 55.001089 45.814375 54.327878 45.814375 53.549164 L 45.814375 41.275624 C 45.814375 40.49691 45.196427 39.883987 44.417713 39.883987 L 19.227568 39.883987 C 18.433782 39.883987 17.820859 39.26604 17.820859 38.487325 L 17.820859 26.731254 C 17.820859 25.937468 18.433782 25.324545 19.227568 25.324545 L 44.417713 25.324545 C 45.196427 25.324545 45.814375 24.656358 45.814375 23.87262 L 45.814375 11.614153 C 45.814375 10.820367 45.196427 10.207443 44.417713 10.207443 L 12.445219 10.207443 C 5.843733 10.207443 1.02073 15.015375 1.02073 21.631933 L 1.02073 43.571575 C 1.02073 50.188133 5.843733 55.001089 12.445219 55.001089 Z M 12.445219 55.001089 " stroke="#231f20" stroke-width="6.159901" stroke-opacity="1" stroke-miterlimit="4"/><path stroke-linecap="butt" transform="matrix(0.777524, 0, 0, 0.777524, 133.358434, 186.575189)" fill="none" stroke-linejoin="miter" d="M 2.483047 55.001089 L 16.424542 55.001089 C 17.203256 55.001089 17.821203 54.383141 17.821203 53.604427 L 17.821203 41.275624 C 17.821203 40.49691 18.434127 39.883987 19.227913 39.883987 C 20.006627 39.883987 20.61955 40.552174 20.61955 41.34596 L 20.61955 53.604427 C 20.61955 54.383141 21.292761 55.001089 22.071475 55.001089 L 36.01297 55.001089 C 36.806756 55.001089 37.419679 54.383141 37.419679 53.604427 L 37.419679 11.614153 C 37.419679 10.820367 36.751492 10.207443 35.957706 10.207443 L 22.016211 10.207443 C 21.237497 10.207443 20.61955 10.820367 20.61955 11.614153 L 20.61955 23.927884 C 20.61955 24.706598 20.006627 25.324545 19.227913 25.324545 C 18.434127 25.324545 17.821203 24.706598 17.821203 23.927884 L 17.821203 11.614153 C 17.821203 10.820367 17.147992 10.207443 16.369278 10.207443 L 2.427784 10.207443 C 1.633998 10.207443 1.021074 10.820367 1.021074 11.614153 L 1.021074 53.604427 C 1.021074 54.383141 1.704333 55.001089 2.483047 55.001089 Z M 2.483047 55.001089 " stroke="#231f20" stroke-width="6.159901" stroke-opacity="1" stroke-miterlimit="4"/><path stroke-linecap="butt" transform="matrix(0.777524, 0, 0, 0.777524, 163.828794, 186.575189)" fill="none" stroke-linejoin="miter" d="M 2.480977 55.001089 L 16.422472 55.001089 C 17.20621 55.001089 17.819133 54.383141 17.819133 53.604427 L 17.819133 45.756998 C 17.819133 44.978284 18.432056 44.365361 19.225842 44.365361 C 20.004557 44.365361 20.622504 45.033548 20.622504 45.812262 L 20.622504 53.604427 C 20.622504 54.383141 21.290691 55.001089 22.069405 55.001089 L 36.010899 55.001089 C 36.804685 55.001089 37.422633 54.383141 37.422633 53.604427 L 37.422633 21.631933 C 37.422633 15.015375 32.609677 10.207443 25.993119 10.207443 L 12.448518 10.207443 C 5.847032 10.207443 1.019004 15.015375 1.019004 21.631933 L 1.019004 53.604427 C 1.019004 54.383141 1.702263 55.001089 2.480977 55.001089 Z M 19.225842 30.926263 C 18.432056 30.926263 17.819133 30.313339 17.819133 29.519553 L 17.819133 25.048227 C 17.819133 24.259465 18.432056 23.641518 19.225842 23.641518 C 20.004557 23.641518 20.622504 24.259465 20.622504 25.048227 L 20.622504 29.519553 C 20.622504 30.313339 20.004557 30.926263 19.225842 30.926263 Z M 19.225842 30.926263 " stroke="#231f20" stroke-width="6.159901" stroke-opacity="1" stroke-miterlimit="4"/><path stroke-linecap="butt" transform="matrix(0.777524, 0, 0, 0.777524, 194.299151, 186.575189)" fill="none" stroke-linejoin="miter" d="M 2.42867 55.001089 L 34.401165 55.001089 C 41.002651 55.001089 45.815606 50.188133 45.815606 43.571575 L 45.815606 37.311718 C 45.815606 30.69516 41.002651 25.882205 34.401165 25.882205 L 19.228799 25.882205 C 18.435013 25.882205 17.817066 25.269282 17.817066 24.490567 C 17.817066 23.696781 18.435013 23.083858 19.228799 23.083858 L 44.418945 23.083858 C 45.197659 23.083858 45.815606 22.465911 45.815606 21.687197 L 45.815606 11.614153 C 45.815606 10.820367 45.197659 10.207443 44.418945 10.207443 L 12.446451 10.207443 C 5.844965 10.207443 1.016937 15.015375 1.016937 21.631933 L 1.016937 27.906862 C 1.016937 34.508348 5.844965 39.321303 12.446451 39.321303 L 27.618816 39.321303 C 28.39753 39.321303 29.015477 39.934227 29.015477 40.728013 C 29.015477 41.506727 28.39753 42.124674 27.618816 42.124674 L 2.42867 42.124674 C 1.634884 42.124674 1.016937 42.737597 1.016937 43.516311 L 1.016937 53.604427 C 1.016937 54.383141 1.634884 55.001089 2.42867 55.001089 Z M 2.42867 55.001089 " stroke="#231f20" stroke-width="6.159901" stroke-opacity="1" stroke-miterlimit="4"/><path stroke-linecap="butt" transform="matrix(0.777524, 0, 0, 0.777524, 231.29889, 186.575189)" fill="none" stroke-linejoin="miter" d="M 2.484269 55.001089 L 44.474544 55.001089 C 45.253258 55.001089 45.871205 54.383141 45.871205 53.604427 L 45.871205 42.958652 C 45.871205 42.179938 45.197994 41.56199 44.41928 41.56199 L 19.229135 41.56199 C 18.435349 41.56199 17.817401 40.949067 17.817401 40.170353 C 17.817401 39.376567 18.435349 38.758619 19.229135 38.758619 L 42.233857 38.758619 C 43.012571 38.758619 43.625494 38.145696 43.625494 37.366982 L 43.625494 27.836526 C 43.625494 27.057812 42.957307 26.444889 42.178593 26.444889 L 19.229135 26.444889 C 18.435349 26.444889 17.817401 25.826941 17.817401 25.048227 C 17.817401 24.259465 18.435349 23.641518 19.229135 23.641518 L 44.474544 23.641518 C 45.253258 23.641518 45.871205 23.028594 45.871205 22.24988 L 45.871205 11.614153 C 45.871205 10.820367 45.253258 10.207443 44.474544 10.207443 L 2.429006 10.207443 C 1.63522 10.207443 1.017273 10.820367 1.017273 11.614153 L 1.017273 53.604427 C 1.017273 54.383141 1.700531 55.001089 2.484269 55.001089 Z M 2.484269 55.001089 " stroke="#231f20" stroke-width="6.159901" stroke-opacity="1" stroke-miterlimit="4"/><g fill="#2291f6" fill-opacity="1"><g transform="translate(96.067131, 229.338997)"><g><path d="M 9.96875 0 L 34.828125 0 C 35.4375 0 35.914062 -0.523438 35.914062 -1.132812 L 35.914062 -10.664062 C 35.914062 -11.273438 35.4375 -11.753906 34.828125 -11.753906 L 15.238281 -11.753906 C 14.628906 -11.753906 14.148438 -12.234375 14.148438 -12.84375 L 14.148438 -21.984375 C 14.148438 -22.59375 14.628906 -23.074219 15.238281 -23.074219 L 34.828125 -23.074219 C 35.4375 -23.074219 35.914062 -23.59375 35.914062 -24.203125 L 35.914062 -33.738281 C 35.914062 -34.347656 35.4375 -34.828125 34.828125 -34.828125 L 9.96875 -34.828125 C 4.832031 -34.828125 1.089844 -31.082031 1.089844 -25.945312 L 1.089844 -8.878906 C 1.089844 -3.742188 4.832031 0 9.96875 0 Z M 9.96875 0 "/></g></g></g><g fill="#2291f6" fill-opacity="1"><g transform="translate(133.066863, 229.338997)"><g><path d="M 2.21875 0 L 13.058594 0 C 13.667969 0 14.148438 -0.480469 14.148438 -1.089844 L 14.148438 -10.664062 C 14.148438 -11.273438 14.628906 -11.753906 15.238281 -11.753906 C 15.847656 -11.753906 16.324219 -11.230469 16.324219 -10.621094 L 16.324219 -1.089844 C 16.324219 -0.480469 16.847656 0 17.457031 0 L 28.296875 0 C 28.90625 0 29.386719 -0.480469 29.386719 -1.089844 L 29.386719 -33.738281 C 29.386719 -34.347656 28.863281 -34.828125 28.253906 -34.828125 L 17.414062 -34.828125 C 16.804688 -34.828125 16.324219 -34.347656 16.324219 -33.738281 L 16.324219 -24.160156 C 16.324219 -23.550781 15.847656 -23.074219 15.238281 -23.074219 C 14.628906 -23.074219 14.148438 -23.550781 14.148438 -24.160156 L 14.148438 -33.738281 C 14.148438 -34.347656 13.625 -34.828125 13.015625 -34.828125 L 2.175781 -34.828125 C 1.566406 -34.828125 1.089844 -34.347656 1.089844 -33.738281 L 1.089844 -1.089844 C 1.089844 -0.480469 1.609375 0 2.21875 0 Z M 2.21875 0 "/></g></g></g><g fill="#2291f6" fill-opacity="1"><g transform="translate(163.537222, 229.338997)"><g><path d="M 2.21875 0 L 13.058594 0 C 13.667969 0 14.148438 -0.480469 14.148438 -1.089844 L 14.148438 -7.183594 C 14.148438 -7.792969 14.628906 -8.269531 15.238281 -8.269531 C 15.847656 -8.269531 16.324219 -7.75 16.324219 -7.140625 L 16.324219 -1.089844 C 16.324219 -0.480469 16.847656 0 17.457031 0 L 28.296875 0 C 28.90625 0 29.386719 -0.480469 29.386719 -1.089844 L 29.386719 -25.945312 C 29.386719 -31.082031 25.640625 -34.828125 20.503906 -34.828125 L 9.96875 -34.828125 C 4.832031 -34.828125 1.089844 -31.082031 1.089844 -25.945312 L 1.089844 -1.089844 C 1.089844 -0.480469 1.609375 0 2.21875 0 Z M 15.238281 -18.71875 C 14.628906 -18.71875 14.148438 -19.199219 14.148438 -19.808594 L 14.148438 -23.289062 C 14.148438 -23.898438 14.628906 -24.378906 15.238281 -24.378906 C 15.847656 -24.378906 16.324219 -23.898438 16.324219 -23.289062 L 16.324219 -19.808594 C 16.324219 -19.199219 15.847656 -18.71875 15.238281 -18.71875 Z M 15.238281 -18.71875 "/></g></g></g><g fill="#2291f6" fill-opacity="1"><g transform="translate(194.00758, 229.338997)"><g><path d="M 2.175781 0 L 27.035156 0 C 32.171875 0 35.914062 -3.742188 35.914062 -8.878906 L 35.914062 -13.757812 C 35.914062 -18.894531 32.171875 -22.636719 27.035156 -22.636719 L 15.238281 -22.636719 C 14.628906 -22.636719 14.148438 -23.117188 14.148438 -23.726562 C 14.148438 -24.335938 14.628906 -24.8125 15.238281 -24.8125 L 34.828125 -24.8125 C 35.4375 -24.8125 35.914062 -25.292969 35.914062 -25.902344 L 35.914062 -33.738281 C 35.914062 -34.347656 35.4375 -34.828125 34.828125 -34.828125 L 9.96875 -34.828125 C 4.832031 -34.828125 1.089844 -31.082031 1.089844 -25.945312 L 1.089844 -21.070312 C 1.089844 -15.933594 4.832031 -12.1875 9.96875 -12.1875 L 21.765625 -12.1875 C 22.375 -12.1875 22.855469 -11.710938 22.855469 -11.101562 C 22.855469 -10.492188 22.375 -10.011719 21.765625 -10.011719 L 2.175781 -10.011719 C 1.566406 -10.011719 1.089844 -9.535156 1.089844 -8.925781 L 1.089844 -1.089844 C 1.089844 -0.480469 1.566406 0 2.175781 0 Z M 2.175781 0 "/></g></g></g><g fill="#2291f6" fill-opacity="1"><g transform="translate(231.007319, 229.338997)"><g><path d="M 2.21875 0 L 34.871094 0 C 35.480469 0 35.957031 -0.480469 35.957031 -1.089844 L 35.957031 -9.359375 C 35.957031 -9.96875 35.4375 -10.449219 34.828125 -10.449219 L 15.238281 -10.449219 C 14.628906 -10.449219 14.148438 -10.925781 14.148438 -11.535156 C 14.148438 -12.144531 14.628906 -12.625 15.238281 -12.625 L 33.128906 -12.625 C 33.738281 -12.625 34.21875 -13.105469 34.21875 -13.714844 L 34.21875 -21.113281 C 34.21875 -21.722656 33.695312 -22.203125 33.085938 -22.203125 L 15.238281 -22.203125 C 14.628906 -22.203125 14.148438 -22.679688 14.148438 -23.289062 C 14.148438 -23.898438 14.628906 -24.378906 15.238281 -24.378906 L 34.871094 -24.378906 C 35.480469 -24.378906 35.957031 -24.859375 35.957031 -25.46875 L 35.957031 -33.738281 C 35.957031 -34.347656 35.480469 -34.828125 34.871094 -34.828125 L 2.175781 -34.828125 C 1.566406 -34.828125 1.089844 -34.347656 1.089844 -33.738281 L 1.089844 -1.089844 C 1.089844 -0.480469 1.609375 0 2.21875 0 Z M 2.21875 0 "/></g></g></g><g fill="#2291f6" fill-opacity="1"><g transform="translate(268.050565, 229.338997)"><g/></g></g></svg>