<svg xmlns="http://www.w3.org/2000/svg" xmlns:xlink="http://www.w3.org/1999/xlink" width="500" zoomAndPan="magnify" viewBox="0 0 375 374.999991" height="500" preserveAspectRatio="xMidYMid meet" version="1.0"><defs><g/><clipPath id="9b84dbdd2b"><path d="M 43.5 140 L 331.5 140 L 331.5 214 L 43.5 214 Z M 43.5 140 " clip-rule="nonzero"/></clipPath><clipPath id="38f348a5d2"><path d="M 267 82.25 L 317 82.25 L 317 132 L 267 132 Z M 267 82.25 " clip-rule="nonzero"/></clipPath></defs><path fill="#2291f6" d="M 84.726562 168.84375 C 84.636719 170.851562 84.582031 172.875 84.609375 174.894531 C 84.175781 175.71875 83.773438 176.558594 83.410156 177.394531 C 83.726562 174.507812 84.175781 171.648438 84.726562 168.84375 Z M 125.984375 105.535156 C 124.148438 107.582031 122.488281 109.867188 120.972656 112.351562 C 117.523438 114.082031 114.34375 115.960938 111.457031 117.980469 C 115.890625 113.402344 120.757812 109.214844 125.984375 105.535156 Z M 258.023438 117.96875 C 255.136719 115.945312 251.945312 114.054688 248.492188 112.335938 C 246.976562 109.824219 245.285156 107.527344 243.4375 105.460938 C 248.175781 108.796875 252.667969 112.550781 256.839844 116.726562 C 257.242188 117.117188 257.632812 117.546875 258.023438 117.96875 Z M 284.871094 174.882812 C 284.914062 172.832031 284.855469 170.808594 284.753906 168.789062 C 285.304688 171.589844 285.722656 174.40625 286.039062 177.265625 C 285.695312 176.46875 285.304688 175.660156 284.871094 174.882812 Z M 284.464844 210.148438 C 284.25 206.292969 283.167969 202.539062 281.261719 198.882812 C 283.167969 192.167969 284.335938 185.335938 284.726562 178.507812 C 285.75 180.960938 286.371094 183.460938 286.648438 185.988281 C 286.660156 186.925781 286.703125 187.878906 286.703125 188.832031 C 286.703125 196.082031 285.9375 203.214844 284.464844 210.148438 Z M 254.542969 263.121094 C 254.789062 262.757812 255.003906 262.382812 255.222656 262.007812 C 256.03125 261.402344 256.8125 260.765625 257.605469 260.128906 C 257.34375 260.390625 257.097656 260.679688 256.839844 260.9375 C 256.089844 261.691406 255.308594 262.398438 254.542969 263.121094 Z M 111.816406 260.074219 C 112.613281 260.722656 113.40625 261.371094 114.214844 261.980469 C 114.429688 262.355469 114.664062 262.730469 114.90625 263.105469 C 114.140625 262.382812 113.375 261.675781 112.625 260.9375 C 112.351562 260.648438 112.089844 260.363281 111.816406 260.074219 Z M 94.847656 164.800781 C 94.933594 171.445312 95.773438 178.261719 97.417969 185.222656 C 97.550781 185.742188 97.679688 186.261719 97.808594 186.78125 C 96.882812 187.589844 96.003906 188.414062 95.167969 189.25 C 92.625 191.792969 90.53125 194.421875 88.914062 197.09375 C 87.078125 190.234375 86.039062 183.273438 85.808594 176.296875 C 87.871094 172.253906 90.921875 168.398438 94.847656 164.800781 Z M 89.214844 153.132812 C 91.195312 149.320312 94.070312 145.710938 97.722656 142.359375 C 95.886719 148.828125 94.921875 155.601562 94.832031 162.578125 C 93.835938 163.445312 92.882812 164.324219 91.988281 165.207031 C 89.476562 167.734375 87.410156 170.304688 85.75 172.945312 C 85.765625 168.960938 86.054688 164.988281 86.601562 161.046875 C 87.367188 158.359375 88.25 155.71875 89.214844 153.132812 Z M 104.769531 125.636719 C 104.078125 126.835938 103.414062 128.0625 102.792969 129.304688 C 102.011719 129.984375 101.261719 130.648438 100.554688 131.355469 C 101.894531 129.390625 103.296875 127.46875 104.769531 125.636719 Z M 117.160156 119.902344 C 112.582031 122.226562 108.511719 124.769531 105 127.5 C 106.113281 125.460938 107.339844 123.46875 108.65625 121.519531 C 111.917969 118.847656 115.703125 116.378906 119.90625 114.167969 C 118.90625 115.988281 117.984375 117.894531 117.160156 119.902344 Z M 139.011719 106.542969 C 138.144531 108.347656 137.363281 110.285156 136.671875 112.320312 C 133.753906 113.171875 130.921875 114.113281 128.179688 115.121094 C 124.828125 116.378906 121.695312 117.707031 118.75 119.136719 C 119.660156 117.042969 120.667969 115.066406 121.78125 113.203125 C 126.964844 110.632812 132.757812 108.394531 139.011719 106.542969 Z M 131.082031 102.140625 C 132.570312 101.214844 134.070312 100.335938 135.601562 99.496094 C 139.023438 97.921875 142.738281 96.523438 146.664062 95.324219 C 143.949219 98.097656 141.625 101.375 139.675781 105.171875 C 133.636719 106.917969 127.992188 109.015625 122.894531 111.410156 C 125.246094 107.828125 127.992188 104.722656 131.082031 102.140625 Z M 148.441406 93.617188 C 148.179688 93.675781 147.921875 93.75 147.660156 93.835938 C 147.980469 93.707031 148.296875 93.589844 148.613281 93.472656 C 148.554688 93.519531 148.5 93.5625 148.441406 93.617188 Z M 165.902344 90.039062 C 160.671875 90.714844 155.632812 91.699219 150.851562 92.953125 C 150.882812 92.855469 150.894531 92.738281 150.882812 92.636719 C 156.167969 90.773438 161.640625 89.328125 167.289062 88.363281 C 166.796875 88.867188 166.335938 89.429688 165.902344 90.039062 Z M 218.628906 92.925781 C 213.847656 91.667969 208.808594 90.6875 203.566406 90.007812 C 203.144531 89.417969 202.699219 88.867188 202.222656 88.363281 C 207.808594 89.328125 213.296875 90.730469 218.613281 92.59375 C 218.582031 92.710938 218.582031 92.808594 218.628906 92.925781 Z M 220.980469 93.5625 C 220.9375 93.519531 220.878906 93.472656 220.824219 93.417969 C 221.140625 93.546875 221.472656 93.664062 221.789062 93.792969 C 221.53125 93.71875 221.253906 93.632812 220.980469 93.5625 Z M 250.730469 119.109375 C 247.785156 117.691406 244.652344 116.351562 241.316406 115.109375 C 238.554688 114.097656 235.726562 113.160156 232.824219 112.304688 C 232.128906 110.269531 231.335938 108.347656 230.46875 106.515625 C 236.722656 108.378906 242.511719 110.601562 247.683594 113.1875 C 248.808594 115.050781 249.820312 117.027344 250.730469 119.109375 Z M 260.796875 121.476562 C 262.125 123.425781 263.351562 125.417969 264.464844 127.457031 C 260.957031 124.742188 256.898438 122.199219 252.320312 119.886719 C 251.496094 117.878906 250.570312 115.960938 249.5625 114.140625 C 253.761719 116.363281 257.53125 118.804688 260.796875 121.476562 Z M 266.660156 129.261719 C 266.039062 127.988281 265.359375 126.746094 264.652344 125.507812 C 266.167969 127.425781 267.628906 129.375 269 131.371094 C 268.25 130.660156 267.46875 129.941406 266.660156 129.261719 Z M 277.519531 165.207031 C 276.609375 164.308594 275.65625 163.445312 274.660156 162.5625 C 274.558594 155.515625 273.578125 148.683594 271.714844 142.15625 C 275.367188 145.535156 278.242188 149.175781 280.25 153.03125 C 281.246094 155.6875 282.125 158.390625 282.890625 161.132812 C 283.441406 165.046875 283.714844 168.976562 283.730469 172.933594 C 282.082031 170.289062 280.019531 167.71875 277.519531 165.207031 Z M 273.996094 189.25 C 273.246094 188.484375 272.4375 187.75 271.613281 187.027344 C 271.773438 186.421875 271.929688 185.8125 272.0625 185.222656 C 273.722656 178.261719 274.558594 171.445312 274.632812 164.816406 C 275.210938 165.335938 275.773438 165.871094 276.308594 166.417969 C 279.5 169.597656 281.953125 172.902344 283.6875 176.28125 C 283.457031 183.375 282.371094 190.480469 280.464844 197.46875 C 278.820312 194.652344 276.652344 191.910156 273.996094 189.25 Z M 276.261719 209.6875 C 274.703125 207.058594 272.667969 204.515625 270.199219 202.03125 C 269.359375 201.207031 268.492188 200.414062 267.585938 199.605469 C 269.027344 195.835938 270.285156 192.054688 271.308594 188.253906 C 271.945312 188.847656 272.582031 189.4375 273.203125 190.046875 C 276.105469 192.949219 278.386719 195.953125 280.046875 199.015625 C 279.007812 202.609375 277.738281 206.175781 276.261719 209.6875 Z M 283.296875 213.644531 C 282.328125 216.242188 281.273438 218.726562 280.132812 221.125 C 279.800781 217.644531 278.746094 214.234375 276.957031 210.914062 C 278.445312 207.476562 279.730469 204.011719 280.796875 200.488281 C 282.515625 204.113281 283.382812 207.835938 283.382812 211.636719 C 283.382812 212.300781 283.355469 212.980469 283.296875 213.644531 Z M 280.234375 223.476562 C 280.753906 222.46875 281.246094 221.425781 281.738281 220.371094 C 281.246094 221.859375 280.742188 223.320312 280.191406 224.792969 C 280.21875 224.34375 280.234375 223.925781 280.234375 223.476562 Z M 235.8125 271.367188 C 236.507812 269.71875 236.867188 268.042969 236.925781 266.3125 C 243.554688 262.859375 250.441406 258.425781 256.984375 252.835938 C 256.796875 255.683594 255.902344 258.5 254.371094 261.226562 C 248.621094 265.460938 242.269531 268.808594 235.8125 271.367188 Z M 225.921875 282.140625 C 225.832031 282.167969 225.746094 282.210938 225.660156 282.226562 C 227.148438 281.273438 228.519531 280.289062 229.746094 279.238281 C 231.839844 278.617188 233.921875 277.863281 235.941406 277.042969 C 232.691406 278.917969 229.355469 280.625 225.921875 282.140625 Z M 139.617188 279.195312 C 140.800781 280.234375 142.128906 281.214844 143.574219 282.140625 C 143.546875 282.140625 143.515625 282.125 143.488281 282.109375 C 140.078125 280.609375 136.730469 278.90625 133.492188 277.011719 C 135.488281 277.835938 137.539062 278.574219 139.617188 279.195312 Z M 112.496094 252.835938 C 119.039062 258.410156 125.925781 262.84375 132.554688 266.296875 C 132.597656 268.015625 132.960938 269.707031 133.636719 271.351562 C 127.199219 268.78125 120.84375 265.445312 115.09375 261.214844 C 113.566406 258.484375 112.667969 255.667969 112.496094 252.835938 Z M 89.230469 223.433594 C 89.230469 223.882812 89.257812 224.316406 89.273438 224.777344 C 88.710938 223.277344 88.191406 221.773438 87.699219 220.257812 C 88.191406 221.339844 88.695312 222.410156 89.230469 223.433594 Z M 101.894531 199.589844 C 100.984375 200.398438 100.105469 201.195312 99.28125 202.03125 C 96.796875 204.5 94.789062 207.058594 93.230469 209.65625 C 91.699219 206.03125 90.398438 202.351562 89.332031 198.625 C 91.425781 194.882812 94.402344 191.332031 98.125 188.007812 C 99.152344 191.878906 100.421875 195.75 101.894531 199.589844 Z M 114.199219 177.378906 C 115.007812 181.4375 115.992188 185.523438 117.144531 189.597656 C 111.703125 192.328125 106.878906 195.417969 102.820312 198.8125 C 101.347656 194.941406 100.089844 191.054688 99.078125 187.1875 C 103.28125 183.589844 108.367188 180.3125 114.199219 177.378906 Z M 113.59375 131.585938 C 112.410156 137.042969 111.703125 142.9375 111.570312 149.246094 C 111.542969 150.042969 111.558594 150.835938 111.558594 151.628906 C 105.652344 154.578125 100.410156 157.914062 96.003906 161.582031 C 96.191406 154.417969 97.304688 147.5 99.355469 140.902344 C 103.355469 137.507812 108.148438 134.386719 113.59375 131.585938 Z M 113.925781 130.054688 C 108.625 132.742188 103.945312 135.703125 99.988281 138.878906 C 101.042969 135.832031 102.285156 132.855469 103.730469 129.953125 C 107.371094 126.835938 111.703125 123.976562 116.597656 121.40625 C 115.558594 124.132812 114.648438 127.023438 113.925781 130.054688 Z M 134.085938 122.226562 C 129.941406 123.441406 125.957031 124.8125 122.199219 126.316406 C 119.789062 127.296875 117.476562 128.320312 115.269531 129.390625 C 116.046875 126.316406 116.988281 123.367188 118.097656 120.625 C 123.53125 117.894531 129.636719 115.527344 136.238281 113.5625 C 135.386719 116.261719 134.648438 119.152344 134.085938 122.226562 Z M 159.429688 108.609375 C 158.984375 111.324219 158.609375 114.167969 158.332031 117.101562 C 150.289062 118.214844 142.550781 119.800781 135.300781 121.867188 C 135.90625 118.761719 136.65625 115.875 137.566406 113.171875 C 144.382812 111.207031 151.71875 109.679688 159.429688 108.609375 Z M 160.816406 101.910156 C 160.371094 103.671875 159.980469 105.519531 159.617188 107.46875 C 152.09375 108.492188 144.832031 109.980469 138 111.917969 C 138.734375 109.867188 139.546875 107.929688 140.453125 106.109375 C 146.824219 104.304688 153.667969 102.890625 160.816406 101.910156 Z M 184.167969 99.179688 C 176.675781 99.195312 169.324219 99.671875 162.289062 100.566406 C 163.402344 96.738281 164.804688 93.519531 166.480469 91.105469 C 172.210938 90.355469 178.132812 89.964844 184.167969 89.9375 Z M 207.203125 100.566406 C 200.15625 99.671875 192.804688 99.195312 185.296875 99.179688 L 185.296875 89.9375 C 191.363281 89.949219 197.28125 90.339844 202.972656 91.0625 C 204.675781 93.488281 206.0625 96.710938 207.203125 100.566406 Z M 209.859375 107.453125 C 209.515625 105.519531 209.125 103.65625 208.664062 101.894531 C 215.824219 102.875 222.65625 104.292969 229.023438 106.097656 C 229.933594 107.917969 230.757812 109.867188 231.496094 111.917969 C 224.648438 109.96875 217.398438 108.480469 209.859375 107.453125 Z M 234.179688 121.824219 C 226.988281 119.789062 219.261719 118.183594 211.160156 117.070312 C 210.871094 114.140625 210.511719 111.308594 210.050781 108.609375 C 217.773438 109.664062 225.113281 111.207031 231.929688 113.160156 C 232.824219 115.859375 233.574219 118.734375 234.179688 121.824219 Z M 254.210938 129.320312 C 248.535156 126.574219 242.226562 124.175781 235.394531 122.183594 C 234.816406 119.109375 234.109375 116.25 233.242188 113.546875 C 239.855469 115.527344 245.949219 117.878906 251.378906 120.597656 C 252.492188 123.339844 253.429688 126.257812 254.210938 129.320312 Z M 255.554688 129.96875 C 254.816406 126.949219 253.921875 124.089844 252.882812 121.390625 C 257.777344 123.945312 262.097656 126.804688 265.734375 129.925781 C 267.164062 132.785156 268.421875 135.746094 269.460938 138.761719 C 265.476562 135.570312 260.796875 132.609375 255.554688 129.96875 Z M 257.9375 151.617188 C 257.9375 150.835938 257.9375 150.042969 257.921875 149.246094 C 257.777344 142.863281 257.070312 136.886719 255.859375 131.371094 C 261.289062 134.15625 266.082031 137.289062 270.066406 140.699219 C 272.148438 147.371094 273.304688 154.347656 273.492188 161.566406 C 269.070312 157.914062 263.84375 154.578125 257.9375 151.617188 Z M 252.332031 189.597656 C 253.488281 185.570312 254.457031 181.539062 255.25 177.539062 C 261.101562 180.5 266.167969 183.808594 270.34375 187.417969 C 269.347656 191.214844 268.117188 195.042969 266.675781 198.824219 C 262.601562 195.417969 257.777344 192.339844 252.332031 189.597656 Z M 261.765625 210.03125 C 257.980469 206.871094 253.503906 203.996094 248.449219 201.453125 C 249.777344 197.886719 250.960938 194.304688 252.015625 190.695312 C 257.445312 193.4375 262.226562 196.53125 266.242188 199.9375 C 264.914062 203.332031 263.425781 206.695312 261.765625 210.03125 Z M 270.933594 220.503906 C 269.445312 217.960938 267.496094 215.476562 265.085938 213.050781 C 264.320312 212.285156 263.484375 211.535156 262.644531 210.796875 C 264.320312 207.476562 265.808594 204.113281 267.152344 200.730469 C 267.917969 201.425781 268.683594 202.117188 269.390625 202.828125 C 272.03125 205.484375 274.125 208.199219 275.699219 211 C 274.285156 214.207031 272.710938 217.382812 270.933594 220.503906 Z M 212.144531 274.167969 C 212.054688 273.316406 211.824219 272.464844 211.449219 271.625 C 219.652344 268.464844 227.320312 264.605469 234.382812 260.101562 C 235.277344 261.890625 235.742188 263.742188 235.785156 265.632812 C 226.917969 270.183594 218.539062 272.925781 212.144531 274.167969 Z M 211.722656 277.53125 C 211.984375 276.824219 212.128906 276.074219 212.171875 275.324219 C 218.539062 274.082031 226.875 271.394531 235.753906 266.902344 C 235.625 268.609375 235.148438 270.296875 234.339844 271.929688 C 226.554688 274.859375 218.726562 276.695312 211.722656 277.53125 Z M 205.976562 283.945312 C 206.972656 283.324219 207.867188 282.644531 208.648438 281.9375 C 214.484375 282.328125 220.808594 281.621094 227.046875 280.003906 C 225.34375 281.242188 223.40625 282.414062 221.3125 283.46875 C 216.488281 284.636719 212.605469 284.667969 205.976562 283.945312 Z M 171.011719 287.164062 C 175.101562 288.347656 179.808594 289.027344 184.734375 289.027344 C 187.171875 289.027344 189.527344 288.871094 191.765625 288.582031 C 192.515625 289.316406 193.296875 289.921875 194.089844 290.371094 C 191 290.644531 187.882812 290.804688 184.734375 290.804688 C 177.828125 290.804688 171.027344 290.109375 164.398438 288.78125 C 166.710938 288.582031 168.847656 288.046875 171.011719 287.164062 Z M 160.875 281.9375 C 161.65625 282.644531 162.550781 283.324219 163.546875 283.945312 C 156.875 284.667969 152.988281 284.636719 148.136719 283.453125 C 146.042969 282.398438 144.121094 281.242188 142.417969 279.988281 C 148.671875 281.621094 155.027344 282.328125 160.875 281.9375 Z M 157.308594 275.324219 C 157.351562 276.058594 157.496094 276.808594 157.757812 277.53125 C 150.75 276.679688 142.910156 274.859375 135.125 271.914062 C 134.316406 270.28125 133.839844 268.609375 133.726562 266.902344 C 142.59375 271.378906 150.925781 274.082031 157.308594 275.324219 Z M 135.082031 260.074219 C 142.160156 264.605469 149.828125 268.464844 158.03125 271.613281 C 157.640625 272.449219 157.410156 273.300781 157.324219 274.167969 C 150.925781 272.910156 142.5625 270.167969 133.683594 265.617188 C 133.726562 263.710938 134.214844 261.863281 135.082031 260.074219 Z M 97.910156 221.628906 C 96.25 224.75 95.28125 227.953125 95.023438 231.246094 C 93.359375 228.675781 91.800781 226.019531 90.371094 223.1875 C 90.414062 219.433594 91.351562 215.78125 93.101562 212.269531 C 94.53125 215.449219 96.132812 218.566406 97.910156 221.628906 Z M 106.847656 210.785156 C 105.984375 211.535156 105.160156 212.285156 104.378906 213.050781 C 101.984375 215.460938 100.03125 217.945312 98.546875 220.488281 C 96.785156 217.367188 95.195312 214.207031 93.792969 211 C 95.816406 207.375 98.703125 203.9375 102.328125 200.730469 C 103.671875 204.097656 105.175781 207.460938 106.847656 210.785156 Z M 121.046875 201.441406 C 115.976562 203.980469 111.5 206.855469 107.714844 210.019531 C 106.054688 206.695312 104.566406 203.316406 103.238281 199.9375 C 107.210938 196.585938 112.003906 193.496094 117.476562 190.738281 C 118.53125 194.320312 119.714844 197.902344 121.046875 201.441406 Z M 137.132812 183.15625 C 137.914062 186.808594 138.792969 190.507812 139.777344 194.21875 C 133.335938 196.082031 127.398438 198.335938 122.054688 200.933594 C 120.742188 197.382812 119.558594 193.816406 118.503906 190.234375 C 124.078125 187.519531 130.347656 185.136719 137.132812 183.15625 Z M 134.589844 169.496094 C 135.226562 173.597656 135.976562 177.769531 136.875 182 C 130.101562 183.964844 123.816406 186.332031 118.1875 189.09375 C 117.03125 185.003906 116.046875 180.917969 115.238281 176.859375 C 121.046875 174.03125 127.542969 171.546875 134.589844 169.496094 Z M 132.410156 145.390625 C 132.554688 152.613281 133.234375 160.308594 134.417969 168.324219 C 127.386719 170.363281 120.871094 172.816406 115.007812 175.675781 C 113.535156 167.933594 112.757812 160.308594 112.667969 152.988281 C 118.574219 150.070312 125.203125 147.53125 132.410156 145.390625 Z M 132.800781 131.746094 C 132.46875 135.515625 132.339844 139.484375 132.367188 143.601562 C 125.261719 145.679688 118.648438 148.195312 112.683594 151.066406 C 112.683594 150.476562 112.683594 149.867188 112.699219 149.277344 C 112.84375 142.707031 113.59375 136.554688 114.894531 130.921875 C 120.597656 128.105469 126.953125 125.621094 133.855469 123.542969 C 133.40625 126.15625 133.046875 128.871094 132.800781 131.746094 Z M 157.480469 138.34375 C 149.046875 139.484375 141.003906 141.144531 133.492188 143.269531 C 133.464844 139.355469 133.609375 135.527344 133.925781 131.832031 C 134.1875 128.8125 134.578125 125.925781 135.054688 123.210938 C 142.289062 121.085938 150.074219 119.425781 158.21875 118.285156 C 157.65625 124.753906 157.4375 131.628906 157.480469 138.34375 Z M 184.167969 116.4375 L 184.167969 136.554688 C 175.332031 136.582031 166.695312 137.160156 158.40625 138.230469 C 158.390625 131.066406 158.652344 124.292969 159.214844 118.140625 C 167.242188 117.070312 175.605469 116.480469 184.167969 116.4375 Z M 184.167969 106.917969 L 184.167969 115.308594 C 175.75 115.339844 167.402344 115.902344 159.328125 116.957031 C 159.632812 113.980469 160.007812 111.121094 160.484375 108.480469 C 168.066406 107.484375 176.011719 106.949219 184.167969 106.917969 Z M 184.167969 105.777344 C 176.140625 105.808594 168.285156 106.328125 160.6875 107.308594 C 161.0625 105.359375 161.480469 103.496094 161.945312 101.765625 C 169.09375 100.824219 176.542969 100.335938 184.167969 100.304688 Z M 185.296875 105.777344 L 185.296875 100.304688 C 192.9375 100.335938 200.386719 100.824219 207.535156 101.75 C 208.011719 103.484375 208.417969 105.34375 208.792969 107.308594 C 201.195312 106.328125 193.324219 105.808594 185.296875 105.777344 Z M 185.296875 115.308594 L 185.296875 106.917969 C 193.46875 106.933594 201.414062 107.46875 209.007812 108.464844 C 209.472656 111.121094 209.847656 113.953125 210.148438 116.925781 C 202.191406 115.886719 193.84375 115.339844 185.296875 115.308594 Z M 211.074219 138.230469 C 202.800781 137.144531 194.148438 136.566406 185.296875 136.554688 L 185.296875 116.4375 C 193.902344 116.464844 202.265625 117.042969 210.265625 118.082031 C 210.84375 124.25 211.101562 131.050781 211.074219 138.230469 Z M 235.566406 131.832031 C 235.886719 135.527344 236.015625 139.355469 235.984375 143.269531 C 228.492188 141.144531 220.445312 139.484375 212.011719 138.34375 C 212.042969 131.601562 211.839844 124.710938 211.261719 118.214844 C 219.4375 119.339844 227.191406 120.972656 234.398438 123.035156 C 234.902344 125.824219 235.292969 128.753906 235.566406 131.832031 Z M 237.113281 143.601562 C 237.15625 139.484375 237.011719 135.515625 236.695312 131.746094 C 236.433594 128.828125 236.074219 126.054688 235.609375 123.382812 C 242.511719 125.433594 248.867188 127.890625 254.558594 130.703125 C 255.871094 136.410156 256.636719 142.621094 256.796875 149.277344 C 256.8125 149.867188 256.796875 150.476562 256.8125 151.066406 C 250.847656 148.179688 244.230469 145.679688 237.113281 143.601562 Z M 235.046875 168.425781 C 236.261719 160.355469 236.9375 152.613281 237.082031 145.335938 C 244.246094 147.457031 250.875 150.011719 256.8125 152.960938 C 256.738281 160.324219 255.929688 168.023438 254.457031 175.820312 C 248.609375 172.945312 242.082031 170.476562 235.046875 168.425781 Z M 232.605469 182.015625 C 233.503906 177.8125 234.238281 173.683594 234.875 169.625 C 235.726562 169.871094 236.59375 170.101562 237.445312 170.363281 C 243.539062 172.28125 249.140625 174.507812 254.210938 177.003906 C 253.417969 181.019531 252.449219 185.0625 251.308594 189.09375 C 245.660156 186.347656 239.394531 183.964844 232.605469 182.015625 Z M 229.71875 194.21875 C 230.699219 190.492188 231.582031 186.78125 232.359375 183.113281 C 239.132812 185.0625 245.386719 187.445312 250.992188 190.191406 C 249.9375 193.785156 248.753906 197.382812 247.4375 200.949219 C 242.09375 198.347656 236.144531 196.082031 229.71875 194.21875 Z M 243.597656 210.421875 C 241.316406 215.5625 238.800781 220.53125 236.058594 225.3125 C 231.726562 223.1875 226.902344 221.355469 221.6875 219.839844 C 223.234375 215.664062 224.707031 211.359375 226.078125 206.972656 C 227.292969 203.058594 228.417969 199.171875 229.445312 195.332031 C 235.828125 197.164062 241.734375 199.402344 247.046875 202.003906 C 245.964844 204.832031 244.839844 207.648438 243.597656 210.421875 Z M 247.582031 232.621094 C 244.578125 230.121094 241.039062 227.839844 237.070312 225.816406 C 239.8125 221.023438 242.339844 216.039062 244.636719 210.882812 C 245.863281 208.113281 247.003906 205.324219 248.058594 202.507812 C 253.070312 205.050781 257.503906 207.910156 261.230469 211.058594 C 257.460938 218.464844 252.882812 225.703125 247.582031 232.621094 Z M 250.398438 235.175781 C 249.777344 234.554688 249.113281 233.949219 248.433594 233.355469 C 253.734375 226.453125 258.328125 219.230469 262.109375 211.824219 C 262.863281 212.503906 263.597656 213.167969 264.277344 213.859375 C 266.804688 216.386719 268.796875 218.972656 270.269531 221.628906 C 269.878906 222.308594 269.492188 222.988281 269.085938 223.652344 C 265.113281 230.078125 260.492188 236.042969 255.308594 241.5 C 254.066406 239.320312 252.433594 237.226562 250.398438 235.175781 Z M 231.394531 254.121094 C 231.003906 253.746094 230.585938 253.371094 230.167969 253.011719 C 236.363281 247.507812 242.226562 241.285156 247.523438 234.554688 C 247.597656 234.453125 247.667969 234.335938 247.742188 234.25 C 248.390625 234.8125 249.011719 235.390625 249.589844 235.96875 C 251.65625 238.035156 253.273438 240.171875 254.484375 242.351562 C 248.636719 248.375 242.035156 253.761719 234.800781 258.46875 C 233.933594 256.980469 232.792969 255.539062 231.394531 254.121094 Z M 209.167969 268.40625 C 209.082031 268.320312 209.007812 268.261719 208.921875 268.1875 C 215.867188 264.390625 222.757812 259.480469 229.3125 253.761719 C 229.761719 254.136719 230.195312 254.527344 230.597656 254.929688 C 231.941406 256.289062 233.027344 257.675781 233.863281 259.089844 C 226.785156 263.609375 219.117188 267.46875 210.914062 270.613281 C 210.453125 269.851562 209.875 269.113281 209.167969 268.40625 Z M 140.136719 253.734375 C 146.707031 259.464844 153.609375 264.375 160.558594 268.175781 C 160.472656 268.261719 160.382812 268.320312 160.3125 268.40625 C 159.605469 269.113281 159.027344 269.851562 158.550781 270.613281 C 150.347656 267.46875 142.691406 263.597656 135.617188 259.089844 C 136.714844 257.199219 138.246094 255.40625 140.136719 253.734375 Z M 121.722656 234.238281 C 121.8125 234.335938 121.882812 234.453125 121.96875 234.554688 C 127.253906 241.285156 133.117188 247.507812 139.3125 252.996094 C 138.894531 253.371094 138.476562 253.746094 138.070312 254.121094 C 136.671875 255.523438 135.53125 256.980469 134.664062 258.46875 C 127.441406 253.761719 120.84375 248.359375 114.996094 242.351562 C 116.570312 239.492188 118.851562 236.765625 121.722656 234.238281 Z M 121.046875 233.339844 C 120.367188 233.933594 119.703125 234.554688 119.082031 235.175781 C 117.03125 237.210938 115.414062 239.320312 114.171875 241.472656 C 108.972656 236.027344 104.367188 230.078125 100.410156 223.652344 C 99.988281 222.988281 99.613281 222.308594 99.210938 221.628906 C 101.128906 218.164062 103.890625 214.886719 107.371094 211.824219 C 111.167969 219.21875 115.746094 226.4375 121.046875 233.339844 Z M 124.859375 210.882812 C 127.140625 216.027344 129.667969 221.007812 132.410156 225.804688 C 128.4375 227.839844 124.902344 230.121094 121.910156 232.605469 C 116.613281 225.703125 112.019531 218.464844 108.25 211.058594 C 111.945312 207.953125 116.378906 205.09375 121.433594 202.550781 C 122.503906 205.355469 123.644531 208.125 124.859375 210.882812 Z M 143.414062 206.972656 C 144.789062 211.359375 146.261719 215.664062 147.792969 219.839844 C 142.578125 221.339844 137.753906 223.1875 133.421875 225.3125 C 130.691406 220.53125 128.164062 215.5625 125.882812 210.421875 C 124.65625 207.664062 123.53125 204.863281 122.460938 202.03125 C 127.730469 199.476562 133.636719 197.222656 140.066406 195.375 C 141.089844 199.203125 142.1875 203.085938 143.414062 206.972656 Z M 161.308594 190.941406 C 162.449219 199.679688 163.777344 208.199219 165.25 216.183594 C 159.546875 216.964844 154.101562 218.078125 149.003906 219.492188 C 146.128906 211.75 143.488281 203.503906 141.234375 195.042969 C 147.488281 193.28125 154.21875 191.910156 161.308594 190.941406 Z M 159.835938 178.433594 C 160.226562 182.234375 160.671875 186.046875 161.148438 189.800781 C 154.058594 190.753906 147.269531 192.125 140.929688 193.902344 C 139.964844 190.246094 139.082031 186.550781 138.289062 182.839844 C 144.988281 180.960938 152.226562 179.460938 159.835938 178.433594 Z M 158.566406 164.484375 C 158.765625 167.125 158.96875 169.554688 159.171875 171.691406 C 159.328125 173.554688 159.519531 175.429688 159.71875 177.292969 C 152.09375 178.304688 144.816406 179.792969 138.027344 181.683594 C 137.148438 177.511719 136.367188 173.335938 135.734375 169.164062 C 142.835938 167.15625 150.507812 165.582031 158.566406 164.484375 Z M 158.492188 163.355469 C 150.433594 164.425781 142.738281 165.984375 135.558594 168.007812 C 134.375 160.210938 133.652344 152.484375 133.523438 145.058594 C 140.960938 142.921875 149.003906 141.234375 157.496094 140.078125 C 157.566406 148.46875 158 156.585938 158.492188 163.355469 Z M 184.167969 161.640625 C 175.679688 161.652344 167.375 162.203125 159.402344 163.226562 C 158.824219 155.242188 158.476562 147.398438 158.421875 139.949219 C 166.636719 138.851562 175.273438 138.285156 184.167969 138.257812 Z M 210.078125 163.269531 C 202.121094 162.230469 193.800781 161.667969 185.296875 161.640625 L 185.296875 138.257812 C 194.148438 138.273438 202.800781 138.851562 211.074219 139.933594 C 211.015625 147.398438 210.667969 155.253906 210.078125 163.269531 Z M 211.003906 163.386719 C 211.492188 156.597656 211.910156 148.484375 212 140.046875 C 220.433594 141.191406 228.476562 142.863281 235.972656 145.015625 C 235.828125 152.46875 235.105469 160.253906 233.921875 168.09375 C 226.757812 166.058594 219.058594 164.46875 211.003906 163.386719 Z M 209.773438 177.292969 C 209.960938 175.429688 210.148438 173.554688 210.324219 171.691406 C 210.511719 169.566406 210.714844 167.171875 210.914062 164.542969 C 218.871094 165.625 226.542969 167.226562 233.746094 169.292969 C 233.097656 173.421875 232.332031 177.554688 231.453125 181.683594 C 224.664062 179.792969 217.386719 178.304688 209.773438 177.292969 Z M 208.332031 189.800781 C 208.808594 186.03125 209.253906 182.234375 209.660156 178.40625 C 217.226562 179.429688 224.476562 180.890625 231.21875 182.78125 C 230.410156 186.523438 229.53125 190.234375 228.5625 193.902344 C 222.207031 192.125 215.4375 190.753906 208.332031 189.800781 Z M 204.230469 216.183594 C 205.703125 208.183594 207.046875 199.664062 208.1875 190.925781 C 215.234375 191.878906 221.976562 193.238281 228.273438 195 C 226.007812 203.476562 223.347656 211.75 220.488281 219.507812 C 215.390625 218.078125 209.933594 216.964844 204.230469 216.183594 Z M 210.324219 243.03125 C 206.726562 242.035156 202.886719 241.226562 198.871094 240.664062 C 200.691406 233.789062 202.4375 225.859375 204.042969 217.296875 C 209.671875 218.0625 215.058594 219.160156 220.101562 220.558594 C 217.023438 228.792969 213.6875 236.402344 210.324219 243.03125 Z M 221.054688 247.0625 C 218.152344 245.644531 214.960938 244.417969 211.507812 243.378906 C 214.914062 236.675781 218.238281 229.066406 221.300781 220.894531 C 226.453125 222.378906 231.234375 224.199219 235.507812 226.292969 C 231.207031 233.71875 226.351562 240.664062 221.054688 247.0625 Z M 222.078125 247.582031 C 227.363281 241.183594 232.214844 234.222656 236.519531 226.800781 C 240.449219 228.792969 243.929688 231.058594 246.890625 233.515625 C 246.800781 233.628906 246.714844 233.730469 246.628906 233.847656 C 241.34375 240.578125 235.480469 246.785156 229.3125 252.261719 C 227.234375 250.542969 224.808594 248.96875 222.078125 247.582031 Z M 210.988281 244.402344 C 214.351562 245.398438 217.484375 246.570312 220.300781 247.925781 C 215.148438 254.050781 209.558594 259.652344 203.609375 264.605469 C 202.25 263.957031 200.761719 263.367188 199.175781 262.875 C 203.03125 258.339844 207.058594 251.984375 210.988281 244.402344 Z M 198.582031 241.773438 C 202.511719 242.308594 206.28125 243.089844 209.804688 244.070312 C 205.804688 251.828125 201.757812 258.167969 197.988281 262.527344 C 196.011719 261.980469 193.902344 261.546875 191.707031 261.257812 C 193.976562 256.882812 196.316406 250.136719 198.582031 241.773438 Z M 185.296875 240.851562 C 189.5 240.867188 193.601562 241.140625 197.542969 241.628906 C 195.246094 250.007812 192.847656 256.75 190.496094 261.113281 C 188.820312 260.925781 187.074219 260.824219 185.296875 260.808594 Z M 178.984375 261.113281 C 176.632812 256.75 174.234375 250.007812 171.953125 241.628906 C 175.851562 241.125 179.953125 240.867188 184.167969 240.835938 L 184.167969 260.808594 C 182.40625 260.824219 180.660156 260.925781 178.984375 261.113281 Z M 171.503906 262.527344 C 167.734375 258.167969 163.691406 251.828125 159.691406 244.070312 C 163.199219 243.105469 166.957031 242.324219 170.914062 241.773438 C 173.164062 250.152344 175.503906 256.882812 177.785156 261.257812 C 175.578125 261.53125 173.46875 261.964844 171.503906 262.527344 Z M 165.886719 264.605469 C 159.9375 259.652344 154.347656 254.050781 149.175781 247.941406 C 152.007812 246.597656 155.128906 245.414062 158.507812 244.402344 C 162.433594 251.984375 166.464844 258.339844 170.304688 262.859375 C 168.71875 263.367188 167.230469 263.941406 165.886719 264.605469 Z M 147.402344 247.566406 C 144.6875 248.96875 142.246094 250.542969 140.167969 252.246094 C 134 246.773438 128.136719 240.578125 122.863281 233.847656 C 122.765625 233.730469 122.675781 233.617188 122.589844 233.5 C 125.523438 231.074219 129.015625 228.835938 132.972656 226.828125 C 137.277344 234.238281 142.117188 241.183594 147.402344 247.566406 Z M 157.972656 243.378906 C 154.535156 244.402344 151.328125 245.632812 148.441406 247.046875 C 143.140625 240.664062 138.304688 233.730469 134 226.324219 C 138.246094 224.242188 143.027344 222.4375 148.195312 220.9375 C 151.257812 229.082031 154.578125 236.691406 157.972656 243.378906 Z M 170.609375 240.664062 C 166.59375 241.226562 162.765625 242.035156 159.171875 243.03125 C 155.804688 236.402344 152.484375 228.792969 149.410156 220.574219 C 154.417969 219.1875 159.792969 218.089844 165.453125 217.3125 C 167.054688 225.859375 168.804688 233.789062 170.609375 240.664062 Z M 184.167969 216.027344 L 184.167969 239.710938 C 179.867188 239.738281 175.679688 240.027344 171.648438 240.535156 C 169.816406 233.660156 168.039062 225.730469 166.421875 217.179688 C 172.097656 216.445312 178.046875 216.054688 184.167969 216.027344 Z M 184.167969 189.382812 L 184.167969 214.898438 C 178.003906 214.914062 171.980469 215.316406 166.21875 216.054688 C 164.714844 208.054688 163.375 199.519531 162.234375 190.8125 C 169.25 189.902344 176.601562 189.410156 184.167969 189.382812 Z M 184.167969 176.773438 L 184.167969 188.253906 C 176.585938 188.269531 169.195312 188.761719 162.089844 189.671875 C 161.597656 185.914062 161.148438 182.117188 160.746094 178.289062 C 168.242188 177.335938 176.082031 176.800781 184.167969 176.773438 Z M 184.167969 175.648438 C 176.097656 175.660156 168.195312 176.179688 160.628906 177.164062 C 160.195312 172.890625 159.804688 168.601562 159.488281 164.367188 C 167.375 163.34375 175.648438 162.792969 184.167969 162.765625 Z M 185.296875 175.648438 L 185.296875 162.78125 C 193.699219 162.808594 201.992188 163.386719 209.992188 164.425781 C 209.6875 168.644531 209.296875 172.902344 208.851562 177.164062 C 201.28125 176.179688 193.382812 175.660156 185.296875 175.648438 Z M 185.296875 188.253906 L 185.296875 176.773438 C 193.355469 176.800781 201.210938 177.308594 208.75 178.277344 C 208.34375 182.101562 207.898438 185.914062 207.40625 189.683594 C 200.300781 188.761719 192.890625 188.269531 185.296875 188.253906 Z M 185.296875 214.898438 L 185.296875 189.382812 C 192.835938 189.394531 200.199219 189.886719 207.261719 190.796875 C 206.121094 199.519531 204.761719 208.054688 203.277344 216.070312 C 197.5 215.316406 191.460938 214.914062 185.296875 214.898438 Z M 185.296875 216.027344 C 191.40625 216.054688 197.355469 216.429688 203.074219 217.167969 C 201.457031 225.730469 199.679688 233.660156 197.832031 240.546875 C 193.800781 240.027344 189.597656 239.738281 185.296875 239.710938 Z M 161.4375 267.378906 C 154.507812 263.609375 147.574219 258.730469 141.003906 252.980469 C 143.027344 251.351562 145.421875 249.832031 148.136719 248.460938 C 153.292969 254.585938 158.867188 260.171875 164.789062 265.171875 C 163.546875 265.835938 162.421875 266.570312 161.4375 267.378906 Z M 204.691406 265.171875 C 210.625 260.1875 216.199219 254.585938 221.34375 248.460938 C 224.027344 249.832031 226.410156 251.351562 228.449219 253.023438 C 221.875 258.742188 214.972656 263.625 208.042969 267.394531 C 207.058594 266.585938 205.949219 265.847656 204.691406 265.171875 Z M 196.503906 290.109375 C 195.363281 289.851562 194.265625 289.257812 193.210938 288.363281 C 195.074219 288.058594 196.835938 287.65625 198.496094 287.179688 C 200.660156 288.046875 202.785156 288.582031 205.066406 288.78125 C 202.25 289.347656 199.375 289.777344 196.503906 290.109375 Z M 207.953125 280.21875 C 203.652344 284.535156 194.523438 287.324219 184.734375 287.324219 C 174.941406 287.324219 165.828125 284.535156 161.511719 280.21875 C 159.835938 278.542969 158.984375 276.753906 158.984375 274.917969 C 158.984375 268.058594 170.535156 262.484375 184.734375 262.484375 C 194.523438 262.484375 203.652344 265.285156 207.953125 269.605469 C 209.644531 271.28125 210.496094 273.070312 210.496094 274.917969 C 210.496094 276.753906 209.644531 278.542969 207.953125 280.21875 Z M 96.0625 232.878906 C 96.121094 229.414062 97 226.046875 98.601562 222.800781 C 98.878906 223.289062 99.152344 223.765625 99.457031 224.257812 C 103.511719 230.84375 108.265625 236.953125 113.609375 242.539062 C 112.324219 245.082031 111.585938 247.695312 111.398438 250.367188 C 105.867188 245.414062 100.625 239.625 96.0625 232.878906 Z M 112.46875 251.320312 C 112.539062 248.589844 113.21875 245.949219 114.445312 243.40625 C 120.324219 249.386719 126.910156 254.773438 134.128906 259.464844 C 133.21875 261.285156 132.714844 263.148438 132.585938 265.054688 C 125.914062 261.53125 119.007812 257.011719 112.46875 251.320312 Z M 138.878906 276.984375 C 137.726562 275.84375 136.785156 274.660156 136.019531 273.460938 C 143.71875 276.246094 151.429688 277.964844 158.304688 278.746094 C 158.695312 279.480469 159.1875 280.175781 159.792969 280.867188 C 153.554688 281.144531 146.765625 280.175781 140.195312 278.210938 C 139.746094 277.808594 139.285156 277.402344 138.878906 276.984375 Z M 155.488281 286.558594 C 154.390625 286.183594 153.308594 285.777344 152.269531 285.359375 C 155.894531 285.765625 159.632812 285.535156 165.238281 284.882812 C 166.480469 285.535156 167.820312 286.109375 169.28125 286.601562 C 166.203125 287.640625 163.128906 287.960938 159.375 287.613281 C 159.359375 287.613281 159.328125 287.613281 159.328125 287.613281 C 158.042969 287.296875 156.757812 286.933594 155.488281 286.558594 Z M 213.976562 286.558594 C 212.707031 286.933594 211.433594 287.28125 210.148438 287.613281 C 210.136719 287.613281 210.136719 287.613281 210.121094 287.613281 C 206.367188 287.960938 203.320312 287.640625 200.257812 286.617188 C 201.714844 286.109375 203.074219 285.535156 204.300781 284.898438 C 209.859375 285.535156 213.585938 285.765625 217.199219 285.359375 C 216.15625 285.777344 215.074219 286.183594 213.976562 286.558594 Z M 229.269531 278.210938 C 222.699219 280.175781 215.925781 281.144531 209.714844 280.867188 C 210.308594 280.175781 210.800781 279.480469 211.203125 278.746094 C 218.050781 277.964844 225.761719 276.261719 233.457031 273.472656 C 232.679688 274.660156 231.738281 275.84375 230.597656 276.984375 C 230.179688 277.402344 229.71875 277.808594 229.269531 278.210938 Z M 236.882812 265.070312 C 236.765625 263.148438 236.246094 261.300781 235.335938 259.464844 C 242.570312 254.773438 249.15625 249.398438 255.035156 243.40625 C 256.289062 245.976562 256.941406 248.636719 257 251.335938 C 250.457031 257.011719 243.554688 261.546875 236.882812 265.070312 Z M 258.082031 250.382812 C 257.894531 247.710938 257.15625 245.097656 255.859375 242.554688 C 261.230469 236.953125 265.980469 230.84375 270.039062 224.257812 C 270.328125 223.765625 270.601562 223.289062 270.890625 222.800781 C 272.507812 226.078125 273.359375 229.457031 273.402344 232.90625 C 268.839844 239.636719 263.613281 245.429688 258.082031 250.382812 Z M 274.457031 231.277344 C 274.183594 227.984375 273.214844 224.777344 271.585938 221.644531 C 273.347656 218.566406 274.964844 215.449219 276.378906 212.269531 C 278.15625 215.839844 279.066406 219.476562 279.109375 223.21875 C 277.664062 226.035156 276.105469 228.71875 274.457031 231.277344 Z M 270.660156 186.175781 C 266.386719 182.550781 261.273438 179.257812 255.511719 176.339844 C 257 168.570312 257.820312 160.886719 257.921875 153.507812 C 263.914062 156.554688 269.160156 160.019531 273.519531 163.820312 C 273.519531 170.679688 272.683594 177.742188 270.964844 184.960938 C 270.875 185.367188 270.761719 185.769531 270.660156 186.175781 Z M 220.433594 94.585938 C 223.507812 97.34375 226.121094 100.738281 228.304688 104.738281 C 222.035156 103.007812 215.335938 101.664062 208.34375 100.722656 C 207.320312 97.042969 206.035156 93.820312 204.445312 91.265625 C 210.035156 92.042969 215.390625 93.15625 220.433594 94.585938 Z M 149.003906 94.628906 C 154.042969 93.199219 159.429688 92.074219 165.035156 91.28125 C 163.445312 93.835938 162.175781 97.054688 161.148438 100.722656 C 154.160156 101.675781 147.460938 103.019531 141.191406 104.738281 C 143.34375 100.78125 145.941406 97.386719 149.003906 94.628906 Z M 98.515625 184.960938 C 96.8125 177.742188 95.976562 170.664062 95.960938 163.804688 C 100.277344 160.066406 105.519531 156.613281 111.558594 153.550781 C 111.671875 160.875 112.480469 168.46875 113.953125 176.179688 C 108.179688 179.085938 103.066406 182.347656 98.777344 185.957031 C 98.691406 185.625 98.601562 185.292969 98.515625 184.960938 Z M 85.777344 211.636719 C 85.777344 207.664062 86.746094 203.792969 88.582031 200.097656 C 89.664062 203.734375 90.992188 207.347656 92.523438 210.898438 C 90.734375 214.207031 89.679688 217.613281 89.347656 221.082031 C 88.046875 218.367188 86.863281 215.535156 85.808594 212.574219 C 85.792969 212.269531 85.777344 211.953125 85.777344 211.636719 Z M 91.121094 229.328125 C 90.820312 228.171875 90.617188 227.015625 90.5 225.847656 C 91.886719 228.402344 93.359375 230.855469 94.921875 233.183594 C 94.921875 233.195312 94.921875 233.210938 94.921875 233.226562 C 94.921875 234.886719 95.109375 236.53125 95.46875 238.164062 C 93.867188 235.289062 92.421875 232.34375 91.121094 229.328125 Z M 102.761719 249.355469 C 102.691406 249.285156 102.617188 249.226562 102.53125 249.199219 C 101 247.117188 99.570312 244.980469 98.214844 242.800781 C 97.027344 240.214844 96.320312 237.574219 96.121094 234.902344 C 100.683594 241.398438 105.867188 247.003906 111.324219 251.796875 C 111.339844 254.441406 111.917969 257.054688 113.03125 259.597656 C 109.246094 256.59375 105.75 253.199219 102.761719 249.355469 Z M 120.554688 268.074219 C 119.066406 266.65625 117.765625 265.199219 116.683594 263.699219 C 122.242188 267.46875 128.25 270.484375 134.332031 272.824219 C 135.167969 274.398438 136.296875 275.914062 137.726562 277.402344 C 133.074219 275.800781 128.613281 273.707031 124.582031 271.191406 C 123.226562 270.183594 121.882812 269.15625 120.554688 268.074219 Z M 248.925781 268.074219 C 247.566406 269.171875 246.183594 270.238281 244.78125 271.265625 C 240.765625 273.777344 236.304688 275.84375 231.683594 277.429688 C 233.097656 275.972656 234.238281 274.425781 235.105469 272.839844 C 241.183594 270.515625 247.191406 267.496094 252.753906 263.726562 C 251.683594 265.214844 250.398438 266.671875 248.925781 268.074219 Z M 266.933594 249.199219 C 266.863281 249.226562 266.789062 249.285156 266.730469 249.355469 C 263.726562 253.214844 260.21875 256.605469 256.433594 259.625 C 257.546875 257.070312 258.125 254.453125 258.140625 251.8125 C 263.597656 247.015625 268.78125 241.414062 273.347656 234.945312 C 273.144531 237.617188 272.421875 240.246094 271.253906 242.828125 C 269.894531 244.996094 268.464844 247.117188 266.933594 249.199219 Z M 273.996094 238.164062 C 274.355469 236.546875 274.546875 234.886719 274.546875 233.226562 C 276.105469 230.886719 277.578125 228.460938 278.964844 225.890625 C 278.847656 227.042969 278.644531 228.1875 278.359375 229.339844 C 277.042969 232.34375 275.597656 235.304688 273.996094 238.164062 Z M 277.835938 147.152344 C 275.945312 144.699219 273.664062 142.34375 271.078125 140.09375 C 270.183594 137.304688 269.128906 134.5625 267.917969 131.890625 C 269.78125 133.679688 271.441406 135.527344 272.855469 137.464844 C 274.703125 140.597656 276.351562 143.847656 277.835938 147.152344 Z M 246.585938 111.398438 C 241.472656 108.984375 235.839844 106.890625 229.804688 105.15625 C 227.839844 101.34375 225.5 98.050781 222.773438 95.25 C 226.785156 96.492188 230.585938 97.953125 234.109375 99.582031 C 235.480469 100.347656 236.839844 101.128906 238.179688 101.964844 C 241.359375 104.566406 244.175781 107.726562 246.585938 111.398438 Z M 200.171875 88.015625 C 200.820312 88.535156 201.425781 89.128906 202.019531 89.820312 C 196.605469 89.171875 191.015625 88.824219 185.296875 88.796875 L 185.296875 86.875 C 190.320312 86.890625 195.289062 87.277344 200.171875 88.015625 Z M 184.167969 86.859375 L 184.167969 88.796875 C 178.480469 88.824219 172.875 89.183594 167.460938 89.835938 C 168.039062 89.140625 168.660156 88.535156 169.308594 88.015625 C 174.160156 87.277344 179.128906 86.890625 184.167969 86.859375 Z M 96.695312 137.40625 C 98.097656 135.515625 99.714844 133.679688 101.550781 131.933594 C 100.320312 134.632812 99.265625 137.40625 98.371094 140.238281 C 95.742188 142.503906 93.476562 144.902344 91.585938 147.355469 C 93.117188 143.933594 94.820312 140.613281 96.695312 137.40625 Z M 82.789062 186.898438 C 82.976562 184.050781 83.640625 181.265625 84.769531 178.550781 C 85.144531 185.238281 86.285156 191.910156 88.117188 198.480469 C 86.242188 201.929688 85.128906 205.484375 84.78125 209.136719 C 83.453125 202.523438 82.761719 195.722656 82.761719 188.832031 C 82.761719 188.183594 82.773438 187.53125 82.789062 186.898438 Z M 81.027344 188.585938 C 81.027344 188.660156 81.042969 188.71875 81.070312 188.789062 C 81.070312 188.804688 81.054688 188.816406 81.054688 188.832031 C 81.054688 216.515625 91.84375 242.554688 111.425781 262.136719 C 131.011719 281.71875 157.035156 292.492188 184.734375 292.492188 C 241.863281 292.492188 288.351562 246.035156 288.410156 188.917969 C 288.453125 188.816406 288.480469 188.703125 288.480469 188.585938 C 288.480469 187.675781 288.421875 186.78125 288.335938 185.886719 C 287.601562 159.300781 276.929688 134.402344 258.039062 115.527344 C 238.457031 95.945312 212.433594 85.15625 184.734375 85.15625 C 157.046875 85.15625 131.011719 95.945312 111.425781 115.527344 C 92.421875 134.53125 81.734375 159.601562 81.128906 186.390625 C 81.054688 187.128906 81.027344 187.851562 81.027344 188.585938 " fill-opacity="1" fill-rule="nonzero"/><g clip-path="url(#9b84dbdd2b)"><path fill="#2291f6" d="M 294.488281 209.023438 C 292.914062 209.152344 291.902344 210.207031 292.222656 211.359375 C 292.539062 212.53125 294.070312 213.367188 295.644531 213.238281 C 306.648438 212.3125 315.488281 210.652344 321.566406 208.285156 C 328.023438 205.773438 331.558594 202.421875 331.558594 198.25 C 331.558594 189.582031 315.039062 179.53125 288.351562 170.304688 C 262.585938 161.394531 227.046875 152.960938 187.835938 147.140625 C 168.023438 144.207031 149.191406 142.214844 132.078125 141.117188 C 107.296875 139.527344 86.066406 139.847656 70.746094 141.925781 C 54.484375 144.136719 44.5625 148.484375 43.539062 154.867188 C 43.480469 155.242188 43.449219 155.617188 43.449219 155.976562 C 43.449219 159.574219 46.136719 163.328125 51.105469 167.125 C 55.886719 170.75 62.847656 174.492188 71.597656 178.1875 C 73.042969 178.796875 74.789062 178.492188 75.496094 177.480469 C 76.203125 176.484375 75.613281 175.183594 74.167969 174.5625 C 65.949219 171.097656 59.464844 167.632812 55.148438 164.339844 C 51.335938 161.4375 49.269531 158.734375 49.269531 156.351562 C 49.269531 156.121094 49.300781 155.90625 49.328125 155.71875 C 50.050781 151.226562 58.414062 147.976562 72.261719 146.101562 C 87.050781 144.078125 107.757812 143.804688 132.078125 145.347656 C 149.003906 146.433594 167.632812 148.410156 187.171875 151.3125 C 225.90625 157.046875 260.941406 165.351562 286.257812 174.101562 C 310.632812 182.535156 325.726562 191.128906 325.726562 197.871094 C 325.726562 200.457031 323.167969 202.683594 318.492188 204.5 C 312.988281 206.640625 304.800781 208.15625 294.488281 209.023438 " fill-opacity="1" fill-rule="nonzero"/></g><g clip-path="url(#38f348a5d2)"><path fill="#2291f6" d="M 291.789062 82.789062 L 291.933594 82.789062 C 292.914062 95.714844 303.226562 106.039062 316.152344 107.007812 L 316.152344 107.164062 C 303.226562 108.132812 292.914062 118.457031 291.933594 131.382812 L 291.789062 131.382812 C 290.804688 118.457031 280.496094 108.132812 267.570312 107.164062 L 267.570312 107.007812 C 280.496094 106.039062 290.804688 95.714844 291.789062 82.789062 " fill-opacity="1" fill-rule="evenodd"/></g><path fill="#2291f6" d="M 316.542969 127.382812 L 316.613281 127.382812 C 317.019531 132.886719 321.40625 137.277344 326.894531 137.679688 L 326.894531 137.753906 C 321.40625 138.15625 317.019531 142.546875 316.613281 148.035156 L 316.542969 148.035156 C 316.136719 142.546875 311.746094 138.15625 306.246094 137.753906 L 306.246094 137.679688 C 311.746094 137.277344 316.136719 132.886719 316.542969 127.382812 " fill-opacity="1" fill-rule="evenodd"/><path stroke-linecap="butt" transform="matrix(0.73475, -0.150472, 0.150472, 0.73475, 9.76211, 165.780575)" fill="none" stroke-linejoin="miter" d="M 12.819596 54.998447 L 44.791958 55.001641 C 45.573365 55.002174 46.189325 54.330854 46.189859 53.549448 L 46.189182 41.27367 C 46.188671 40.497367 45.575567 39.882696 44.794161 39.882162 L 19.600132 39.879536 C 18.807476 39.882015 18.194373 39.267344 18.194906 38.485937 L 18.193874 26.731097 C 18.196497 25.939486 18.811168 25.326382 19.603824 25.323904 L 44.792751 25.325485 C 45.574157 25.326018 46.190117 24.654698 46.190651 23.873292 L 46.18684 11.612821 C 46.189463 10.82121 45.571257 10.205494 44.794953 10.206006 L 12.822591 10.202812 C 6.218908 10.206113 1.394917 15.018419 1.396128 21.632307 L 1.395203 43.573029 C 1.396414 50.186917 6.221015 55.002793 12.819596 54.998447 Z M 12.819596 54.998447 " stroke="#231f20" stroke-width="6.719892" stroke-opacity="1" stroke-miterlimit="4"/><path stroke-linecap="butt" transform="matrix(0.740426, -0.119454, 0.119454, 0.740426, 45.78489, 158.492978)" fill="none" stroke-linejoin="miter" d="M 12.709726 55.001394 L 26.653844 54.998299 C 27.434747 54.997666 28.050636 54.384812 28.050003 53.603909 L 28.051102 38.489267 C 28.047816 37.692109 28.663705 37.079255 29.444607 37.078622 L 36.508723 37.078737 C 37.236547 37.080093 37.907502 36.518328 37.902887 35.794815 L 37.906824 11.833318 C 37.903545 10.872615 37.346092 10.207632 36.444439 10.20461 L 22.511434 10.204223 C 21.720247 10.203196 21.103529 10.821192 21.105656 11.56013 L 21.103884 22.754835 C 21.103351 23.641063 20.437538 24.203658 19.656636 24.20429 C 18.86545 24.203264 18.196364 23.641611 18.191755 22.754553 L 18.193527 11.559849 C 18.1914 10.820911 17.578545 10.205022 16.797643 10.205654 L 2.859496 10.204437 C 1.957013 10.206557 1.39536 10.875643 1.394327 11.830374 L 1.395531 35.792701 C 1.394175 36.520526 2.079516 37.079526 2.802199 37.080052 L 9.856031 37.078508 C 10.636933 37.077875 11.249788 37.693764 11.248761 38.48495 L 11.251976 53.605564 C 11.247466 54.385637 11.91854 55.000367 12.709726 55.001394 Z M 12.709726 55.001394 " stroke="#231f20" stroke-width="6.719892" stroke-opacity="1" stroke-miterlimit="4"/><path stroke-linecap="butt" transform="matrix(0.744798, -0.0881841, 0.0881841, 0.744798, 75.93036, 153.584755)" fill="none" stroke-linejoin="miter" d="M 2.801825 54.99897 L 37.180851 54.999552 C 42.441448 54.998287 46.297647 51.133217 46.296994 45.867448 L 46.29639 39.715328 C 46.299452 36.411521 43.894128 34.002622 40.600054 34.005957 L 40.091613 34.003449 C 39.299587 34.004078 38.685104 33.391118 38.683251 32.609436 C 38.682622 31.81741 39.300754 31.203539 40.092781 31.20291 L 40.596661 31.199633 C 43.890123 31.201471 46.299023 28.796147 46.297525 25.486556 L 46.296922 19.334436 C 46.300828 14.074451 42.442768 10.203348 37.182171 10.204613 L 2.803145 10.204031 C 2.011119 10.20466 1.392986 10.81853 1.393615 11.610556 L 1.393462 53.604957 C 1.395316 54.386639 2.009799 54.999599 2.801825 54.99897 Z M 19.599697 26.169905 C 18.807671 26.170534 18.193188 25.557574 18.192559 24.765547 C 18.195878 23.984478 18.808838 23.369995 19.600864 23.369366 L 27.992748 23.366471 C 28.773818 23.369789 29.3883 23.982749 29.390154 24.764431 C 29.390783 25.556457 28.77265 26.170328 27.996141 26.172794 Z M 19.60145 41.836071 C 18.809424 41.8367 18.194941 41.223739 18.193087 40.442058 C 18.196406 39.660988 18.809366 39.046505 19.601392 39.045877 L 27.992664 39.048153 C 28.774346 39.046299 29.388216 39.664432 29.390682 40.440941 C 29.387364 41.222011 28.774403 41.836494 27.992722 41.838347 Z M 19.60145 41.836071 " stroke="#231f20" stroke-width="6.719892" stroke-opacity="1" stroke-miterlimit="4"/><path stroke-linecap="butt" transform="matrix(0.748072, -0.0537389, 0.0537389, 0.748072, 112.619661, 149.268506)" fill="none" stroke-linejoin="miter" d="M 2.854976 54.998337 L 44.848065 55.002019 C 45.626217 55.00048 46.244683 54.386967 46.243516 53.60362 L 46.245982 42.956639 C 46.244442 42.178487 45.573412 41.561111 44.795259 41.56265 L 19.600146 41.564672 C 18.806409 41.565092 18.192897 40.946626 18.196552 40.168847 C 18.196132 39.37511 18.809403 38.761224 19.60314 38.760804 L 42.610001 38.763461 C 43.388153 38.761922 44.001424 38.148036 44.000258 37.364689 L 44.000412 27.840219 C 44.004067 27.06244 43.333037 26.445064 42.554885 26.446603 L 19.600346 26.442483 C 18.811804 26.443277 18.192723 25.829633 18.196378 25.051854 C 18.195958 24.258117 18.809229 23.644231 19.602966 23.643811 L 44.850402 23.640327 C 45.628181 23.643982 46.241824 23.024901 46.24548 22.247122 L 46.241631 11.615353 C 46.241211 10.821616 45.627698 10.20315 44.849546 10.20469 L 2.803761 10.207665 C 2.010397 10.20289 1.396753 10.821971 1.391978 11.615335 L 1.393864 53.603602 C 1.39503 54.386949 2.076824 54.999877 2.854976 54.998337 Z M 2.854976 54.998337 " stroke="#231f20" stroke-width="6.719892" stroke-opacity="1" stroke-miterlimit="4"/><path stroke-linecap="butt" transform="matrix(0.749754, -0.0192199, 0.0192199, 0.749754, 149.425718, 146.65165)" fill="none" stroke-linejoin="miter" d="M 2.799824 55.002203 L 16.799231 55.001583 C 17.580758 55.000777 18.191931 54.328719 18.196199 53.552531 L 18.193582 40.443991 C 18.192776 39.662464 18.807688 39.047812 19.599629 39.047273 L 27.992971 39.048824 C 28.774499 39.048018 29.389151 39.66293 29.389957 40.444457 L 29.391239 53.605063 C 29.386838 54.386457 30.006697 55.001502 30.798637 55.000963 L 44.792837 55.00021 C 45.574365 54.999405 46.190611 54.332686 46.189805 53.551159 L 46.190121 39.718498 C 46.19157 36.410156 43.783692 34.00391 40.475351 34.002462 L 39.985528 34.005536 C 39.18838 34.005941 38.573728 33.391029 38.572922 32.609502 C 38.57759 31.817695 39.192502 31.203042 39.984443 31.202504 L 40.474266 31.19943 C 43.782607 31.200878 46.188719 28.798208 46.190168 25.489866 L 46.191599 19.33684 C 46.191033 14.07468 42.335839 10.20378 37.073679 10.204346 L 2.801954 10.206291 C 2.010013 10.20683 1.395101 10.821482 1.39564 11.613423 L 1.392426 53.606302 C 1.393365 54.382623 2.008017 54.997535 2.799824 55.002203 Z M 19.601419 26.173298 C 18.809612 26.16863 18.19496 25.553718 18.194421 24.761778 C 18.193482 23.985457 18.808393 23.370805 19.600334 23.370266 L 27.99381 23.36661 C 28.775204 23.371011 29.389856 23.985922 29.390795 24.762243 C 29.391334 25.554184 28.776422 26.168836 27.994895 26.169642 Z M 19.601419 26.173298 " stroke="#231f20" stroke-width="6.719892" stroke-opacity="1" stroke-miterlimit="4"/><path stroke-linecap="butt" transform="matrix(0.749844, 0.0153196, -0.0153196, 0.749844, 186.270578, 145.733839)" fill="none" stroke-linejoin="miter" d="M 12.822641 55.000272 L 44.792813 54.998286 C 45.574219 54.997949 46.190891 54.328964 46.190661 53.552765 L 46.189856 41.274178 C 46.189627 40.497979 45.572713 39.880243 44.796514 39.880472 L 19.603737 39.879439 C 18.806709 39.880094 18.195109 39.267459 18.194773 38.486053 L 18.194299 26.733611 C 18.193644 25.936583 18.811486 25.324877 19.603307 25.324328 L 44.796084 25.325361 C 45.572283 25.325131 46.188955 24.656145 46.188619 23.874739 L 46.188134 11.611774 C 46.187585 10.819953 45.575985 10.207318 44.794579 10.207654 L 12.824301 10.204434 C 6.218746 10.203943 1.394178 15.017037 1.3939 21.633006 L 1.394069 43.569871 C 1.393791 50.18584 6.217086 54.999782 12.822641 55.000272 Z M 12.822641 55.000272 " stroke="#231f20" stroke-width="6.719892" stroke-opacity="1" stroke-miterlimit="4"/><path stroke-linecap="butt" transform="matrix(0.748539, 0.0467851, -0.0467851, 0.748539, 223.012197, 146.572608)" fill="none" stroke-linejoin="miter" d="M 2.857628 54.998713 L 16.80145 54.998688 C 17.579229 55.00226 18.19294 54.384649 18.196512 53.60687 L 18.192916 41.275786 C 18.196488 40.498007 18.810199 39.880396 19.603572 39.882993 C 20.381027 39.881368 20.997014 40.552583 20.994416 41.345957 L 20.998662 53.603941 C 20.995414 54.386918 21.665332 55.002578 22.442787 55.000952 L 36.386609 55.000927 C 37.179658 54.998326 37.793693 54.385913 37.797266 53.608134 L 37.797514 11.614873 C 37.794914 10.821824 37.124996 10.206165 36.331622 10.203567 L 22.392998 10.203267 C 21.610345 10.205218 20.996635 10.822829 20.993712 11.611005 L 20.996659 23.931692 C 20.998284 24.709147 20.379051 25.321885 19.601597 25.32351 C 18.808548 25.326111 18.19581 24.706878 18.194184 23.929423 L 18.191562 11.613934 C 18.19416 10.82056 17.524242 10.204901 16.746788 10.206527 L 2.802965 10.206552 C 2.009591 10.203954 1.395881 10.821565 1.393284 11.614939 L 1.393035 53.6082 C 1.394661 54.385654 2.080173 55.000339 2.857628 54.998713 Z M 2.857628 54.998713 " stroke="#231f20" stroke-width="6.719892" stroke-opacity="1" stroke-miterlimit="4"/><path stroke-linecap="butt" transform="matrix(0.746227, 0.0751361, -0.0751361, 0.746227, 253.302614, 148.483877)" fill="none" stroke-linejoin="miter" d="M 2.855409 55.001729 L 16.800444 55.000522 C 17.580408 55.000509 18.193595 54.383894 18.193582 53.60393 L 18.193937 45.757126 C 18.194446 44.982344 18.807633 44.365728 19.603143 44.36415 C 20.383107 44.364137 20.995098 45.03537 20.995111 45.815335 L 20.994198 53.604613 C 20.994211 54.384577 21.668352 54.997206 22.443134 54.997715 L 36.38869 55.00169 C 37.179019 55.000634 37.797388 54.383497 37.797375 53.603532 L 37.797362 21.630179 C 37.796486 15.018882 32.982823 10.206075 26.366343 10.207473 L 12.823985 10.204778 C 6.217869 10.205132 1.394177 15.014656 1.395574 21.631136 L 1.395587 53.604489 C 1.3956 54.384453 2.075445 55.001742 2.855409 55.001729 Z M 19.600727 30.927 C 18.810399 30.928056 18.193784 30.31487 18.192205 29.519359 L 18.19227 25.048946 C 18.196395 24.258096 18.809582 23.64148 19.59991 23.640424 C 20.379874 23.640411 20.997011 24.258779 20.998068 25.049108 L 20.998004 29.519521 C 20.9944 30.315553 20.380692 30.926987 19.600727 30.927 Z M 19.600727 30.927 " stroke="#231f20" stroke-width="6.719892" stroke-opacity="1" stroke-miterlimit="4"/><path stroke-linecap="butt" transform="matrix(0.742415, 0.106397, -0.106397, 0.742415, 283.609409, 151.491552)" fill="none" stroke-linejoin="miter" d="M 2.804407 54.997782 L 34.773742 54.998998 C 41.37709 54.999737 46.191375 50.19 46.189897 43.571185 L 46.187106 37.310344 C 46.191523 30.695946 41.376631 25.8824 34.774022 25.886817 L 19.604367 25.882531 C 18.810347 25.885831 18.195772 25.26886 18.194689 24.490306 C 18.191389 23.696285 18.80836 23.081711 19.603119 23.083567 L 44.795276 23.082648 C 45.573829 23.081564 46.190801 22.46699 46.189717 21.688436 L 46.187435 11.612901 C 46.189291 10.818141 45.575455 10.206325 44.796902 10.207409 L 12.822411 10.206932 C 6.219063 10.206193 1.394467 15.017407 1.395206 21.631066 L 1.395058 27.908113 C 1.394319 34.511461 6.219522 39.323529 12.822131 39.319113 L 27.996941 39.32266 C 28.775495 39.321576 29.390069 39.938547 29.387475 40.728151 C 29.388559 41.506705 28.771587 42.121279 27.993034 42.122363 L 2.800877 42.123281 C 2.011273 42.120687 1.395041 42.740417 1.396124 43.518971 L 1.394728 53.605557 C 1.395812 54.38411 2.010386 55.001082 2.804407 54.997782 Z M 2.804407 54.997782 " stroke="#231f20" stroke-width="6.719892" stroke-opacity="1" stroke-miterlimit="4"/><path stroke-linecap="butt" transform="matrix(0.736725, 0.140485, -0.140485, 0.736725, 320.089963, 156.745771)" fill="none" stroke-linejoin="miter" d="M 2.858099 55.001087 L 44.851128 54.999774 C 45.630519 54.999614 46.244841 54.384064 46.244681 53.604674 L 46.245175 42.957799 C 46.245015 42.178408 45.576353 41.563609 44.796962 41.563769 L 19.601145 41.564558 C 18.810547 41.561553 18.194997 40.94723 18.194837 40.16784 C 18.192726 39.378217 18.807048 38.762668 19.601787 38.759581 L 42.60854 38.762653 C 43.38793 38.762493 44.002253 38.146944 44.002092 37.367553 L 44.003791 27.839209 C 44.00363 27.059819 43.329852 26.445995 42.555578 26.44518 L 19.601938 26.442584 C 18.807199 26.445671 18.196766 25.830373 18.196606 25.050982 C 18.193519 24.256244 18.807842 23.640694 19.603556 23.642723 L 44.84737 23.643387 C 45.62676 23.643227 46.246199 23.026702 46.246039 22.247312 L 46.243368 11.611644 C 46.246373 10.821046 45.630823 10.206724 44.851433 10.206884 L 2.804315 10.202605 C 2.009577 10.205692 1.395254 10.821241 1.392249 11.611839 L 1.393563 53.604869 C 1.393723 54.384259 2.078709 55.001247 2.858099 55.001087 Z M 2.858099 55.001087 " stroke="#231f20" stroke-width="6.719892" stroke-opacity="1" stroke-miterlimit="4"/><g fill="#2291f6" fill-opacity="1"><g transform="translate(18.038061, 206.191848)"><g><path d="M 9.421875 -1.929688 L 32.910156 -6.738281 C 33.488281 -6.859375 33.839844 -7.445312 33.71875 -8.019531 L 31.875 -17.03125 C 31.757812 -17.605469 31.210938 -17.964844 30.636719 -17.847656 L 12.125 -14.054688 C 11.546875 -13.9375 11.003906 -14.296875 10.882812 -14.875 L 9.117188 -23.511719 C 8.996094 -24.089844 9.355469 -24.632812 9.933594 -24.753906 L 28.445312 -28.542969 C 29.023438 -28.660156 29.375 -29.246094 29.253906 -29.824219 L 27.410156 -38.832031 C 27.292969 -39.410156 26.746094 -39.769531 26.171875 -39.652344 L 2.679688 -34.839844 C -2.171875 -33.847656 -4.988281 -29.582031 -3.992188 -24.730469 L -0.691406 -8.601562 C 0.304688 -3.75 4.566406 -0.933594 9.421875 -1.929688 Z M 9.421875 -1.929688 "/></g></g></g><g fill="#2291f6" fill-opacity="1"><g transform="translate(52.354846, 199.216411)"><g><path d="M 9.410156 -1.519531 L 19.734375 -3.183594 C 20.3125 -3.277344 20.695312 -3.808594 20.601562 -4.386719 L 18.796875 -15.582031 C 18.703125 -16.160156 19.085938 -16.691406 19.664062 -16.785156 L 24.890625 -17.625 C 25.429688 -17.714844 25.859375 -18.207031 25.773438 -18.746094 L 22.910156 -36.492188 C 22.796875 -37.195312 22.300781 -37.625 21.636719 -37.519531 L 11.316406 -35.855469 C 10.734375 -35.761719 10.351562 -35.230469 10.4375 -34.691406 L 11.777344 -26.398438 C 11.882812 -25.738281 11.453125 -25.242188 10.871094 -25.148438 C 10.292969 -25.054688 9.726562 -25.390625 9.621094 -26.050781 L 8.285156 -34.34375 C 8.195312 -34.882812 7.667969 -35.265625 7.085938 -35.171875 L -3.234375 -33.507812 C -3.898438 -33.398438 -4.234375 -32.835938 -4.121094 -32.128906 L -1.257812 -14.386719 C -1.171875 -13.847656 -0.605469 -13.511719 -0.0664062 -13.601562 L 5.15625 -14.441406 C 5.738281 -14.535156 6.265625 -14.15625 6.359375 -13.574219 L 8.164062 -2.378906 C 8.257812 -1.800781 8.832031 -1.425781 9.410156 -1.519531 Z M 9.410156 -1.519531 "/></g></g></g><g fill="#2291f6" fill-opacity="1"><g transform="translate(80.780486, 194.548625)"><g><path d="M 2.085938 -0.246094 L 27.691406 -3.277344 C 31.609375 -3.742188 34.144531 -6.960938 33.683594 -10.878906 L 33.140625 -15.46875 C 32.847656 -17.929688 30.84375 -19.507812 28.382812 -19.21875 L 28.007812 -19.171875 C 27.421875 -19.105469 26.910156 -19.507812 26.839844 -20.09375 C 26.769531 -20.675781 27.175781 -21.1875 27.757812 -21.257812 L 28.136719 -21.300781 C 30.59375 -21.59375 32.175781 -23.597656 31.886719 -26.058594 L 31.339844 -30.648438 C 30.878906 -34.566406 27.660156 -37.105469 23.738281 -36.640625 L -1.863281 -33.609375 C -2.449219 -33.539062 -2.851562 -33.027344 -2.785156 -32.441406 L 0.917969 -1.164062 C 0.988281 -0.582031 1.5 -0.179688 2.085938 -0.246094 Z M 12.050781 -23.203125 C 11.46875 -23.136719 10.957031 -23.539062 10.886719 -24.125 C 10.816406 -24.707031 11.222656 -25.21875 11.804688 -25.289062 L 18.0625 -26.03125 C 18.644531 -26.097656 19.15625 -25.695312 19.226562 -25.109375 C 19.296875 -24.527344 18.890625 -24.015625 18.308594 -23.945312 Z M 13.433594 -11.527344 C 12.851562 -11.457031 12.339844 -11.863281 12.269531 -12.445312 C 12.199219 -13.03125 12.605469 -13.542969 13.1875 -13.613281 L 19.445312 -14.355469 C 20.027344 -14.421875 20.539062 -14.019531 20.609375 -13.433594 C 20.679688 -12.851562 20.273438 -12.335938 19.691406 -12.269531 Z M 13.433594 -11.527344 "/></g></g></g><g fill="#2291f6" fill-opacity="1"><g transform="translate(115.575299, 190.41248)"><g><path d="M 2.136719 -0.152344 L 33.550781 -2.410156 C 34.136719 -2.453125 34.5625 -2.945312 34.519531 -3.53125 L 33.949219 -11.492188 C 33.90625 -12.078125 33.371094 -12.5 32.785156 -12.460938 L 13.9375 -11.105469 C 13.351562 -11.0625 12.855469 -11.492188 12.816406 -12.078125 C 12.773438 -12.664062 13.199219 -13.15625 13.785156 -13.199219 L 31 -14.4375 C 31.589844 -14.476562 32.015625 -14.972656 31.972656 -15.558594 L 31.460938 -22.679688 C 31.417969 -23.265625 30.882812 -23.691406 30.296875 -23.648438 L 13.125 -22.414062 C 12.539062 -22.371094 12.042969 -22.800781 12.003906 -23.386719 C 11.960938 -23.972656 12.386719 -24.464844 12.976562 -24.507812 L 31.863281 -25.867188 C 32.449219 -25.90625 32.878906 -26.402344 32.835938 -26.988281 L 32.265625 -34.945312 C 32.222656 -35.53125 31.730469 -35.960938 31.140625 -35.917969 L -0.3125 -33.65625 C -0.898438 -33.617188 -1.328125 -33.121094 -1.285156 -32.535156 L 0.972656 -1.121094 C 1.015625 -0.535156 1.550781 -0.109375 2.136719 -0.152344 Z M 2.136719 -0.152344 "/></g></g></g><g fill="#2291f6" fill-opacity="1"><g transform="translate(150.482811, 187.888098)"><g><path d="M 2.097656 -0.0546875 L 12.59375 -0.324219 C 13.179688 -0.339844 13.628906 -0.851562 13.613281 -1.441406 L 13.363281 -11.265625 C 13.347656 -11.851562 13.796875 -12.324219 14.386719 -12.339844 L 20.683594 -12.503906 C 21.269531 -12.515625 21.742188 -12.066406 21.757812 -11.480469 L 22.011719 -1.613281 C 22.027344 -1.027344 22.5 -0.578125 23.089844 -0.59375 L 33.582031 -0.859375 C 34.171875 -0.875 34.621094 -1.390625 34.605469 -1.980469 L 34.339844 -12.347656 C 34.273438 -14.824219 32.421875 -16.582031 29.945312 -16.519531 L 29.570312 -16.511719 C 28.980469 -16.496094 28.507812 -16.945312 28.492188 -17.53125 C 28.476562 -18.121094 28.929688 -18.59375 29.515625 -18.609375 L 29.894531 -18.617188 C 32.371094 -18.683594 34.128906 -20.535156 34.066406 -23.011719 L 33.945312 -27.628906 C 33.847656 -31.574219 30.875 -34.398438 26.929688 -34.296875 L 1.238281 -33.636719 C 0.648438 -33.621094 0.199219 -33.148438 0.214844 -32.558594 L 1.023438 -1.078125 C 1.039062 -0.488281 1.511719 -0.0390625 2.097656 -0.0546875 Z M 14.136719 -21.996094 C 13.550781 -21.980469 13.078125 -22.429688 13.0625 -23.019531 C 13.046875 -23.605469 13.496094 -24.078125 14.085938 -24.09375 L 20.382812 -24.257812 C 20.96875 -24.269531 21.441406 -23.820312 21.457031 -23.234375 C 21.472656 -22.644531 21.023438 -22.171875 20.433594 -22.15625 Z M 14.136719 -21.996094 "/></g></g></g><g fill="#2291f6" fill-opacity="1"><g transform="translate(185.427999, 186.975233)"><g><path d="M 9.613281 0.195312 L 33.585938 0.6875 C 34.175781 0.699219 34.648438 0.203125 34.660156 -0.382812 L 34.847656 -9.578125 C 34.859375 -10.167969 34.40625 -10.636719 33.820312 -10.648438 L 14.925781 -11.035156 C 14.339844 -11.046875 13.886719 -11.519531 13.898438 -12.105469 L 14.078125 -20.921875 C 14.089844 -21.511719 14.5625 -21.964844 15.148438 -21.953125 L 34.042969 -21.566406 C 34.628906 -21.554688 35.101562 -22.046875 35.113281 -22.636719 L 35.300781 -31.828125 C 35.3125 -32.417969 34.859375 -32.890625 34.273438 -32.902344 L 10.300781 -33.390625 C 5.347656 -33.492188 1.660156 -29.953125 1.5625 -25 L 1.222656 -8.542969 C 1.125 -3.589844 4.660156 0.09375 9.613281 0.195312 Z M 9.613281 0.195312 "/></g></g></g><g fill="#2291f6" fill-opacity="1"><g transform="translate(220.439018, 187.742269)"><g><path d="M 2.136719 0.132812 L 12.574219 0.785156 C 13.160156 0.824219 13.648438 0.390625 13.6875 -0.195312 L 14.261719 -9.417969 C 14.300781 -10.003906 14.789062 -10.4375 15.375 -10.398438 C 15.960938 -10.363281 16.390625 -9.832031 16.355469 -9.242188 L 15.78125 -0.0664062 C 15.746094 0.519531 16.21875 1.015625 16.804688 1.050781 L 27.242188 1.703125 C 27.828125 1.738281 28.320312 1.308594 28.355469 0.71875 L 30.320312 -30.710938 C 30.355469 -31.300781 29.882812 -31.792969 29.296875 -31.828125 L 18.859375 -32.480469 C 18.273438 -32.515625 17.785156 -32.085938 17.746094 -31.5 L 17.171875 -22.277344 C 17.132812 -21.691406 16.644531 -21.257812 16.058594 -21.296875 C 15.46875 -21.332031 15.039062 -21.824219 15.074219 -22.410156 L 15.652344 -31.628906 C 15.6875 -32.214844 15.214844 -32.707031 14.625 -32.746094 L 4.191406 -33.398438 C 3.605469 -33.433594 3.113281 -33.003906 3.078125 -32.414062 L 1.113281 -0.980469 C 1.078125 -0.394531 1.550781 0.0976562 2.136719 0.132812 Z M 2.136719 0.132812 "/></g></g></g><g fill="#2291f6" fill-opacity="1"><g transform="translate(249.170128, 189.526353)"><g><path d="M 2.128906 0.214844 L 12.535156 1.261719 C 13.121094 1.320312 13.625 0.90625 13.683594 0.324219 L 14.273438 -5.527344 C 14.332031 -6.113281 14.835938 -6.523438 15.421875 -6.464844 C 16.007812 -6.40625 16.417969 -5.859375 16.359375 -5.273438 L 15.773438 0.53125 C 15.714844 1.117188 16.167969 1.628906 16.753906 1.6875 L 27.15625 2.734375 C 27.742188 2.792969 28.25 2.378906 28.308594 1.796875 L 30.710938 -22.0625 C 31.207031 -26.992188 27.976562 -30.945312 23.042969 -31.445312 L 12.933594 -32.460938 C 8.003906 -32.957031 4.046875 -29.726562 3.550781 -24.796875 L 1.148438 -0.9375 C 1.089844 -0.355469 1.546875 0.15625 2.128906 0.214844 Z M 16.433594 -16.492188 C 15.847656 -16.550781 15.433594 -17.058594 15.492188 -17.644531 L 15.828125 -20.984375 C 15.886719 -21.570312 16.394531 -21.984375 16.980469 -21.925781 C 17.5625 -21.867188 17.976562 -21.359375 17.917969 -20.773438 L 17.582031 -17.433594 C 17.523438 -16.847656 17.015625 -16.433594 16.433594 -16.492188 Z M 16.433594 -16.492188 "/></g></g></g><g fill="#2291f6" fill-opacity="1"><g transform="translate(277.757575, 192.32436)"><g><path d="M 2.078125 0.296875 L 25.8125 3.699219 C 30.71875 4.402344 34.804688 1.339844 35.507812 -3.566406 L 36.175781 -8.222656 C 36.878906 -13.125 33.816406 -17.214844 28.910156 -17.914062 L 17.644531 -19.53125 C 17.066406 -19.613281 16.671875 -20.136719 16.757812 -20.71875 C 16.839844 -21.300781 17.363281 -21.691406 17.945312 -21.609375 L 36.648438 -18.929688 C 37.230469 -18.84375 37.753906 -19.234375 37.839844 -19.816406 L 38.910156 -27.300781 C 38.992188 -27.882812 38.601562 -28.40625 38.019531 -28.488281 L 14.285156 -31.890625 C 9.378906 -32.59375 5.292969 -29.53125 4.589844 -24.625 L 3.921875 -19.96875 C 3.21875 -15.066406 6.28125 -10.976562 11.1875 -10.273438 L 22.453125 -8.660156 C 23.035156 -8.578125 23.425781 -8.054688 23.34375 -7.472656 C 23.257812 -6.890625 22.734375 -6.5 22.152344 -6.582031 L 3.449219 -9.261719 C 2.867188 -9.347656 2.34375 -8.953125 2.261719 -8.371094 L 1.1875 -0.890625 C 1.105469 -0.308594 1.496094 0.214844 2.078125 0.296875 Z M 2.078125 0.296875 "/></g></g></g><g fill="#2291f6" fill-opacity="1"><g transform="translate(312.36327, 197.265647)"><g><path d="M 2.105469 0.402344 L 33.039062 6.300781 C 33.617188 6.410156 34.160156 6.042969 34.269531 5.464844 L 35.761719 -2.371094 C 35.875 -2.949219 35.464844 -3.496094 34.886719 -3.605469 L 16.324219 -7.148438 C 15.746094 -7.257812 15.378906 -7.796875 15.492188 -8.375 C 15.601562 -8.953125 16.140625 -9.320312 16.71875 -9.210938 L 33.671875 -5.976562 C 34.25 -5.867188 34.789062 -6.234375 34.898438 -6.8125 L 36.238281 -13.824219 C 36.347656 -14.402344 35.9375 -14.949219 35.359375 -15.058594 L 18.449219 -18.285156 C 17.871094 -18.394531 17.503906 -18.933594 17.613281 -19.511719 C 17.722656 -20.089844 18.265625 -20.457031 18.84375 -20.347656 L 37.445312 -16.800781 C 38.023438 -16.6875 38.5625 -17.054688 38.671875 -17.632812 L 40.167969 -25.472656 C 40.277344 -26.046875 39.910156 -26.589844 39.332031 -26.699219 L 8.355469 -32.605469 C 7.777344 -32.714844 7.238281 -32.347656 7.128906 -31.773438 L 1.226562 -0.835938 C 1.117188 -0.257812 1.527344 0.292969 2.105469 0.402344 Z M 2.105469 0.402344 "/></g></g></g><g fill="#2291f6" fill-opacity="1"><g transform="translate(346.957403, 204.047259)"><g/></g></g><path stroke-linecap="butt" transform="matrix(0.744388, -0.0915813, 0.0915813, 0.744388, 93.336766, 194.599734)" fill="none" stroke-linejoin="miter" d="M 13.945488 20.997849 L 7.086744 20.998887 L 7.08354 8.698113 L 0.681525 8.697619 L 0.685948 4.652262 L 20.343551 4.651574 L 20.344298 8.697568 L 13.942284 8.697074 Z M 13.945488 20.997849 " stroke="#231f20" stroke-width="2.800008" stroke-opacity="1" stroke-miterlimit="4"/><path stroke-linecap="butt" transform="matrix(0.746327, -0.0741336, 0.0741336, 0.746327, 109.233353, 192.640768)" fill="none" stroke-linejoin="miter" d="M 21.504982 20.999134 L 1.825008 21.001802 L 1.821435 4.65054 L 20.605879 4.653129 L 20.607004 8.699096 L 8.67899 8.697149 L 8.680689 11.26196 L 18.76166 11.258394 L 18.763225 14.404162 L 8.682769 14.402546 L 8.680314 16.956477 L 21.50904 16.953682 Z M 21.504982 20.999134 " stroke="#231f20" stroke-width="2.800008" stroke-opacity="1" stroke-miterlimit="4"/><path stroke-linecap="butt" transform="matrix(0.747961, -0.0552589, 0.0552589, 0.747961, 126.227852, 190.946121)" fill="none" stroke-linejoin="miter" d="M 12.359656 21.353019 C 8.317489 21.35207 5.344569 20.521397 3.440898 18.860999 C 1.752722 17.394088 0.913775 15.389327 0.913667 12.845947 C 0.913943 10.297374 1.756731 8.291517 3.442798 6.817989 C 5.34602 5.162048 8.321504 4.332147 12.358477 4.332712 C 14.729297 4.335523 16.68868 4.605622 18.236243 5.148202 C 19.789001 5.691167 20.99283 6.432921 21.84773 7.373465 C 22.707441 8.319587 23.275538 9.395619 23.556448 10.612331 L 16.349341 10.612572 C 15.623267 9.342081 14.296724 8.706157 12.358939 8.709225 C 10.703559 8.707045 9.487847 9.186484 8.701798 10.141582 C 8.081347 10.905235 7.769682 11.801375 7.770846 12.845966 C 7.7672 13.88498 8.081906 14.785615 8.70496 15.54191 C 9.485607 16.497858 10.703429 16.97952 12.359193 16.976506 C 14.296594 16.978632 15.623275 16.34027 16.349242 15.067382 L 23.556349 15.067141 C 23.278027 16.28954 22.70727 17.370216 21.849271 18.309553 C 20.990887 19.254085 19.787153 19.995535 18.237684 20.5391 C 16.688215 21.082665 14.730476 21.355831 12.359656 21.353019 Z M 12.359656 21.353019 " stroke="#231f20" stroke-width="2.800008" stroke-opacity="1" stroke-miterlimit="4"/><path stroke-linecap="butt" transform="matrix(0.749187, -0.0349146, 0.0349146, 0.749187, 144.813746, 189.56946)" fill="none" stroke-linejoin="miter" d="M 24.150971 21.002369 L 17.294648 21.000895 L 17.294404 14.405191 L 8.680896 14.40525 L 8.68114 21.000954 L 1.824816 20.99948 L 1.820141 4.653415 L 8.681667 4.655132 L 8.681425 11.261241 L 17.294934 11.261182 L 17.289972 4.65483 L 24.151741 4.651344 Z M 24.150971 21.002369 " stroke="#231f20" stroke-width="2.800008" stroke-opacity="1" stroke-miterlimit="4"/><path stroke-linecap="butt" transform="matrix(0.749884, -0.0131592, 0.0131592, 0.749884, 164.57617, 188.642215)" fill="none" stroke-linejoin="miter" d="M 26.07566 21.000293 L 17.918198 20.997791 L 8.678531 9.938139 L 8.682319 21.002409 L 1.821898 21.001831 L 1.822244 4.65557 L 9.979798 4.652865 L 19.215262 15.655142 L 19.215585 4.653453 L 26.076006 4.654032 Z M 26.07566 21.000293 " stroke="#231f20" stroke-width="2.800008" stroke-opacity="1" stroke-miterlimit="4"/><path stroke-linecap="butt" transform="matrix(0.749956, 0.00810103, -0.00810103, 0.749956, 185.793655, 188.291004)" fill="none" stroke-linejoin="miter" d="M 12.360676 21.354731 C 8.318739 21.351514 5.346031 20.518991 3.442553 18.857163 C 1.754686 17.385725 0.909989 15.373898 0.913784 12.832042 C 0.912427 10.29545 1.755414 8.291435 3.442744 6.819999 C 5.346729 5.153503 8.317115 4.324495 12.358997 4.322504 C 16.400878 4.320512 19.373586 5.153035 21.27712 6.820072 C 22.964987 8.29151 23.809627 10.298129 23.810984 12.834721 C 23.80719 15.376577 22.964259 17.385799 21.276929 18.857235 C 19.372944 20.523732 16.402558 21.352739 12.360676 21.354731 Z M 12.36018 16.969063 C 14.016502 16.966797 15.230231 16.495327 16.006461 15.544178 C 16.628419 14.776999 16.941584 13.872522 16.940749 12.830803 C 16.93997 11.794293 16.628115 10.891358 16.005298 10.132416 C 15.22931 9.177201 14.015703 8.695489 12.35938 8.697755 C 10.703002 8.694813 9.484178 9.176756 8.702796 10.133168 C 8.080725 10.889932 7.76756 11.794409 7.768339 12.83092 C 7.769175 13.872638 8.081029 14.775572 8.703959 15.54493 C 9.485099 16.494882 10.703802 16.966121 12.36018 16.969063 Z M 12.36018 16.969063 " stroke="#231f20" stroke-width="2.800008" stroke-opacity="1" stroke-miterlimit="4"/><path stroke-linecap="butt" transform="matrix(0.749524, 0.0267145, -0.0267145, 0.749524, 204.591877, 188.512956)" fill="none" stroke-linejoin="miter" d="M 20.904446 21.001452 L 1.824534 20.998771 L 1.82051 4.65521 L 8.679047 4.655705 L 8.679645 16.955156 L 20.906225 16.957155 Z M 20.904446 21.001452 " stroke="#231f20" stroke-width="2.800008" stroke-opacity="1" stroke-miterlimit="4"/><path stroke-linecap="butt" transform="matrix(0.74863, 0.0453115, -0.0453115, 0.74863, 220.861732, 189.080378)" fill="none" stroke-linejoin="miter" d="M 12.361488 21.351676 C 8.317614 21.351195 5.345545 20.524035 3.439453 18.86011 C 1.753586 17.386354 0.911857 15.376244 0.909068 12.830094 C 0.912106 10.294028 1.756204 8.291457 3.441046 6.817182 C 5.343938 5.152302 8.320235 4.325144 12.358596 4.320741 C 16.40247 4.321222 19.374854 5.153581 21.280945 6.817505 C 22.966812 8.291262 23.808227 10.296173 23.810387 12.831925 C 23.807978 15.378389 22.964195 17.386159 21.279352 18.860434 C 19.370947 20.520429 16.400164 21.352472 12.361488 21.351676 Z M 12.362311 16.96862 C 14.016315 16.967649 15.229405 16.492451 16.00678 15.542709 C 16.628176 14.774597 16.938915 13.87397 16.938369 12.83043 C 16.938136 11.792089 16.628014 10.892516 16.002801 10.132024 C 15.230148 9.176959 14.016661 8.697313 12.357458 8.698598 C 10.703454 8.699569 9.485165 9.175082 8.702906 10.130338 C 8.081196 10.89325 7.770456 11.793877 7.770688 12.832218 C 7.77092 13.870559 8.081358 14.775332 8.701686 15.541337 C 9.484423 16.490574 10.703108 16.969905 12.362311 16.96862 Z M 12.362311 16.96862 " stroke="#231f20" stroke-width="2.800008" stroke-opacity="1" stroke-miterlimit="4"/><path stroke-linecap="butt" transform="matrix(0.747153, 0.0652838, -0.0652838, 0.747153, 239.6468, 190.220496)" fill="none" stroke-linejoin="miter" d="M 12.360788 21.35173 C 8.319653 21.354543 5.345247 20.521748 3.438025 18.858532 C 1.75648 17.384725 0.911906 15.377706 0.909946 12.842211 C 0.912722 10.301074 1.756749 8.2929 3.442028 6.817689 C 5.346284 5.156042 8.321348 4.320992 12.357748 4.32382 C 14.663133 4.321054 16.57338 4.582854 18.103149 5.097482 C 19.62773 5.612563 20.823919 6.318411 21.696452 7.209385 C 22.563797 8.100812 23.160934 9.130869 23.476577 10.290086 L 16.141711 10.293145 C 15.374914 9.236087 14.115857 8.708261 12.359352 8.710122 C 10.701883 8.708557 9.483174 9.181016 8.703678 10.132688 C 8.080445 10.898176 7.767467 11.803857 7.76948 12.844088 C 7.771493 13.88432 8.080034 14.782748 8.700746 15.544108 C 9.484419 16.495128 10.702169 16.969053 12.359185 16.965429 C 13.697885 16.968706 14.701746 16.849623 15.371676 16.618557 C 16.046794 16.387037 16.538247 16.087915 16.850771 15.715548 L 14.168636 15.714636 L 14.168793 12.844353 L 23.479897 12.841147 L 23.477665 21.012984 L 20.628136 21.011013 L 20.050848 19.430263 C 18.23374 20.713095 15.670538 21.355313 12.360788 21.35173 Z M 12.360788 21.35173 " stroke="#231f20" stroke-width="2.800008" stroke-opacity="1" stroke-miterlimit="4"/><path stroke-linecap="butt" transform="matrix(0.74513, 0.085333, -0.085333, 0.74513, 258.490154, 191.869617)" fill="none" stroke-linejoin="miter" d="M 15.948823 21.000813 L 9.091672 20.999744 L 9.090316 13.251667 L 0.1687 4.65362 L 7.770113 4.653332 L 12.518472 9.540647 L 17.258647 4.651867 L 24.854885 4.652172 L 15.947466 13.252736 Z M 15.948823 21.000813 " stroke="#231f20" stroke-width="2.800008" stroke-opacity="1" stroke-miterlimit="4"/><g fill="#2291f6" fill-opacity="1"><g transform="translate(95.259975, 210.231873)"><g><path d="M 10.375 -1.28125 L 5.265625 -0.65625 L 4.140625 -9.828125 L -0.609375 -9.234375 L -0.984375 -12.234375 L 13.65625 -14.03125 L 14.03125 -11.03125 L 9.25 -10.453125 Z M 10.375 -1.28125 "/></g></g></g><g fill="#2291f6" fill-opacity="1"><g transform="translate(110.790157, 208.313637)"><g><path d="M 16.0625 -1.59375 L 1.375 -0.140625 L 0.15625 -12.34375 L 14.15625 -13.734375 L 14.46875 -10.71875 L 5.578125 -9.828125 L 5.765625 -7.921875 L 13.296875 -8.671875 L 13.53125 -6.3125 L 6 -5.5625 L 6.1875 -3.65625 L 15.765625 -4.609375 Z M 16.0625 -1.59375 "/></g></g></g><g fill="#2291f6" fill-opacity="1"><g transform="translate(127.38829, 206.653312)"><g><path d="M 9.25 -0.421875 C 6.226562 -0.191406 3.960938 -0.648438 2.453125 -1.796875 C 1.117188 -2.785156 0.378906 -4.238281 0.234375 -6.15625 C 0.0976562 -8.050781 0.617188 -9.597656 1.796875 -10.796875 C 3.117188 -12.140625 5.289062 -12.925781 8.3125 -13.15625 C 10.09375 -13.28125 11.578125 -13.179688 12.765625 -12.859375 C 13.953125 -12.546875 14.894531 -12.054688 15.59375 -11.390625 C 16.289062 -10.734375 16.773438 -9.960938 17.046875 -9.078125 L 11.65625 -8.6875 C 11.050781 -9.582031 10.019531 -9.976562 8.5625 -9.875 C 7.332031 -9.78125 6.453125 -9.359375 5.921875 -8.609375 C 5.492188 -7.992188 5.304688 -7.300781 5.359375 -6.53125 C 5.421875 -5.75 5.707031 -5.09375 6.21875 -4.5625 C 6.851562 -3.882812 7.785156 -3.59375 9.015625 -3.6875 C 10.472656 -3.789062 11.4375 -4.34375 11.90625 -5.34375 L 17.296875 -5.734375 C 17.148438 -4.804688 16.78125 -3.96875 16.1875 -3.21875 C 15.601562 -2.46875 14.742188 -1.84375 13.609375 -1.34375 C 12.484375 -0.851562 11.03125 -0.546875 9.25 -0.421875 Z M 9.25 -0.421875 "/></g></g></g><g fill="#2291f6" fill-opacity="1"><g transform="translate(145.546952, 205.302384)"><g><path d="M 18.09375 -0.84375 L 12.953125 -0.609375 L 12.71875 -5.5625 L 6.28125 -5.25 L 6.515625 -0.296875 L 1.375 -0.0625 L 0.796875 -12.3125 L 5.9375 -12.546875 L 6.171875 -7.59375 L 12.609375 -7.90625 L 12.375 -12.859375 L 17.515625 -13.09375 Z M 18.09375 -0.84375 "/></g></g></g><g fill="#2291f6" fill-opacity="1"><g transform="translate(164.852513, 204.389789)"><g><path d="M 19.5625 -0.34375 L 13.4375 -0.234375 L 6.375 -8.40625 L 6.515625 -0.109375 L 1.375 -0.03125 L 1.15625 -12.296875 L 7.265625 -12.390625 L 14.359375 -4.25 L 14.203125 -12.515625 L 19.34375 -12.609375 Z M 19.5625 -0.34375 "/></g></g></g><g fill="#2291f6" fill-opacity="1"><g transform="translate(185.623533, 204.040083)"><g><path d="M 9.265625 0.359375 C 6.234375 0.328125 4.007812 -0.316406 2.59375 -1.578125 C 1.34375 -2.703125 0.726562 -4.21875 0.75 -6.125 C 0.769531 -8.03125 1.414062 -9.523438 2.6875 -10.609375 C 4.132812 -11.847656 6.375 -12.453125 9.40625 -12.421875 C 12.4375 -12.378906 14.660156 -11.726562 16.078125 -10.46875 C 17.328125 -9.351562 17.941406 -7.84375 17.921875 -5.9375 C 17.898438 -4.03125 17.253906 -2.53125 15.984375 -1.4375 C 14.535156 -0.195312 12.296875 0.398438 9.265625 0.359375 Z M 9.296875 -2.9375 C 10.546875 -2.914062 11.460938 -3.257812 12.046875 -3.96875 C 12.515625 -4.53125 12.753906 -5.203125 12.765625 -5.984375 C 12.773438 -6.765625 12.550781 -7.445312 12.09375 -8.03125 C 11.519531 -8.75 10.609375 -9.117188 9.359375 -9.140625 C 8.117188 -9.148438 7.207031 -8.796875 6.625 -8.078125 C 6.144531 -7.515625 5.898438 -6.84375 5.890625 -6.0625 C 5.878906 -5.28125 6.109375 -4.597656 6.578125 -4.015625 C 7.148438 -3.304688 8.054688 -2.945312 9.296875 -2.9375 Z M 9.296875 -2.9375 "/></g></g></g><g fill="#2291f6" fill-opacity="1"><g transform="translate(204.030873, 204.252961)"><g><path d="M 15.671875 0.5625 L 1.375 0.046875 L 1.8125 -12.203125 L 6.953125 -12.015625 L 6.625 -2.796875 L 15.78125 -2.46875 Z M 15.671875 0.5625 "/></g></g></g><g fill="#2291f6" fill-opacity="1"><g transform="translate(219.910192, 204.801608)"><g><path d="M 9.234375 0.828125 C 6.203125 0.640625 4.015625 -0.117188 2.671875 -1.453125 C 1.484375 -2.628906 0.945312 -4.164062 1.0625 -6.0625 C 1.175781 -7.96875 1.894531 -9.4375 3.21875 -10.46875 C 4.707031 -11.632812 6.96875 -12.125 10 -11.9375 C 13.019531 -11.757812 15.210938 -11 16.578125 -9.65625 C 17.773438 -8.476562 18.316406 -6.9375 18.203125 -5.03125 C 18.085938 -3.132812 17.363281 -1.671875 16.03125 -0.640625 C 14.519531 0.515625 12.253906 1.003906 9.234375 0.828125 Z M 9.4375 -2.46875 C 10.6875 -2.394531 11.617188 -2.695312 12.234375 -3.375 C 12.734375 -3.90625 13.007812 -4.5625 13.0625 -5.34375 C 13.101562 -6.125 12.910156 -6.816406 12.484375 -7.421875 C 11.953125 -8.171875 11.0625 -8.582031 9.8125 -8.65625 C 8.570312 -8.726562 7.640625 -8.425781 7.015625 -7.75 C 6.503906 -7.195312 6.226562 -6.53125 6.1875 -5.75 C 6.132812 -4.96875 6.328125 -4.285156 6.765625 -3.703125 C 7.304688 -2.953125 8.195312 -2.539062 9.4375 -2.46875 Z M 9.4375 -2.46875 "/></g></g></g><g fill="#2291f6" fill-opacity="1"><g transform="translate(238.275841, 205.910714)"><g><path d="M 9.21875 1.078125 C 6.195312 0.804688 4.023438 -0.015625 2.703125 -1.390625 C 1.546875 -2.585938 1.050781 -4.140625 1.21875 -6.046875 C 1.382812 -7.941406 2.140625 -9.382812 3.484375 -10.375 C 5.023438 -11.5 7.304688 -11.925781 10.328125 -11.65625 C 12.046875 -11.507812 13.457031 -11.191406 14.5625 -10.703125 C 15.664062 -10.210938 16.515625 -9.609375 17.109375 -8.890625 C 17.703125 -8.171875 18.082031 -7.363281 18.25 -6.46875 L 12.765625 -6.953125 C 12.253906 -7.785156 11.34375 -8.257812 10.03125 -8.375 C 8.789062 -8.488281 7.847656 -8.21875 7.203125 -7.5625 C 6.703125 -7.019531 6.414062 -6.367188 6.34375 -5.609375 C 6.28125 -4.828125 6.453125 -4.128906 6.859375 -3.515625 C 7.378906 -2.753906 8.257812 -2.316406 9.5 -2.203125 C 10.5 -2.117188 11.253906 -2.140625 11.765625 -2.265625 C 12.285156 -2.398438 12.675781 -2.597656 12.9375 -2.859375 L 10.921875 -3.03125 L 11.109375 -5.1875 L 18.078125 -4.578125 L 17.546875 1.546875 L 15.40625 1.359375 L 15.09375 0.140625 C 13.65625 0.972656 11.695312 1.285156 9.21875 1.078125 Z M 9.21875 1.078125 "/></g></g></g><g fill="#2291f6" fill-opacity="1"><g transform="translate(256.69816, 207.517339)"><g><path d="M 11.890625 1.359375 L 6.765625 0.78125 L 7.421875 -5 L 1.515625 -12.171875 L 7.1875 -11.53125 L 10.3125 -7.46875 L 14.265625 -10.71875 L 19.90625 -10.0625 L 12.546875 -4.421875 Z M 11.890625 1.359375 "/></g></g></g><g fill="#2291f6" fill-opacity="1"><g transform="translate(275.251662, 209.701391)"><g/></g></g></svg>